<svg xmlns="http://www.w3.org/2000/svg" width="37.877" height="37.877" viewBox="0 0 37.877 37.877"><defs><style>.a{fill:#fff;}</style></defs><g transform="translate(0 0)"><path d="M37.877,18.938a18.938,18.938,0,1,0-21.9,18.709V24.413H11.171V18.938h4.809V14.766c0-4.746,2.826-7.368,7.154-7.368a29.127,29.127,0,0,1,4.239.37v4.661H24.982A2.737,2.737,0,0,0,21.9,15.387v3.551H27.15l-.84,5.474H21.9V37.648A18.941,18.941,0,0,0,37.877,18.938Z"/><path class="a" d="M317.14,217.015l.84-5.474h-5.252V207.99a2.737,2.737,0,0,1,3.085-2.959H318.2V200.37a29.129,29.129,0,0,0-4.239-.37c-4.328,0-7.154,2.623-7.154,7.368v4.172H302v5.474h4.809V230.25a19.2,19.2,0,0,0,5.918,0V217.015Z" transform="translate(-290.829 -192.602)"/></g></svg>