<?xml version="1.0" encoding="utf-8"?>
<!-- Generator: Adobe Illustrator 19.0.0, SVG Export Plug-In . SVG Version: 6.00 Build 0)  -->
<svg version="1.1" xmlns="http://www.w3.org/2000/svg" xmlns:xlink="http://www.w3.org/1999/xlink" x="0px" y="0px"
	 viewBox="0 0 841.9 595.3" style="enable-background:new 0 0 841.9 595.3;" xml:space="preserve">
<style type="text/css">
	.st0{display:none;}
	.st1{display:inline;opacity:0.3;fill:url(#SVGID_1_);}
	.st2{display:inline;fill:none;stroke:#2B4E9E;stroke-width:10.7761;stroke-miterlimit:10;}
	.st3{display:inline;}
	.st4{fill:#2B4E9E;}
	.st5{fill:#49C0ED;}
	.st6{display:inline;fill:#2B4E9E;}
	.st7{fill:#FBB615;}
	.st8{display:inline;fill:none;}
	.st9{font-family:'ModernKING';}
	.st10{font-size:75.6942px;}
	.st11{display:inline;opacity:0.3;fill:url(#SVGID_4_);}
	.st12{display:inline;fill:none;stroke:#000000;stroke-width:10.7761;stroke-miterlimit:10;}
	.st13{display:inline;opacity:0.3;fill:url(#SVGID_6_);}
	.st14{display:inline;fill:none;stroke:#4C4C4C;stroke-width:10.7761;stroke-miterlimit:10;}
	.st15{fill:#4C4C4C;}
	.st16{fill:#A1A1A1;}
	.st17{display:inline;fill:#4C4C4C;}
	.st18{fill:#B9B9B9;}
	.st19{display:inline;fill:none;stroke:#FFFFFF;stroke-width:10.7761;stroke-miterlimit:10;}
	.st20{fill:#FFFFFF;}
	.st21{display:inline;fill:#FFFFFF;}
	.st22{display:inline;opacity:0.3;fill:url(#SVGID_9_);}
	.st23{fill:url(#SVGID_10_);}
	.st24{fill:url(#SVGID_11_);}
	.st25{display:inline;fill:url(#SVGID_12_);}
	.st26{display:inline;fill:url(#SVGID_13_);}
	.st27{fill:url(#SVGID_14_);}
	.st28{fill:url(#SVGID_15_);}
	.st29{fill:url(#SVGID_16_);}
	.st30{fill:url(#SVGID_17_);}
	.st31{fill:url(#SVGID_18_);}
	.st32{fill:url(#SVGID_19_);}
	.st33{fill:url(#SVGID_20_);}
	.st34{fill:url(#SVGID_21_);}
	.st35{fill:url(#SVGID_22_);}
	.st36{fill:url(#SVGID_23_);}
	.st37{fill:url(#SVGID_24_);}
	.st38{fill:url(#SVGID_25_);}
	.st39{fill:url(#SVGID_26_);}
	.st40{fill:none;stroke:#FFFFFF;stroke-width:10.7761;stroke-miterlimit:10;}
	.st41{fill:#FFFFFF;stroke:#FFFFFF;stroke-miterlimit:10;}
	.st42{fill:none;}
</style>
<g id="RGB" class="st0">
	<linearGradient id="SVGID_1_" gradientUnits="userSpaceOnUse" x1="211.4653" y1="285.7399" x2="650.541" y2="285.7399">
		<stop  offset="0" style="stop-color:#FFFFFF"/>
		<stop  offset="1" style="stop-color:#49C0ED"/>
	</linearGradient>
	<path class="st1" d="M272.2,465.9c-37.6-39.4-60.7-92.8-60.7-151.6c0-121.2,98.3-219.5,219.5-219.5c121.2,0,219.5,98.3,219.5,219.5
		c0,36.1-8.7,70.2-24.2,100.3c0,0-39.7-38.4-100.5-36.4C465,380.3,396,461.7,353.7,473C311.4,484.4,272.2,465.9,272.2,465.9z"/>
	<path class="st2" d="M272.2,465.9c-37.6-39.4-60.7-92.8-60.7-151.6c0-121.2,98.3-219.5,219.5-219.5c121.2,0,219.5,98.3,219.5,219.5
		c0,36.1-8.7,70.2-24.2,100.3"/>
	<g class="st3">
		<path class="st4" d="M653.5,448.6c0,0-1.3-1.4-3.8-3.9c-2.5-2.5-6.3-6.1-11.2-10.4c-4.9-4.3-11-9.4-18.2-14.7
			c-1.8-1.3-3.7-2.6-5.6-4c-2-1.3-4-2.7-6.1-4c-2.1-1.3-4.3-2.6-6.5-3.9c-2.3-1.2-4.5-2.6-6.9-3.7c-2.4-1.2-4.8-2.4-7.3-3.5
			c-1.3-0.5-2.5-1.1-3.8-1.6c-1.3-0.6-2.6-1-3.9-1.5c-5.3-1.9-10.8-3.6-16.5-4.6c-5.7-1-11.5-1.7-17.4-1.6c-0.7,0-1.5,0-2.2,0.1
			l-1.1,0c0.7,0,0.1,0,0.2,0l-0.2,0l-0.3,0l-0.6,0.1c-1.7,0.1-3.4,0.3-5.2,0.4l-1.3,0.1l-0.7,0l-0.6,0.1c-0.7,0.1-1.5,0.2-2.2,0.3
			c-1.5,0.2-3,0.4-4.5,0.7c-12.5,2.3-25.2,6.3-37.6,12.2c-3.1,1.4-6.2,3.1-9.3,4.6c-1.5,0.8-3.1,1.7-4.6,2.6
			c-1.5,0.8-3.1,1.7-4.6,2.6c-6.1,3.6-12.2,7.5-18.3,11.5c-12.2,8.1-24.3,16.8-36.9,25.1c-12.6,8.3-25.7,16.3-39.8,22.3
			c-7,3-14.3,5.5-21.7,7.2c-0.9,0.2-1.9,0.4-2.8,0.6c-0.9,0.2-1.8,0.4-2.8,0.5c-1.9,0.3-3.7,0.6-5.6,0.8c-1.8,0.2-3.7,0.3-5.6,0.5
			c-0.9,0.1-1.8,0.1-2.8,0.2c-0.9,0-1.8,0-2.8,0c-0.9,0-1.8,0-2.7,0l-1.4,0l-0.9,0l-0.6,0c-1.6-0.1-3.2-0.3-4.7-0.4
			c-1.6-0.1-3.1-0.3-4.7-0.4c-1.6-0.2-3.2-0.4-4.8-0.6c-3.2-0.4-6.4-0.8-9.3-1.4c-1.5-0.3-3-0.5-4.4-0.8c-1.5-0.2-2.9-0.5-4.3-0.8
			c-11.4-2.3-21.6-5.3-30.5-8.3c-8.9-3-16.4-6-22.5-8.8c-6.1-2.7-10.8-5.1-13.9-6.8c-3.1-1.7-4.8-2.7-4.8-2.7s1.9,0.4,5.3,1.1
			c3.5,0.7,8.6,1.7,15,2.9c6.5,1.1,14.3,2.3,23.3,3.4c4.5,0.6,9.3,1.1,14.3,1.5c2.5,0.2,5.1,0.4,7.7,0.6c2.6,0.1,5.3,0.3,8.1,0.4
			c5.5,0.2,11.2,0.4,16.9,0.3c1.4,0,2.9,0,4.3,0c1.5-0.1,3.1-0.1,4.7-0.2c1.6-0.1,3.2-0.1,4.7-0.2l0.6,0c0.3,0-0.2,0-0.1,0l0.1,0
			l0.3,0l1-0.1c0.7-0.1,1.4-0.2,2.1-0.2c0.7-0.1,1.4-0.2,2.1-0.2c0.7-0.1,1.4-0.3,2.1-0.4c1.4-0.3,2.8-0.5,4.2-0.8
			c1.4-0.4,2.8-0.7,4.3-1.1c0.7-0.2,1.4-0.4,2.1-0.6c0.7-0.2,1.4-0.5,2.1-0.7c5.7-2,11.4-4.3,17.2-7.4c11.5-6,23-13.8,34.8-22.3
			c11.8-8.4,23.9-17.5,36.8-26.1c6.5-4.3,13.1-8.5,20-12.3c3.4-2,7-3.8,10.5-5.6c3.6-1.7,7.1-3.5,10.8-5c14.6-6.3,30.2-10.5,45.6-12
			c2-0.2,4-0.3,6-0.4c1-0.1,2-0.1,3-0.2l0.7,0l0.7,0l1.3,0c1.7,0,3.5,0,5.2,0l0.6,0l0.3,0l0.7,0l1.5,0.1c1,0.1,1.9,0.1,2.9,0.2
			c7.6,0.7,15,2.1,21.8,4.3c13.6,4.4,25.3,10.9,34.9,18c4.8,3.5,9.2,7.1,13.1,10.8c3.9,3.6,7.5,7.2,10.7,10.8
			c6.4,7,11.3,13.6,15.1,19.1c3.8,5.5,6.4,10.1,8.2,13.2C652.8,446.9,653.5,448.6,653.5,448.6z"/>
	</g>
	<g class="st3">
		<path class="st5" d="M624.2,450c0,0-1.3-1.5-4-4c-2.6-2.5-6.7-6.1-12.2-9.9c-2.8-1.9-5.9-3.9-9.5-5.8c-3.5-1.9-7.5-3.7-11.8-5.2
			c-4.3-1.5-9-2.8-14-3.5c-2.5-0.3-5-0.6-7.7-0.6c-0.7,0-1.3,0-2,0c-0.7,0-1.3,0-2,0.1l-1,0l-0.3,0c0.2,0,0,0,0,0l-0.1,0l-0.5,0
			c-0.7,0.1-1.5,0.1-2.2,0.2c-1.4,0.2-2.6,0.3-4,0.6c-0.7,0.1-1.4,0.2-2.1,0.4c-0.7,0.1-1.4,0.3-2.1,0.4c-2.8,0.6-5.6,1.4-8.4,2.3
			c-5.6,1.8-11.3,4.3-17,7.2c-2.9,1.4-5.7,3-8.6,4.6c-2.9,1.7-5.7,3.4-8.6,5.3c-5.8,3.6-11.6,7.6-17.5,11.8
			c-5.9,4.1-11.9,8.5-18,12.9c-6.1,4.4-12.4,8.9-18.8,13.3c-12.8,8.8-26.4,17.5-40.9,24.9c-7.3,3.7-14.8,7.1-22.5,9.9
			c-7.7,2.8-15.6,5.3-23.7,6.9c-8,1.7-16.2,2.8-24.2,3.3c-8,0.4-16.2,0.1-24-0.8c-7.8-1-15.3-2.6-22.5-4.6c-7.2-2-13.9-4.5-20.4-7.1
			c-12.9-5.3-24.4-11.6-34.6-17.8c-10.2-6.3-19.1-12.7-26.7-18.6c-7.6-6-13.9-11.5-19-16.2c-5.1-4.7-8.9-8.6-11.4-11.2
			c-1.3-1.3-2.2-2.4-2.9-3.1c-0.6-0.7-1-1.1-1-1.1s0.4,0.3,1.2,0.8c0.8,0.5,2,1.3,3.5,2.4c3,2.1,7.6,5,13.4,8.6
			c5.8,3.6,12.9,7.9,21.1,12.5c4.1,2.3,8.5,4.7,13.2,7.1c4.7,2.5,9.6,4.9,14.8,7.3c10.4,4.9,21.9,9.6,34.2,13.5
			c6.1,2,12.5,3.7,19.1,5.1c6.5,1.4,13.2,2.4,20,2.9c6.8,0.6,13.6,0.5,20.6-0.2c7-0.6,14-1.7,21-3.4c3.5-0.8,7-1.8,10.4-2.8
			c3.5-1.1,6.9-2.2,10.4-3.6c3.4-1.3,6.8-2.7,10.2-4.2c3.4-1.5,6.8-3.1,10.1-4.7c13.4-6.7,26.4-14.6,39.2-22.8
			c6.4-4.1,12.8-8.2,19.1-12.3c6.4-4.1,12.7-8.1,19-12c6.4-3.9,12.8-7.6,19.2-11c6.5-3.4,13-6.4,19.5-9c6.6-2.5,13.2-4.6,19.8-5.9
			c3.3-0.7,6.6-1.2,9.8-1.5c0.8-0.1,1.6-0.1,2.4-0.2c0.8,0,1.6-0.1,2.4-0.1c1.6-0.1,3.3-0.1,4.8,0c0.7,0,1.5,0.1,2.2,0.1l0.5,0
			l0.1,0c0.1,0,0,0,0.2,0l0.3,0l1.2,0.1c0.8,0.1,1.5,0.1,2.3,0.2c0.8,0.1,1.5,0.2,2.2,0.3c3,0.4,5.8,1,8.6,1.7
			c5.5,1.4,10.5,3.4,14.9,5.6c8.9,4.5,15.7,9.8,20.8,14.6c5.1,4.8,8.5,9,10.8,11.9C623.2,448.3,624.2,450,624.2,450z"/>
	</g>
	<path class="st6" d="M364,329.7c2.7,1.2,4.2,3.1,5,5c26.5-11.8,54.1-23.8,79.7-34.3c-16.3-2.6-30.8-5-43.6-7.1
		C361.5,286,337.5,282,323,282c-6.1,0-10.6,0.7-14,2.3c-8.7,4-14.4,7.2-14.6,7.3l-8.3,4.6l8.7,3.7
		C295.3,300.2,351.5,324.2,364,329.7z"/>
	<path class="st6" d="M590.4,292.2c-2.2-9.3-12.6-10.9-37.9-14.6c-0.7-0.1-1.5-0.2-2.4-0.2c-26.2,0-144,51.8-204.2,79.1
		c-2.7-1.2-5.4-2.3-7.9-3.4c-24.1-10.2-37.3-15.9-47.9-15.9c-3.2,0-6.1,0.5-8.9,1.6l-0.3,0.1l-14,7.5l51.1,39c0,0,23.1-0.6,27.6-0.7
		c14.7-0.5,51.9-1.1,100.5-19.3c23.8-8.9,36-13.6,78.8-30.4C583.3,312.1,592.8,302.6,590.4,292.2z"/>
	<g class="st3">
		<path class="st7" d="M460.5,279c0,0-0.3-0.5-1-1.5c-0.6-1-1.6-2.4-2.9-4.2c-1.3-1.8-2.9-3.9-4.7-6.3c-1.9-2.4-4.1-4.9-6.5-7.6
			c-5-5.4-11.1-11.3-18.5-16.2c-1.9-1.2-3.8-2.4-5.8-3.4c-1-0.5-2-1.1-3-1.5l-1.5-0.7c-0.5-0.2-1.1-0.4-1.6-0.6
			c-0.5-0.2-1.1-0.4-1.6-0.6l-1.6-0.5c-1.1-0.4-2.2-0.7-3.3-1c-1.1-0.4-2.2-0.5-3.3-0.8l-0.7-0.2l-0.9-0.1l-1.9-0.3l-0.9-0.2
			l-0.8-0.1l-1.7-0.2c-1.1-0.1-2.3-0.1-3.4-0.2c-2.3-0.1-4.6,0-6.9,0.2c-2.3,0.2-4.5,0.5-6.8,0.9c-1.1,0.2-2.2,0.5-3.3,0.7
			c-1.1,0.3-2.2,0.6-3.2,0.8c-8.5,2.4-16.2,6.1-22.5,9.8c-3.2,1.8-6,3.7-8.5,5.4c-2.5,1.7-4.6,3.3-6.3,4.6c-1.7,1.3-3.1,2.4-4,3.2
			c-0.9,0.8-1.4,1.2-1.4,1.2s0.3-0.5,1-1.5c0.7-1,1.7-2.4,3.1-4.1c1.4-1.7,3.2-3.8,5.4-6c2.2-2.2,4.7-4.6,7.7-7
			c6-4.8,13.7-9.8,23-13.1c1.2-0.4,2.3-0.8,3.5-1.2c1.2-0.3,2.4-0.7,3.7-1c2.5-0.6,5-1.1,7.7-1.4c2.6-0.3,5.3-0.5,7.9-0.4
			c1.3,0.1,2.6,0,4,0.2l2.1,0.2l1,0.1l0.9,0.1l1.8,0.3l0.9,0.2l0.1,0l0.2,0l0.1,0l0.2,0.1l0.5,0.1c1.3,0.3,2.6,0.6,3.9,1
			c1.3,0.4,2.6,0.7,3.8,1.2l1.9,0.7c0.6,0.2,1.2,0.5,1.8,0.8c0.6,0.3,1.2,0.5,1.8,0.8l1.7,0.9c1.2,0.6,2.3,1.3,3.4,1.9
			c2.2,1.3,4.3,2.8,6.2,4.2c3.9,3,7.3,6.3,10.3,9.6c3,3.3,5.5,6.7,7.7,9.8c2.2,3.2,3.9,6.2,5.3,9c1.5,2.7,2.5,5.2,3.4,7.2
			c0.9,2,1.4,3.7,1.8,4.8C460.3,278.4,460.5,279,460.5,279z"/>
	</g>
	<g class="st3">
		<path class="st7" d="M402.4,150.8c0,0,0.2,0.2,0.4,0.6c0.3,0.4,0.7,1,1.1,1.8c0.5,0.8,1,1.7,1.5,2.9c0.5,1.1,1.1,2.5,1.6,3.9
			c0.5,1.5,1,3.1,1.3,4.9c0.2,0.9,0.4,1.8,0.4,2.8c0.1,1,0.2,2,0.2,3c0,0.5,0,1,0,1.6c0,0.5-0.1,1.1-0.1,1.6
			c-0.1,0.5-0.1,1.1-0.2,1.6c-0.1,0.5-0.2,1.1-0.4,1.6c-0.5,2.2-1.4,4.4-2.6,6.4c-0.5,0.8-1,1.6-1.4,2.5c-0.3,0.8-0.6,1.4-0.9,2.2
			c-0.5,1.6-1,3.3-1.3,5c-0.2,0.8-0.3,1.7-0.4,2.5c0,0.4-0.1,0.8-0.1,1.2c0,0.4,0,0.8-0.1,1.2c0,0.4-0.1,0.8-0.1,1.2
			c0,0.4,0,0.8,0,1.2c0,0.8,0,1.5,0,2.3c0,0.7,0,1.4,0,2.1c0,0.7,0,1.3,0.1,1.9c0.1,1.2,0.1,2.3,0.2,3.2c0.1,1.8,0.2,2.8,0.2,2.8
			s-0.2-0.2-0.4-0.6c-0.2-0.4-0.6-1-1-1.8c-0.4-0.8-0.9-1.8-1.4-3c-0.2-0.6-0.5-1.2-0.7-1.9c-0.2-0.7-0.5-1.4-0.7-2.1
			c-0.2-0.8-0.4-1.5-0.6-2.4c-0.2-0.8-0.3-1.7-0.4-2.6c-0.1-0.9-0.2-1.8-0.3-2.8c-0.1-1,0-2,0-3c0.1-2,0.4-4.2,1.1-6.3
			c0.3-1.1,0.8-2.3,1.3-3.4c0.5-0.9,1-1.8,1.5-2.7c0.9-1.4,1.6-2.9,2-4.6c0.1-0.4,0.2-0.8,0.4-1.2c0.1-0.4,0.2-0.8,0.2-1.3
			c0.1-0.4,0.2-0.8,0.2-1.3c0-0.4,0.1-0.9,0.1-1.3c0.2-1.7,0.2-3.4,0.2-5c0-1.6-0.1-3.2-0.2-4.7c-0.1-1.5-0.2-2.8-0.4-4
			c-0.1-1.2-0.3-2.3-0.4-3.1C402.6,151.9,402.4,150.8,402.4,150.8z"/>
	</g>
	<g class="st3">
		<path class="st7" d="M339.7,177.6c0,0,0.3,0.7,1,2c0.3,0.6,0.7,1.4,1.1,2.3c0.4,0.9,0.9,1.8,1.4,2.8c1.1,2,2.4,4.3,4,6.4
			c0.4,0.5,0.8,1.1,1.3,1.5l0.7,0.7c0.2,0.2,0.5,0.4,0.7,0.6c0.2,0.2,0.5,0.4,0.7,0.6c0.3,0.2,0.5,0.3,0.8,0.5
			c0.5,0.4,1,0.6,1.6,0.9c0.7,0.4,1.5,0.8,2.2,1.2c0.8,0.6,1.7,1.2,2.4,1.8c0.6,0.6,1.3,1.2,1.9,2c0.5,0.7,1.1,1.3,1.5,2.1
			c0.4,0.7,0.9,1.4,1.2,2.1c0.4,0.7,0.7,1.4,0.9,2.1c0.5,1.4,0.9,2.7,1.2,3.9c0.3,1.2,0.5,2.4,0.6,3.4c0.1,1,0.1,1.9,0.1,2.6
			c0,0.7,0,1.3-0.1,1.7c0,0.4-0.1,0.6-0.1,0.6s-0.4-0.7-1.1-2c-0.3-0.6-0.8-1.4-1.2-2.2c-0.2-0.4-0.5-0.9-0.8-1.3
			c-0.3-0.5-0.5-0.9-0.9-1.4c-0.3-0.5-0.6-1-1-1.5c-0.3-0.5-0.7-1-1-1.5c-0.2-0.3-0.4-0.5-0.5-0.8c-0.2-0.3-0.4-0.5-0.6-0.8
			c-0.2-0.3-0.4-0.5-0.6-0.8c-0.2-0.2-0.4-0.5-0.7-0.7c-0.9-1-1.8-1.9-2.8-2.7c-0.5-0.4-0.9-0.6-1.4-1c-0.7-0.3-1.3-0.7-2-1
			c-0.9-0.5-1.8-0.9-2.5-1.5c-0.4-0.3-0.8-0.6-1.1-0.9c-0.4-0.3-0.7-0.7-1-1c-0.3-0.3-0.7-0.7-0.9-1c-0.3-0.4-0.5-0.7-0.8-1.1
			c-0.5-0.7-0.9-1.4-1.3-2.2c-0.8-1.5-1.4-2.9-1.8-4.3c-0.4-1.4-0.7-2.7-0.9-4c-0.4-2.5-0.4-4.5-0.3-6c0-0.7,0.1-1.3,0.2-1.7
			C339.6,177.8,339.7,177.6,339.7,177.6z"/>
	</g>
	<g class="st3">
		<path class="st7" d="M475.8,173.8c0,0,0,0.3,0,0.7c0,0.5,0,1.2-0.2,2.1c-0.2,1.8-0.6,4.3-1.6,7.2c-0.9,2.9-2.4,6.3-4.8,9.6
			c-1.2,1.6-2.6,3.2-4.4,4.6c-1.8,1.4-3.8,2.5-6.1,3.2l-0.4,0.1l-0.1,0c-0.2,0.1,0.3-0.1,0.2-0.1l0,0l-0.1,0l-0.2,0.1l-0.7,0.2
			l-1.4,0.5c-0.6,0.4-1.3,0.6-2,1c-1.4,0.9-2.8,1.8-4,3c-0.3,0.3-0.6,0.6-0.9,0.8c-0.3,0.3-0.6,0.6-0.9,0.9
			c-0.3,0.3-0.6,0.6-0.9,0.9c-0.3,0.3-0.5,0.6-0.8,0.9c-0.5,0.6-1,1.2-1.5,1.8c-0.5,0.6-0.9,1.2-1.4,1.8c-0.5,0.6-0.8,1.1-1.2,1.7
			c-0.4,0.5-0.7,1.1-1.1,1.5c-0.7,1-1.3,1.8-1.7,2.6c-1,1.5-1.5,2.3-1.5,2.3s0-0.3,0.1-0.7c0.1-0.5,0.1-1.2,0.3-2
			c0.2-0.9,0.4-1.9,0.7-3.1c0.3-1.2,0.8-2.5,1.3-4c0.3-0.7,0.6-1.5,1-2.2c0.4-0.8,0.8-1.5,1.2-2.3c0.2-0.4,0.5-0.8,0.7-1.2
			c0.3-0.4,0.5-0.8,0.8-1.2c0.3-0.4,0.5-0.8,0.8-1.2c0.3-0.4,0.6-0.8,1-1.1c0.6-0.8,1.4-1.5,2.2-2.2c0.7-0.8,1.7-1.4,2.6-2
			c0.4-0.3,1-0.6,1.5-0.9c0.5-0.3,1.1-0.6,1.6-0.8l1.4-0.5l0.7-0.3l0.2-0.1l0.1,0l0.3-0.1l0.3-0.1c1.5-0.4,2.9-1.2,4.3-2.1
			c1.3-0.9,2.6-2.1,3.8-3.3c2.3-2.4,4.2-5.1,5.8-7.5c1.6-2.4,2.8-4.5,3.7-6.1C475.3,174.7,475.8,173.8,475.8,173.8z"/>
	</g>
	<g class="st3">
		<path class="st7" d="M279.5,197.4c0,0,0.7,0.9,2,2.5c1.3,1.5,3.1,3.7,5.3,6.2c2.3,2.4,5,5.1,8.2,7.4c1.6,1.1,3.3,2.1,5.1,2.9
			c1.8,0.7,3.6,1.2,5.5,1.4l1.7,0.2c0.3,0,0.6,0.1,1,0.1l1,0.2c1.3,0.3,2.5,0.7,3.7,1.1c2.4,0.9,4.5,2.2,6.3,3.6
			c3.7,2.8,6.4,6.1,8.3,9c2,2.9,3.2,5.6,4,7.5c0.4,0.9,0.6,1.7,0.8,2.2c0.2,0.5,0.2,0.8,0.2,0.8s-0.8-0.9-2.1-2.3
			c-1.4-1.5-3.3-3.5-5.7-5.8c-2.4-2.2-5.3-4.7-8.7-6.7c-1.7-1-3.5-1.9-5.3-2.5c-0.9-0.3-1.9-0.5-2.8-0.7l-0.6-0.1
			c-0.2,0-0.4-0.1-0.7-0.1l-1.7-0.1c-2.7-0.2-5.3-1-7.5-2.1c-2.3-1.1-4.3-2.6-6-4.1c-3.4-3.1-5.9-6.5-7.6-9.6
			c-1.8-3.1-2.8-5.8-3.5-7.7c-0.3-1-0.5-1.7-0.7-2.3C279.6,197.7,279.5,197.4,279.5,197.4z"/>
	</g>
	<g class="st3">
		<path class="st7" d="M460.5,255.1c0,0,0.1-0.3,0.3-0.7c0.2-0.5,0.6-1.2,1.1-2c1-1.7,2.6-4.1,5-6.7c2.3-2.6,5.4-5.4,9.4-7.6
			c2-1.1,4.2-2.1,6.7-2.6c2.5-0.6,5.1-0.7,7.7-0.3l1.6,0.2c0.3,0.1,0.5,0,0.7,0.1l0.6,0l1.4,0c0.5,0,0.9,0,1.4-0.1
			c1.9-0.2,3.8-0.6,5.6-1.2c3.7-1.2,7-2.9,9.8-4.6c2.8-1.7,5.1-3.2,6.7-4.4c0.8-0.6,1.4-1,1.9-1.3c0.4-0.3,0.7-0.5,0.7-0.5
			s-0.1,0.3-0.4,0.7c-0.3,0.5-0.7,1.2-1.2,2c-1.1,1.7-2.9,4-5.4,6.4c-2.5,2.4-5.8,5-10,6.9c-2.1,0.9-4.4,1.7-6.9,2.1
			c-1.2,0.2-2.5,0.3-3.8,0.3l-1-0.1c-0.3,0-0.7,0-1-0.1l-1.7-0.2c-1.8-0.3-3.7-0.2-5.5,0.1c-1.9,0.3-3.7,0.9-5.5,1.7
			c-3.5,1.5-6.7,3.5-9.4,5.3c-2.7,1.9-4.9,3.6-6.4,4.8C461.3,254.4,460.5,255.1,460.5,255.1z"/>
	</g>
	<g class="st3">
		<path class="st4" d="M212.4,505c0,0,1.5,1.1,4.4,3c2.9,1.9,7.2,4.6,12.8,7.8c5.6,3.2,12.5,6.9,20.6,10.6
			c8.1,3.7,17.3,7.5,27.6,10.9c5.2,1.7,10.5,3.3,16.2,4.7c5.6,1.4,11.5,2.7,17.5,3.8c6.1,1,12.3,1.9,18.7,2.4
			c6.4,0.6,12.9,0.8,19.5,0.8c3.3,0,6.7-0.1,10-0.3l2.5-0.2l0.6,0l0.2,0c0.2,0-0.1,0,0,0l0.3,0l1.3-0.1l1.3-0.1
			c0.4,0,0.9-0.1,1.3-0.1l2.3-0.3c6.4-0.9,12.8-2.5,19.2-4.5c6.4-2,12.7-4.7,18.9-7.8c6.2-3,12.3-6.5,18.4-10.3
			c6-3.7,12-7.7,17.9-11.9c5.9-4.2,11.7-8.4,17.5-12.8c11.6-8.6,23.1-17.4,34.8-25.4c11.7-8,23.7-15.2,36.2-20.4
			c3.1-1.3,6.2-2.5,9.4-3.4c1.6-0.5,3.2-0.9,4.7-1.4c1.6-0.4,3.1-0.8,4.7-1.1c6.3-1.3,12.6-1.9,18.6-1.7c0.7,0,1.5,0.1,2.2,0.1
			l1.1,0.1l0.7,0l0.5,0.1c0.7,0.1,1.4,0.1,2,0.2l1,0.1l1.1,0.1c1.4,0.2,2.9,0.4,4.2,0.7c0.7,0.1,1.3,0.3,2,0.4
			c0.7,0.2,1.3,0.3,2,0.5c5.2,1.3,10,3.1,14.2,5.2c8.5,4.2,14.9,9.3,19.7,13.9c4.7,4.6,7.9,8.8,9.9,11.6c2,2.9,2.8,4.6,2.8,4.6
			s-1.1-1.5-3.6-3.9c-2.4-2.5-6.1-6-11.3-9.6c-2.6-1.9-5.5-3.7-8.9-5.5c-3.3-1.8-7.1-3.5-11.2-4.9c-4.1-1.4-8.5-2.5-13.3-3.1
			c-0.6-0.1-1.2-0.1-1.8-0.2c-0.6,0-1.2-0.1-1.8-0.1c-1.2-0.1-2.4-0.1-3.6-0.2l-0.9,0l-1,0c-0.7,0-1.3,0-2,0l-0.5,0
			c-0.1,0,0.2,0,0,0l-0.1,0l-0.2,0l-1,0.1c-0.6,0.1-1.3,0.1-1.9,0.2c-5.1,0.6-10.3,1.8-15.6,3.7c-5.3,1.8-10.5,4.3-15.8,7.1
			c-10.5,5.8-21,13.4-31.7,21.8c-10.7,8.4-21.6,17.6-33.1,26.8c-5.8,4.6-11.6,9.2-17.8,13.6c-6.1,4.4-12.4,8.8-19,12.9
			c-6.6,4-13.4,7.8-20.5,11.2c-7.1,3.3-14.5,6.2-22,8.4c-1.9,0.6-3.8,1-5.7,1.5c-1.9,0.4-3.8,0.9-5.8,1.2c-3.9,0.8-7.7,1.3-11.7,1.6
			l-3,0.2c-0.5,0-1,0.1-1.4,0.1l-1.3,0.1l-1.3,0l-0.9,0l-0.7,0l-2.8,0c-3.7,0-7.4-0.1-11-0.3c-3.6-0.2-7.2-0.5-10.8-0.8
			c-3.5-0.4-7-0.9-10.5-1.4c-3.4-0.5-6.8-1.2-10.1-1.9c-3.3-0.7-6.6-1.5-9.8-2.4c-12.8-3.4-24.4-7.8-34.8-12.7
			c-5.2-2.4-10-4.9-14.5-7.5c-4.5-2.6-8.7-5.1-12.5-7.7c-3.8-2.5-7.4-5-10.5-7.4c-3.2-2.4-6-4.7-8.5-6.8c-5-4.2-8.7-7.8-11.2-10.3
			C213.5,506.4,212.4,505,212.4,505z"/>
	</g>
	<path id="SVGID_x5F_2_x5F_" class="st8" d="M213.9,401.6c-10.5-26.5-16.2-55.4-16.2-85.7c0-128.9,104.5-233.5,233.5-233.5
		c128.9,0,233.5,104.5,233.5,233.5c0,30.3-5.8,59.2-16.3,85.8"/>
	<text>	<textPath  xlink:href="#SVGID_x5F_2_x5F_" startOffset="0%"  class="st3">
<tspan  class="st4 st9 st10" style="letter-spacing:100;">GRACE TRAVEL</tspan>	</textPath>
</text>
	<path id="SVGID_x5F_3_x5F_" class="st8" d="M190.5,315.1c0-132.9,107.8-240.7,240.7-240.7s240.7,107.8,240.7,240.7"/>
	<text class="st6 st9 st10">	<textPath  xlink:href="#SVGID_x5F_3_x5F_" startOffset="0%">
GRACE TRAVEL	</textPath>
</text>
</g>
<g id="Black" class="st0">
	<linearGradient id="SVGID_4_" gradientUnits="userSpaceOnUse" x1="211.4653" y1="285.7399" x2="650.541" y2="285.7399">
		<stop  offset="0" style="stop-color:#FFFFFF"/>
		<stop  offset="1" style="stop-color:#A1A1A1"/>
	</linearGradient>
	<path class="st11" d="M272.2,465.9c-37.6-39.4-60.7-92.8-60.7-151.6c0-121.2,98.3-219.5,219.5-219.5
		c121.2,0,219.5,98.3,219.5,219.5c0,36.1-8.7,70.2-24.2,100.3c0,0-39.7-38.4-100.5-36.4C465,380.3,396,461.7,353.7,473
		C311.4,484.4,272.2,465.9,272.2,465.9z"/>
	<path class="st12" d="M272.2,465.9c-37.6-39.4-60.7-92.8-60.7-151.6c0-121.2,98.3-219.5,219.5-219.5
		c121.2,0,219.5,98.3,219.5,219.5c0,36.1-8.7,70.2-24.2,100.3"/>
	<g class="st3">
		<path d="M653.5,448.6c0,0-1.3-1.4-3.8-3.9c-2.5-2.5-6.3-6.1-11.2-10.4c-4.9-4.3-11-9.4-18.2-14.7c-1.8-1.3-3.7-2.6-5.6-4
			c-2-1.3-4-2.7-6.1-4c-2.1-1.3-4.3-2.6-6.5-3.9c-2.3-1.2-4.5-2.6-6.9-3.7c-2.4-1.2-4.8-2.4-7.3-3.5c-1.3-0.5-2.5-1.1-3.8-1.6
			c-1.3-0.6-2.6-1-3.9-1.5c-5.3-1.9-10.8-3.6-16.5-4.6c-5.7-1-11.5-1.7-17.4-1.5c-0.7,0-1.5,0-2.2,0.1l-1.1,0c0.7,0,0.1,0,0.2,0
			l-0.2,0l-0.3,0l-0.6,0.1c-1.7,0.1-3.4,0.3-5.2,0.4l-1.3,0.1l-0.7,0l-0.6,0.1c-0.7,0.1-1.5,0.2-2.2,0.3c-1.5,0.2-3,0.4-4.5,0.7
			c-12.5,2.3-25.2,6.3-37.6,12.2c-3.1,1.4-6.2,3.1-9.3,4.6c-1.5,0.8-3.1,1.7-4.6,2.6c-1.5,0.8-3.1,1.7-4.6,2.6
			c-6.1,3.6-12.2,7.5-18.3,11.5c-12.2,8.1-24.3,16.8-36.9,25.1c-12.6,8.3-25.7,16.3-39.8,22.3c-7,3-14.3,5.5-21.7,7.2
			c-0.9,0.2-1.9,0.4-2.8,0.6c-0.9,0.2-1.8,0.4-2.8,0.5c-1.9,0.3-3.7,0.6-5.6,0.8c-1.8,0.2-3.7,0.3-5.6,0.5c-0.9,0.1-1.8,0.1-2.8,0.2
			c-0.9,0-1.8,0-2.8,0c-0.9,0-1.8,0-2.7,0l-1.4,0l-0.9,0l-0.6-0.1c-1.6-0.1-3.2-0.3-4.7-0.4c-1.6-0.1-3.1-0.3-4.7-0.4
			c-1.6-0.2-3.2-0.4-4.8-0.6c-3.2-0.4-6.4-0.8-9.3-1.4c-1.5-0.3-3-0.5-4.4-0.8c-1.5-0.2-2.9-0.5-4.3-0.8
			c-11.4-2.3-21.6-5.3-30.5-8.3c-8.9-3-16.4-6-22.5-8.8c-6.1-2.7-10.8-5.1-13.9-6.8c-3.1-1.7-4.8-2.7-4.8-2.7s1.9,0.4,5.3,1.1
			c3.5,0.7,8.6,1.7,15,2.9c6.5,1.1,14.3,2.3,23.3,3.4c4.5,0.6,9.3,1.1,14.3,1.5c2.5,0.2,5.1,0.4,7.7,0.6c2.6,0.1,5.3,0.3,8.1,0.4
			c5.5,0.2,11.2,0.4,16.9,0.3c1.4,0,2.9,0,4.3,0c1.5-0.1,3.1-0.1,4.7-0.2s3.2-0.1,4.7-0.2l0.6,0c0.3,0-0.2,0-0.1,0l0.1,0l0.3,0
			l1-0.1c0.7-0.1,1.4-0.2,2.1-0.2c0.7-0.1,1.4-0.2,2.1-0.2c0.7-0.1,1.4-0.3,2.1-0.4c1.4-0.3,2.8-0.5,4.2-0.8
			c1.4-0.4,2.8-0.7,4.3-1.1c0.7-0.2,1.4-0.4,2.1-0.6c0.7-0.2,1.4-0.5,2.1-0.7c5.7-2,11.4-4.3,17.2-7.4c11.5-6,23-13.8,34.8-22.3
			c11.8-8.4,23.9-17.5,36.8-26.1c6.5-4.3,13.1-8.5,20-12.3c3.4-2,7-3.8,10.5-5.6c3.6-1.7,7.1-3.5,10.8-5c14.6-6.3,30.2-10.5,45.6-12
			c2-0.2,4-0.3,6-0.4c1-0.1,2-0.1,3-0.2l0.7,0l0.7,0l1.3,0c1.7,0,3.5,0,5.2,0l0.6,0l0.3,0l0.7,0l1.5,0.1c1,0.1,1.9,0.1,2.9,0.2
			c7.6,0.7,15,2.1,21.8,4.3c13.6,4.4,25.3,10.9,34.9,18c4.8,3.5,9.2,7.1,13.1,10.8c3.9,3.6,7.5,7.2,10.7,10.8
			c6.4,7,11.3,13.6,15.1,19.1c3.8,5.5,6.4,10.1,8.2,13.2C652.7,446.9,653.5,448.6,653.5,448.6z"/>
	</g>
	<g class="st3">
		<path d="M624.2,450c0,0-1.3-1.5-4-4c-2.6-2.5-6.7-6.1-12.2-9.9c-2.8-1.9-5.9-3.9-9.5-5.8c-3.5-1.9-7.5-3.7-11.8-5.2
			c-4.3-1.5-9-2.8-14-3.5c-2.5-0.3-5-0.6-7.7-0.6c-0.7,0-1.3,0-2,0c-0.7,0-1.3,0-2,0.1l-1,0l-0.3,0c0.2,0,0,0,0,0l-0.1,0l-0.5,0
			c-0.7,0.1-1.5,0.1-2.2,0.2c-1.4,0.2-2.6,0.3-4,0.6c-0.7,0.1-1.4,0.2-2.1,0.4c-0.7,0.1-1.4,0.3-2.1,0.4c-2.8,0.6-5.6,1.4-8.4,2.3
			c-5.6,1.8-11.3,4.3-17,7.2c-2.9,1.4-5.7,3-8.6,4.6c-2.9,1.7-5.7,3.4-8.6,5.3c-5.8,3.6-11.6,7.6-17.5,11.8
			c-5.9,4.1-11.9,8.5-18,12.9c-6.1,4.4-12.4,8.9-18.8,13.3c-12.8,8.8-26.4,17.5-40.9,24.9c-7.3,3.7-14.8,7.1-22.5,9.9
			c-7.7,2.8-15.6,5.3-23.7,6.9c-8,1.7-16.2,2.8-24.2,3.3c-8,0.4-16.2,0.1-24-0.8c-7.8-1-15.3-2.6-22.5-4.6c-7.2-2-13.9-4.5-20.4-7.1
			c-12.9-5.3-24.4-11.6-34.6-17.8c-10.2-6.3-19.1-12.7-26.7-18.6c-7.6-6-13.9-11.5-19-16.2c-5.1-4.7-8.9-8.6-11.4-11.2
			c-1.3-1.3-2.2-2.4-2.9-3.1c-0.6-0.7-1-1.1-1-1.1s0.4,0.3,1.2,0.8c0.8,0.5,2,1.3,3.5,2.4c3,2.1,7.6,5,13.4,8.6
			c5.8,3.6,12.9,7.9,21.1,12.5c4.1,2.3,8.5,4.7,13.2,7.1c4.7,2.5,9.6,4.9,14.8,7.3c10.4,4.9,21.9,9.6,34.2,13.5
			c6.1,2,12.5,3.7,19.1,5.1c6.5,1.4,13.2,2.4,20,2.9c6.8,0.6,13.6,0.5,20.6-0.2c7-0.6,14-1.7,21-3.4c3.5-0.8,7-1.8,10.4-2.8
			c3.5-1.1,6.9-2.2,10.4-3.6c3.4-1.3,6.8-2.7,10.2-4.2c3.4-1.5,6.8-3.1,10.1-4.7c13.4-6.7,26.4-14.6,39.2-22.8
			c6.4-4.1,12.8-8.2,19.1-12.3c6.4-4.1,12.7-8.1,19-12c6.4-3.9,12.8-7.6,19.2-11c6.5-3.4,13-6.4,19.5-9c6.6-2.5,13.2-4.6,19.8-5.9
			c3.3-0.7,6.6-1.2,9.8-1.5c0.8-0.1,1.6-0.1,2.4-0.2c0.8,0,1.6-0.1,2.4-0.1c1.6-0.1,3.3-0.1,4.8,0c0.7,0,1.5,0.1,2.2,0.1l0.5,0
			l0.1,0c0.1,0,0,0,0.2,0l0.3,0l1.2,0.1c0.8,0.1,1.5,0.1,2.3,0.2c0.8,0.1,1.5,0.2,2.2,0.3c3,0.4,5.8,1,8.6,1.7
			c5.5,1.4,10.5,3.4,14.9,5.6c8.9,4.5,15.7,9.8,20.8,14.6c5.1,4.8,8.5,9,10.8,11.9C623.2,448.3,624.2,450,624.2,450z"/>
	</g>
	<path class="st3" d="M364,329.7c2.7,1.2,4.2,3.1,5,5c26.5-11.8,54.1-23.8,79.7-34.3c-16.3-2.6-30.8-5-43.6-7.1
		C361.5,286,337.5,282,323,282c-6.1,0-10.6,0.7-14,2.3c-8.7,4-14.4,7.2-14.6,7.3l-8.3,4.6l8.7,3.7
		C295.3,300.2,351.5,324.2,364,329.7z"/>
	<path class="st3" d="M590.4,292.2c-2.2-9.3-12.6-10.9-37.9-14.6c-0.7-0.1-1.5-0.2-2.4-0.2c-26.2,0-144,51.8-204.2,79.1
		c-2.7-1.2-5.4-2.3-7.9-3.4c-24.1-10.2-37.3-15.9-47.9-15.9c-3.2,0-6.1,0.5-8.9,1.6l-0.3,0.1l-14,7.5l51.1,39c0,0,23.1-0.6,27.6-0.7
		c14.7-0.5,51.9-1.1,100.5-19.3c23.8-8.9,36-13.6,78.8-30.4C583.3,312.1,592.8,302.6,590.4,292.2z"/>
	<g class="st3">
		<path d="M460.5,279c0,0-0.3-0.5-1-1.5c-0.6-1-1.6-2.4-2.9-4.2c-1.3-1.8-2.9-3.9-4.7-6.3c-1.9-2.4-4.1-4.9-6.5-7.6
			c-5-5.4-11.1-11.3-18.5-16.2c-1.9-1.2-3.8-2.4-5.8-3.4c-1-0.5-2-1.1-3-1.5l-1.5-0.7c-0.5-0.2-1.1-0.4-1.6-0.6
			c-0.5-0.2-1.1-0.4-1.6-0.6l-1.6-0.5c-1.1-0.4-2.2-0.7-3.3-1c-1.1-0.4-2.2-0.5-3.3-0.8l-0.7-0.2l-0.9-0.1l-1.9-0.3l-0.9-0.2
			l-0.8-0.1l-1.7-0.2c-1.1-0.1-2.3-0.1-3.4-0.2c-2.3-0.1-4.6,0-6.9,0.2c-2.3,0.2-4.5,0.5-6.8,0.9c-1.1,0.2-2.2,0.5-3.3,0.7
			c-1.1,0.3-2.2,0.6-3.2,0.8c-8.5,2.4-16.2,6.1-22.5,9.8c-3.2,1.8-6,3.7-8.5,5.4c-2.5,1.7-4.6,3.3-6.3,4.6c-1.7,1.3-3.1,2.4-4,3.2
			c-0.9,0.8-1.4,1.2-1.4,1.2s0.3-0.5,1-1.5c0.7-1,1.7-2.4,3.1-4.1c1.4-1.7,3.2-3.8,5.4-6c2.2-2.2,4.7-4.6,7.7-7
			c6-4.8,13.7-9.8,23-13.1c1.2-0.4,2.3-0.8,3.5-1.2c1.2-0.3,2.4-0.7,3.7-1c2.5-0.6,5-1.1,7.7-1.4c2.6-0.3,5.3-0.5,7.9-0.4
			c1.3,0.1,2.6,0,4,0.2l2.1,0.2l1,0.1l0.9,0.1l1.8,0.3l0.9,0.2l0.1,0l0.2,0l0.1,0l0.2,0.1l0.5,0.1c1.3,0.3,2.6,0.6,3.9,1
			c1.3,0.4,2.6,0.7,3.8,1.2l1.9,0.7c0.6,0.2,1.2,0.5,1.8,0.8c0.6,0.3,1.2,0.5,1.8,0.8l1.7,0.9c1.2,0.6,2.3,1.3,3.4,1.9
			c2.2,1.3,4.3,2.8,6.2,4.2c3.9,3,7.3,6.3,10.3,9.6c3,3.3,5.5,6.7,7.7,9.8c2.2,3.2,3.9,6.2,5.3,9c1.5,2.7,2.5,5.2,3.4,7.2
			c0.9,2,1.4,3.7,1.8,4.8C460.3,278.4,460.5,279,460.5,279z"/>
	</g>
	<g class="st3">
		<path d="M402.4,150.8c0,0,0.2,0.2,0.4,0.6c0.3,0.4,0.7,1,1.1,1.8c0.5,0.8,1,1.7,1.5,2.9c0.5,1.1,1.1,2.5,1.6,3.9
			c0.5,1.5,1,3.1,1.3,4.9c0.2,0.9,0.4,1.8,0.4,2.8c0.1,1,0.2,2,0.2,3c0,0.5,0,1,0,1.6c0,0.5-0.1,1.1-0.1,1.6
			c-0.1,0.5-0.1,1.1-0.2,1.6c-0.1,0.5-0.2,1.1-0.4,1.6c-0.5,2.2-1.4,4.4-2.6,6.4c-0.5,0.8-1,1.6-1.4,2.5c-0.3,0.8-0.6,1.4-0.9,2.2
			c-0.5,1.6-1,3.3-1.3,5c-0.2,0.8-0.3,1.7-0.4,2.5c0,0.4-0.1,0.8-0.1,1.2c0,0.4,0,0.8-0.1,1.2c0,0.4-0.1,0.8-0.1,1.2
			c0,0.4,0,0.8,0,1.2c0,0.8,0,1.5,0,2.3c0,0.7,0,1.4,0,2.1c0,0.7,0,1.3,0.1,1.9c0.1,1.2,0.1,2.3,0.2,3.2c0.1,1.8,0.2,2.8,0.2,2.8
			s-0.2-0.2-0.4-0.6c-0.2-0.4-0.6-1-1-1.8c-0.4-0.8-0.9-1.8-1.4-3c-0.2-0.6-0.5-1.2-0.7-1.9c-0.2-0.7-0.5-1.4-0.7-2.1
			c-0.2-0.8-0.4-1.5-0.6-2.4c-0.2-0.8-0.3-1.7-0.4-2.6c-0.1-0.9-0.2-1.8-0.3-2.8c-0.1-1,0-2,0-3c0.1-2,0.4-4.2,1.1-6.3
			c0.3-1.1,0.8-2.3,1.3-3.4c0.5-0.9,1-1.8,1.5-2.7c0.9-1.4,1.6-2.9,2-4.6c0.1-0.4,0.2-0.8,0.4-1.2c0.1-0.4,0.2-0.8,0.2-1.3
			c0.1-0.4,0.2-0.8,0.2-1.3c0-0.4,0.1-0.9,0.1-1.3c0.2-1.7,0.2-3.4,0.2-5c0-1.6-0.1-3.2-0.2-4.7c-0.1-1.5-0.2-2.8-0.4-4
			c-0.1-1.2-0.3-2.3-0.4-3.1C402.6,151.9,402.4,150.8,402.4,150.8z"/>
	</g>
	<g class="st3">
		<path d="M339.7,177.6c0,0,0.3,0.7,1,2c0.3,0.6,0.7,1.4,1.1,2.3c0.4,0.9,0.9,1.8,1.4,2.8c1.1,2,2.4,4.3,4,6.4
			c0.4,0.5,0.8,1.1,1.3,1.5l0.7,0.7c0.2,0.2,0.5,0.4,0.7,0.6c0.2,0.2,0.5,0.4,0.7,0.6c0.3,0.2,0.5,0.3,0.8,0.5
			c0.5,0.4,1,0.6,1.6,0.9c0.7,0.4,1.5,0.8,2.2,1.2c0.8,0.6,1.7,1.2,2.4,1.8c0.6,0.6,1.3,1.2,1.8,2c0.5,0.7,1.1,1.3,1.5,2.1
			c0.4,0.7,0.9,1.4,1.2,2.1c0.4,0.7,0.7,1.4,0.9,2.1c0.5,1.4,0.9,2.7,1.2,3.9c0.3,1.2,0.5,2.4,0.6,3.4c0.1,1,0.1,1.9,0.1,2.6
			c0,0.7,0,1.3-0.1,1.7c0,0.4-0.1,0.6-0.1,0.6s-0.4-0.7-1.1-2c-0.3-0.6-0.8-1.4-1.2-2.2c-0.2-0.4-0.5-0.9-0.8-1.3
			c-0.3-0.5-0.5-0.9-0.9-1.4c-0.3-0.5-0.6-1-1-1.5c-0.3-0.5-0.7-1-1-1.5c-0.2-0.3-0.4-0.5-0.5-0.8c-0.2-0.3-0.4-0.5-0.6-0.8
			c-0.2-0.3-0.4-0.5-0.6-0.8c-0.2-0.2-0.4-0.5-0.7-0.7c-0.9-1-1.8-1.9-2.8-2.7c-0.5-0.4-0.9-0.6-1.4-1c-0.7-0.3-1.3-0.7-2-1
			c-0.9-0.5-1.8-0.9-2.5-1.5c-0.4-0.3-0.8-0.6-1.1-0.9c-0.4-0.3-0.7-0.7-1-1c-0.3-0.3-0.7-0.7-0.9-1c-0.3-0.4-0.5-0.7-0.8-1.1
			c-0.5-0.7-0.9-1.4-1.3-2.2c-0.8-1.5-1.4-2.9-1.8-4.3c-0.4-1.4-0.7-2.7-0.9-4c-0.4-2.5-0.4-4.5-0.3-6c0-0.7,0.1-1.3,0.2-1.7
			C339.6,177.8,339.7,177.6,339.7,177.6z"/>
	</g>
	<g class="st3">
		<path d="M475.8,173.8c0,0,0,0.3,0,0.7c0,0.5,0,1.2-0.2,2.1c-0.2,1.8-0.6,4.3-1.6,7.2c-0.9,2.9-2.4,6.3-4.8,9.6
			c-1.2,1.6-2.6,3.2-4.4,4.6c-1.8,1.4-3.8,2.5-6.1,3.2l-0.4,0.1l-0.1,0c-0.2,0.1,0.3-0.1,0.2-0.1l0,0l-0.1,0l-0.2,0.1l-0.7,0.2
			l-1.4,0.5c-0.6,0.4-1.3,0.6-2,1c-1.4,0.9-2.8,1.8-4,3c-0.3,0.3-0.6,0.6-0.9,0.8c-0.3,0.3-0.6,0.6-0.9,0.9
			c-0.3,0.3-0.6,0.6-0.9,0.9c-0.3,0.3-0.5,0.6-0.8,0.9c-0.5,0.6-1,1.2-1.5,1.8c-0.5,0.6-0.9,1.2-1.4,1.8c-0.5,0.6-0.8,1.1-1.2,1.7
			c-0.4,0.5-0.7,1.1-1.1,1.5c-0.7,1-1.3,1.8-1.7,2.6c-1,1.5-1.5,2.3-1.5,2.3s0-0.3,0.1-0.7c0.1-0.5,0.1-1.2,0.3-2
			c0.2-0.9,0.4-1.9,0.7-3.1c0.3-1.2,0.8-2.5,1.3-4c0.3-0.7,0.6-1.5,1-2.2c0.4-0.8,0.8-1.5,1.2-2.3c0.2-0.4,0.5-0.8,0.7-1.2
			c0.3-0.4,0.5-0.8,0.8-1.2c0.3-0.4,0.5-0.8,0.8-1.2c0.3-0.4,0.6-0.8,1-1.1c0.6-0.8,1.4-1.5,2.2-2.2c0.7-0.8,1.7-1.4,2.6-2
			c0.4-0.3,1-0.6,1.5-0.9c0.5-0.3,1.1-0.6,1.6-0.8l1.4-0.5l0.7-0.3l0.2-0.1l0.1,0l0.3-0.1l0.3-0.1c1.5-0.4,2.9-1.2,4.3-2.1
			c1.3-0.9,2.6-2.1,3.8-3.3c2.3-2.4,4.2-5.1,5.8-7.5c1.6-2.4,2.8-4.5,3.7-6.1C475.3,174.7,475.8,173.8,475.8,173.8z"/>
	</g>
	<g class="st3">
		<path d="M279.5,197.4c0,0,0.7,0.9,2,2.5c1.3,1.5,3.1,3.7,5.3,6.2c2.3,2.4,5,5.1,8.2,7.4c1.6,1.1,3.3,2.1,5.1,2.9
			c1.8,0.7,3.6,1.2,5.5,1.4l1.7,0.2c0.3,0,0.6,0.1,1,0.1l1,0.2c1.3,0.3,2.5,0.7,3.7,1.1c2.4,0.9,4.5,2.2,6.3,3.6
			c3.7,2.8,6.4,6.1,8.3,9c2,2.9,3.2,5.6,4,7.5c0.4,0.9,0.6,1.7,0.8,2.2c0.2,0.5,0.2,0.8,0.2,0.8s-0.8-0.9-2.1-2.3
			c-1.4-1.5-3.3-3.5-5.7-5.8c-2.4-2.2-5.3-4.7-8.7-6.7c-1.7-1-3.5-1.8-5.3-2.5c-0.9-0.3-1.9-0.5-2.8-0.7l-0.6-0.1
			c-0.2,0-0.4-0.1-0.7-0.1l-1.7-0.1c-2.7-0.2-5.3-1-7.5-2.1c-2.3-1.1-4.3-2.6-6-4.1c-3.4-3.1-5.9-6.5-7.6-9.6
			c-1.8-3.1-2.8-5.8-3.5-7.7c-0.3-1-0.5-1.7-0.7-2.3C279.6,197.7,279.5,197.4,279.5,197.4z"/>
	</g>
	<g class="st3">
		<path d="M460.5,255.1c0,0,0.1-0.3,0.4-0.7c0.2-0.5,0.6-1.2,1.1-2c1-1.7,2.6-4.1,5-6.7c2.3-2.6,5.4-5.4,9.4-7.6
			c2-1.1,4.2-2.1,6.7-2.6c2.5-0.6,5.1-0.7,7.7-0.3l1.6,0.2c0.3,0.1,0.5,0,0.7,0.1l0.6,0l1.4,0c0.5,0,0.9,0,1.4-0.1
			c1.9-0.2,3.8-0.6,5.6-1.2c3.7-1.2,7-2.9,9.8-4.6c2.8-1.7,5.1-3.2,6.7-4.4c0.8-0.6,1.4-1,1.9-1.3c0.4-0.3,0.7-0.5,0.7-0.5
			s-0.1,0.3-0.4,0.7c-0.3,0.5-0.7,1.2-1.2,2c-1.1,1.7-2.9,4-5.4,6.4c-2.5,2.4-5.8,5-10,6.9c-2.1,0.9-4.4,1.7-6.9,2.1
			c-1.2,0.2-2.5,0.3-3.8,0.3l-1-0.1c-0.3,0-0.7,0-1-0.1l-1.7-0.2c-1.8-0.3-3.7-0.2-5.5,0.1c-1.9,0.3-3.7,0.9-5.5,1.7
			c-3.5,1.5-6.7,3.5-9.4,5.3c-2.7,1.9-4.9,3.6-6.4,4.8C461.3,254.4,460.5,255.1,460.5,255.1z"/>
	</g>
	<g class="st3">
		<path d="M212.4,505c0,0,1.5,1.1,4.4,3c2.9,1.9,7.2,4.6,12.8,7.8c5.6,3.2,12.5,6.9,20.6,10.6c8.1,3.7,17.3,7.5,27.6,10.9
			c5.2,1.7,10.5,3.3,16.2,4.7c5.6,1.4,11.5,2.7,17.5,3.8c6.1,1,12.3,1.9,18.7,2.4c6.4,0.6,12.9,0.8,19.5,0.8c3.3,0,6.7-0.1,10-0.3
			l2.5-0.2l0.6,0l0.2,0c0.2,0-0.1,0,0,0l0.3,0l1.3-0.1l1.3-0.1c0.4,0,0.9-0.1,1.3-0.1l2.3-0.3c6.4-0.9,12.8-2.5,19.2-4.5
			c6.4-2,12.7-4.7,18.9-7.8c6.2-3,12.3-6.5,18.4-10.3c6-3.7,12-7.7,17.9-11.9c5.9-4.2,11.7-8.4,17.5-12.8
			c11.6-8.6,23.1-17.4,34.8-25.4c11.7-8,23.7-15.2,36.2-20.4c3.1-1.3,6.2-2.5,9.4-3.4c1.6-0.5,3.2-0.9,4.7-1.4
			c1.6-0.4,3.1-0.8,4.7-1.1c6.3-1.3,12.6-1.9,18.6-1.7c0.7,0,1.5,0.1,2.2,0.1l1.1,0.1l0.7,0l0.5,0.1c0.7,0.1,1.4,0.1,2,0.2l1,0.1
			l1.1,0.1c1.4,0.2,2.9,0.4,4.2,0.7c0.7,0.1,1.3,0.3,2,0.4c0.7,0.2,1.3,0.3,2,0.5c5.2,1.3,10,3.1,14.2,5.2
			c8.5,4.2,14.9,9.3,19.7,13.9c4.7,4.6,7.9,8.8,9.9,11.6c2,2.9,2.8,4.6,2.8,4.6s-1.1-1.5-3.6-3.9c-2.4-2.5-6.1-6-11.3-9.6
			c-2.6-1.9-5.5-3.7-8.9-5.5c-3.3-1.8-7.1-3.5-11.2-4.9c-4.1-1.4-8.5-2.5-13.3-3.1c-0.6-0.1-1.2-0.1-1.8-0.2c-0.6,0-1.2-0.1-1.8-0.1
			c-1.2-0.1-2.4-0.1-3.6-0.2l-0.9,0l-1,0c-0.7,0-1.3,0-2,0l-0.5,0c-0.1,0,0.2,0,0,0l-0.1,0l-0.2,0l-1,0.1c-0.6,0.1-1.3,0.1-1.9,0.2
			c-5.1,0.6-10.3,1.8-15.6,3.7c-5.3,1.8-10.5,4.3-15.8,7.1c-10.5,5.8-21,13.4-31.7,21.8c-10.7,8.4-21.6,17.6-33.1,26.8
			c-5.8,4.6-11.6,9.2-17.7,13.6c-6.1,4.4-12.4,8.8-19,12.9c-6.6,4-13.4,7.8-20.5,11.2c-7.1,3.3-14.5,6.2-22,8.4
			c-1.9,0.6-3.8,1-5.7,1.5c-1.9,0.4-3.8,0.9-5.8,1.2c-3.9,0.8-7.7,1.3-11.7,1.6l-3,0.2c-0.5,0-0.9,0.1-1.4,0.1l-1.3,0.1l-1.3,0
			l-0.9,0l-0.7,0l-2.8,0c-3.7,0-7.4-0.1-11-0.3c-3.6-0.2-7.2-0.5-10.8-0.8c-3.5-0.4-7-0.9-10.5-1.4c-3.4-0.5-6.8-1.2-10.1-1.9
			c-3.3-0.7-6.6-1.5-9.8-2.4c-12.8-3.4-24.4-7.8-34.8-12.7c-5.2-2.4-10-4.9-14.5-7.5c-4.5-2.6-8.7-5.1-12.5-7.7
			c-3.8-2.5-7.4-5-10.5-7.4c-3.2-2.4-6-4.7-8.5-6.8c-5-4.2-8.7-7.8-11.2-10.3C213.5,506.4,212.4,505,212.4,505z"/>
	</g>
	<path id="SVGID_x5F_5_x5F_" class="st8" d="M190.5,315.1c0-132.9,107.8-240.7,240.7-240.7s240.7,107.8,240.7,240.7"/>
	<text class="st3 st9 st10">	<textPath  xlink:href="#SVGID_x5F_5_x5F_" startOffset="0%">
GRACE TRAVEL	</textPath>
</text>
</g>
<g id="Grayscale" class="st0">
	<linearGradient id="SVGID_6_" gradientUnits="userSpaceOnUse" x1="211.4653" y1="285.7399" x2="650.541" y2="285.7399">
		<stop  offset="0" style="stop-color:#FFFFFF"/>
		<stop  offset="1" style="stop-color:#A1A1A1"/>
	</linearGradient>
	<path class="st13" d="M272.2,465.9c-37.6-39.4-60.7-92.8-60.7-151.6c0-121.2,98.3-219.5,219.5-219.5
		c121.2,0,219.5,98.3,219.5,219.5c0,36.1-8.7,70.2-24.2,100.3c0,0-39.7-38.4-100.5-36.4C465,380.3,396,461.7,353.7,473
		C311.4,484.4,272.2,465.9,272.2,465.9z"/>
	<path class="st14" d="M272.2,465.9c-37.6-39.4-60.7-92.8-60.7-151.6c0-121.2,98.3-219.5,219.5-219.5
		c121.2,0,219.5,98.3,219.5,219.5c0,36.1-8.7,70.2-24.2,100.3"/>
	<g class="st3">
		<path class="st15" d="M653.5,448.6c0,0-1.3-1.4-3.8-3.9c-2.5-2.5-6.3-6.1-11.2-10.4c-4.9-4.3-11-9.4-18.2-14.7
			c-1.8-1.3-3.7-2.6-5.6-4c-2-1.3-4-2.7-6.1-4c-2.1-1.3-4.3-2.6-6.5-3.9c-2.3-1.2-4.5-2.6-6.9-3.7c-2.4-1.2-4.8-2.4-7.3-3.5
			c-1.3-0.5-2.5-1.1-3.8-1.6c-1.3-0.6-2.6-1-3.9-1.5c-5.3-1.9-10.8-3.6-16.5-4.6c-5.7-1-11.5-1.7-17.4-1.5c-0.7,0-1.5,0-2.2,0.1
			l-1.1,0c0.7,0,0.1,0,0.2,0l-0.2,0l-0.3,0l-0.6,0.1c-1.7,0.1-3.4,0.3-5.2,0.4l-1.3,0.1l-0.7,0l-0.6,0.1c-0.7,0.1-1.5,0.2-2.2,0.3
			c-1.5,0.2-3,0.4-4.5,0.7c-12.5,2.3-25.2,6.3-37.6,12.2c-3.1,1.4-6.2,3.1-9.3,4.6c-1.5,0.8-3.1,1.7-4.6,2.6
			c-1.5,0.8-3.1,1.7-4.6,2.6c-6.1,3.6-12.2,7.5-18.3,11.5c-12.2,8.1-24.3,16.8-36.9,25.1c-12.6,8.3-25.7,16.3-39.8,22.3
			c-7,3-14.3,5.5-21.7,7.2c-0.9,0.2-1.9,0.4-2.8,0.6c-0.9,0.2-1.8,0.4-2.8,0.5c-1.9,0.3-3.7,0.6-5.6,0.8c-1.8,0.2-3.7,0.3-5.6,0.5
			c-0.9,0.1-1.8,0.1-2.8,0.2c-0.9,0-1.8,0-2.8,0c-0.9,0-1.8,0-2.7,0l-1.4,0l-0.9,0l-0.6-0.1c-1.6-0.1-3.2-0.3-4.7-0.4
			c-1.6-0.1-3.1-0.3-4.7-0.4c-1.6-0.2-3.2-0.4-4.8-0.6c-3.2-0.4-6.4-0.8-9.3-1.4c-1.5-0.3-3-0.5-4.4-0.8c-1.5-0.2-2.9-0.5-4.3-0.8
			c-11.4-2.3-21.6-5.3-30.5-8.3c-8.9-3-16.4-6-22.5-8.8c-6.1-2.7-10.8-5.1-13.9-6.8c-3.1-1.7-4.8-2.7-4.8-2.7s1.9,0.4,5.3,1.1
			c3.5,0.7,8.6,1.7,15,2.9c6.5,1.1,14.3,2.3,23.3,3.4c4.5,0.6,9.3,1.1,14.3,1.5c2.5,0.2,5.1,0.4,7.7,0.6c2.6,0.1,5.3,0.3,8.1,0.4
			c5.5,0.2,11.2,0.4,16.9,0.3c1.4,0,2.9,0,4.3,0c1.5-0.1,3.1-0.1,4.7-0.2s3.2-0.1,4.7-0.2l0.6,0c0.3,0-0.2,0-0.1,0l0.1,0l0.3,0
			l1-0.1c0.7-0.1,1.4-0.2,2.1-0.2c0.7-0.1,1.4-0.2,2.1-0.2c0.7-0.1,1.4-0.3,2.1-0.4c1.4-0.3,2.8-0.5,4.2-0.8
			c1.4-0.4,2.8-0.7,4.3-1.1c0.7-0.2,1.4-0.4,2.1-0.6c0.7-0.2,1.4-0.5,2.1-0.7c5.7-2,11.4-4.3,17.2-7.4c11.5-6,23-13.8,34.8-22.3
			c11.8-8.4,23.9-17.5,36.8-26.1c6.5-4.3,13.1-8.5,20-12.3c3.4-2,7-3.8,10.5-5.6c3.6-1.7,7.1-3.5,10.8-5c14.6-6.3,30.2-10.5,45.6-12
			c2-0.2,4-0.3,6-0.4c1-0.1,2-0.1,3-0.2l0.7,0l0.7,0l1.3,0c1.7,0,3.5,0,5.2,0l0.6,0l0.3,0l0.7,0l1.5,0.1c1,0.1,1.9,0.1,2.9,0.2
			c7.6,0.7,15,2.1,21.8,4.3c13.6,4.4,25.3,10.9,34.9,18c4.8,3.5,9.2,7.1,13.1,10.8c3.9,3.6,7.5,7.2,10.7,10.8
			c6.4,7,11.3,13.6,15.1,19.1c3.8,5.5,6.4,10.1,8.2,13.2C652.7,446.9,653.5,448.6,653.5,448.6z"/>
	</g>
	<g class="st3">
		<path class="st16" d="M624.2,450c0,0-1.3-1.5-4-4c-2.6-2.5-6.7-6.1-12.2-9.9c-2.8-1.9-5.9-3.9-9.5-5.8c-3.5-1.9-7.5-3.7-11.8-5.2
			c-4.3-1.5-9-2.8-14-3.5c-2.5-0.3-5-0.6-7.7-0.6c-0.7,0-1.3,0-2,0c-0.7,0-1.3,0-2,0.1l-1,0l-0.3,0c0.2,0,0,0,0,0l-0.1,0l-0.5,0
			c-0.7,0.1-1.5,0.1-2.2,0.2c-1.4,0.2-2.6,0.3-4,0.6c-0.7,0.1-1.4,0.2-2.1,0.4c-0.7,0.1-1.4,0.3-2.1,0.4c-2.8,0.6-5.6,1.4-8.4,2.3
			c-5.6,1.8-11.3,4.3-17,7.2c-2.9,1.4-5.7,3-8.6,4.6c-2.9,1.7-5.7,3.4-8.6,5.3c-5.8,3.6-11.6,7.6-17.5,11.8
			c-5.9,4.1-11.9,8.5-18,12.9c-6.1,4.4-12.4,8.9-18.8,13.3c-12.8,8.8-26.4,17.5-40.9,24.9c-7.3,3.7-14.8,7.1-22.5,9.9
			c-7.7,2.8-15.6,5.3-23.7,6.9c-8,1.7-16.2,2.8-24.2,3.3c-8,0.4-16.2,0.1-24-0.8c-7.8-1-15.3-2.6-22.5-4.6c-7.2-2-13.9-4.5-20.4-7.1
			c-12.9-5.3-24.4-11.6-34.6-17.8c-10.2-6.3-19.1-12.7-26.7-18.6c-7.6-6-13.9-11.5-19-16.2c-5.1-4.7-8.9-8.6-11.4-11.2
			c-1.3-1.3-2.2-2.4-2.9-3.1c-0.6-0.7-1-1.1-1-1.1s0.4,0.3,1.2,0.8c0.8,0.5,2,1.3,3.5,2.4c3,2.1,7.6,5,13.4,8.6
			c5.8,3.6,12.9,7.9,21.1,12.5c4.1,2.3,8.5,4.7,13.2,7.1c4.7,2.5,9.6,4.9,14.8,7.3c10.4,4.9,21.9,9.6,34.2,13.5
			c6.1,2,12.5,3.7,19.1,5.1c6.5,1.4,13.2,2.4,20,2.9c6.8,0.6,13.6,0.5,20.6-0.2c7-0.6,14-1.7,21-3.4c3.5-0.8,7-1.8,10.4-2.8
			c3.5-1.1,6.9-2.2,10.4-3.6c3.4-1.3,6.8-2.7,10.2-4.2c3.4-1.5,6.8-3.1,10.1-4.7c13.4-6.7,26.4-14.6,39.2-22.8
			c6.4-4.1,12.8-8.2,19.1-12.3c6.4-4.1,12.7-8.1,19-12c6.4-3.9,12.8-7.6,19.2-11c6.5-3.4,13-6.4,19.5-9c6.6-2.5,13.2-4.6,19.8-5.9
			c3.3-0.7,6.6-1.2,9.8-1.5c0.8-0.1,1.6-0.1,2.4-0.2c0.8,0,1.6-0.1,2.4-0.1c1.6-0.1,3.3-0.1,4.8,0c0.7,0,1.5,0.1,2.2,0.1l0.5,0
			l0.1,0c0.1,0,0,0,0.2,0l0.3,0l1.2,0.1c0.8,0.1,1.5,0.1,2.3,0.2c0.8,0.1,1.5,0.2,2.2,0.3c3,0.4,5.8,1,8.6,1.7
			c5.5,1.4,10.5,3.4,14.9,5.6c8.9,4.5,15.7,9.8,20.8,14.6c5.1,4.8,8.5,9,10.8,11.9C623.2,448.3,624.2,450,624.2,450z"/>
	</g>
	<path class="st17" d="M364,329.7c2.7,1.2,4.2,3.1,5,5c26.5-11.8,54.1-23.8,79.7-34.3c-16.3-2.6-30.8-5-43.6-7.1
		C361.5,286,337.5,282,323,282c-6.1,0-10.6,0.7-14,2.3c-8.7,4-14.4,7.2-14.6,7.3l-8.3,4.6l8.7,3.7
		C295.3,300.2,351.5,324.2,364,329.7z"/>
	<path class="st17" d="M590.4,292.2c-2.2-9.3-12.6-10.9-37.9-14.6c-0.7-0.1-1.5-0.2-2.4-0.2c-26.2,0-144,51.8-204.2,79.1
		c-2.7-1.2-5.4-2.3-7.9-3.4c-24.1-10.2-37.3-15.9-47.9-15.9c-3.2,0-6.1,0.5-8.9,1.6l-0.3,0.1l-14,7.5l51.1,39c0,0,23.1-0.6,27.6-0.7
		c14.7-0.5,51.9-1.1,100.5-19.3c23.8-8.9,36-13.6,78.8-30.4C583.3,312.1,592.8,302.6,590.4,292.2z"/>
	<g class="st3">
		<path class="st18" d="M460.5,279c0,0-0.3-0.5-1-1.5c-0.6-1-1.6-2.4-2.9-4.2c-1.3-1.8-2.9-3.9-4.7-6.3c-1.9-2.4-4.1-4.9-6.5-7.6
			c-5-5.4-11.1-11.3-18.5-16.2c-1.9-1.2-3.8-2.4-5.8-3.4c-1-0.5-2-1.1-3-1.5l-1.5-0.7c-0.5-0.2-1.1-0.4-1.6-0.6
			c-0.5-0.2-1.1-0.4-1.6-0.6l-1.6-0.5c-1.1-0.4-2.2-0.7-3.3-1c-1.1-0.4-2.2-0.5-3.3-0.8l-0.7-0.2l-0.9-0.1l-1.9-0.3l-0.9-0.2
			l-0.8-0.1l-1.7-0.2c-1.1-0.1-2.3-0.1-3.4-0.2c-2.3-0.1-4.6,0-6.9,0.2c-2.3,0.2-4.5,0.5-6.8,0.9c-1.1,0.2-2.2,0.5-3.3,0.7
			c-1.1,0.3-2.2,0.6-3.2,0.8c-8.5,2.4-16.2,6.1-22.5,9.8c-3.2,1.8-6,3.7-8.5,5.4c-2.5,1.7-4.6,3.3-6.3,4.6c-1.7,1.3-3.1,2.4-4,3.2
			c-0.9,0.8-1.4,1.2-1.4,1.2s0.3-0.5,1-1.5c0.7-1,1.7-2.4,3.1-4.1c1.4-1.7,3.2-3.8,5.4-6c2.2-2.2,4.7-4.6,7.7-7
			c6-4.8,13.7-9.8,23-13.1c1.2-0.4,2.3-0.8,3.5-1.2c1.2-0.3,2.4-0.7,3.7-1c2.5-0.6,5-1.1,7.7-1.4c2.6-0.3,5.3-0.5,7.9-0.4
			c1.3,0.1,2.6,0,4,0.2l2.1,0.2l1,0.1l0.9,0.1l1.8,0.3l0.9,0.2l0.1,0l0.2,0l0.1,0l0.2,0.1l0.5,0.1c1.3,0.3,2.6,0.6,3.9,1
			c1.3,0.4,2.6,0.7,3.8,1.2l1.9,0.7c0.6,0.2,1.2,0.5,1.8,0.8c0.6,0.3,1.2,0.5,1.8,0.8l1.7,0.9c1.2,0.6,2.3,1.3,3.4,1.9
			c2.2,1.3,4.3,2.8,6.2,4.2c3.9,3,7.3,6.3,10.3,9.6c3,3.3,5.5,6.7,7.7,9.8c2.2,3.2,3.9,6.2,5.3,9c1.5,2.7,2.5,5.2,3.4,7.2
			c0.9,2,1.4,3.7,1.8,4.8C460.3,278.4,460.5,279,460.5,279z"/>
	</g>
	<g class="st3">
		<path class="st18" d="M402.4,150.8c0,0,0.2,0.2,0.4,0.6c0.3,0.4,0.7,1,1.1,1.8c0.5,0.8,1,1.7,1.5,2.9c0.5,1.1,1.1,2.5,1.6,3.9
			c0.5,1.5,1,3.1,1.3,4.9c0.2,0.9,0.4,1.8,0.4,2.8c0.1,1,0.2,2,0.2,3c0,0.5,0,1,0,1.6c0,0.5-0.1,1.1-0.1,1.6
			c-0.1,0.5-0.1,1.1-0.2,1.6c-0.1,0.5-0.2,1.1-0.4,1.6c-0.5,2.2-1.4,4.4-2.6,6.4c-0.5,0.8-1,1.6-1.4,2.5c-0.3,0.8-0.6,1.4-0.9,2.2
			c-0.5,1.6-1,3.3-1.3,5c-0.2,0.8-0.3,1.7-0.4,2.5c0,0.4-0.1,0.8-0.1,1.2c0,0.4,0,0.8-0.1,1.2c0,0.4-0.1,0.8-0.1,1.2
			c0,0.4,0,0.8,0,1.2c0,0.8,0,1.5,0,2.3c0,0.7,0,1.4,0,2.1c0,0.7,0,1.3,0.1,1.9c0.1,1.2,0.1,2.3,0.2,3.2c0.1,1.8,0.2,2.8,0.2,2.8
			s-0.2-0.2-0.4-0.6c-0.2-0.4-0.6-1-1-1.8c-0.4-0.8-0.9-1.8-1.4-3c-0.2-0.6-0.5-1.2-0.7-1.9c-0.2-0.7-0.5-1.4-0.7-2.1
			c-0.2-0.8-0.4-1.5-0.6-2.4c-0.2-0.8-0.3-1.7-0.4-2.6c-0.1-0.9-0.2-1.8-0.3-2.8c-0.1-1,0-2,0-3c0.1-2,0.4-4.2,1.1-6.3
			c0.3-1.1,0.8-2.3,1.3-3.4c0.5-0.9,1-1.8,1.5-2.7c0.9-1.4,1.6-2.9,2-4.6c0.1-0.4,0.2-0.8,0.4-1.2c0.1-0.4,0.2-0.8,0.2-1.3
			c0.1-0.4,0.2-0.8,0.2-1.3c0-0.4,0.1-0.9,0.1-1.3c0.2-1.7,0.2-3.4,0.2-5c0-1.6-0.1-3.2-0.2-4.7c-0.1-1.5-0.2-2.8-0.4-4
			c-0.1-1.2-0.3-2.3-0.4-3.1C402.6,151.9,402.4,150.8,402.4,150.8z"/>
	</g>
	<g class="st3">
		<path class="st18" d="M339.7,177.6c0,0,0.3,0.7,1,2c0.3,0.6,0.7,1.4,1.1,2.3c0.4,0.9,0.9,1.8,1.4,2.8c1.1,2,2.4,4.3,4,6.4
			c0.4,0.5,0.8,1.1,1.3,1.5l0.7,0.7c0.2,0.2,0.5,0.4,0.7,0.6c0.2,0.2,0.5,0.4,0.7,0.6c0.3,0.2,0.5,0.3,0.8,0.5
			c0.5,0.4,1,0.6,1.6,0.9c0.7,0.4,1.5,0.8,2.2,1.2c0.8,0.6,1.7,1.2,2.4,1.8c0.6,0.6,1.3,1.2,1.8,2c0.5,0.7,1.1,1.3,1.5,2.1
			c0.4,0.7,0.9,1.4,1.2,2.1c0.4,0.7,0.7,1.4,0.9,2.1c0.5,1.4,0.9,2.7,1.2,3.9c0.3,1.2,0.5,2.4,0.6,3.4c0.1,1,0.1,1.9,0.1,2.6
			c0,0.7,0,1.3-0.1,1.7c0,0.4-0.1,0.6-0.1,0.6s-0.4-0.7-1.1-2c-0.3-0.6-0.8-1.4-1.2-2.2c-0.2-0.4-0.5-0.9-0.8-1.3
			c-0.3-0.5-0.5-0.9-0.9-1.4c-0.3-0.5-0.6-1-1-1.5c-0.3-0.5-0.7-1-1-1.5c-0.2-0.3-0.4-0.5-0.5-0.8c-0.2-0.3-0.4-0.5-0.6-0.8
			c-0.2-0.3-0.4-0.5-0.6-0.8c-0.2-0.2-0.4-0.5-0.7-0.7c-0.9-1-1.8-1.9-2.8-2.7c-0.5-0.4-0.9-0.6-1.4-1c-0.7-0.3-1.3-0.7-2-1
			c-0.9-0.5-1.8-0.9-2.5-1.5c-0.4-0.3-0.8-0.6-1.1-0.9c-0.4-0.3-0.7-0.7-1-1c-0.3-0.3-0.7-0.7-0.9-1c-0.3-0.4-0.5-0.7-0.8-1.1
			c-0.5-0.7-0.9-1.4-1.3-2.2c-0.8-1.5-1.4-2.9-1.8-4.3c-0.4-1.4-0.7-2.7-0.9-4c-0.4-2.5-0.4-4.5-0.3-6c0-0.7,0.1-1.3,0.2-1.7
			C339.6,177.8,339.7,177.6,339.7,177.6z"/>
	</g>
	<g class="st3">
		<path class="st18" d="M475.8,173.8c0,0,0,0.3,0,0.7c0,0.5,0,1.2-0.2,2.1c-0.2,1.8-0.6,4.3-1.6,7.2c-0.9,2.9-2.4,6.3-4.8,9.6
			c-1.2,1.6-2.6,3.2-4.4,4.6c-1.8,1.4-3.8,2.5-6.1,3.2l-0.4,0.1l-0.1,0c-0.2,0.1,0.3-0.1,0.2-0.1l0,0l-0.1,0l-0.2,0.1l-0.7,0.2
			l-1.4,0.5c-0.6,0.4-1.3,0.6-2,1c-1.4,0.9-2.8,1.8-4,3c-0.3,0.3-0.6,0.6-0.9,0.8c-0.3,0.3-0.6,0.6-0.9,0.9
			c-0.3,0.3-0.6,0.6-0.9,0.9c-0.3,0.3-0.5,0.6-0.8,0.9c-0.5,0.6-1,1.2-1.5,1.8c-0.5,0.6-0.9,1.2-1.4,1.8c-0.5,0.6-0.8,1.1-1.2,1.7
			c-0.4,0.5-0.7,1.1-1.1,1.5c-0.7,1-1.3,1.8-1.7,2.6c-1,1.5-1.5,2.3-1.5,2.3s0-0.3,0.1-0.7c0.1-0.5,0.1-1.2,0.3-2
			c0.2-0.9,0.4-1.9,0.7-3.1c0.3-1.2,0.8-2.5,1.3-4c0.3-0.7,0.6-1.5,1-2.2c0.4-0.8,0.8-1.5,1.2-2.3c0.2-0.4,0.5-0.8,0.7-1.2
			c0.3-0.4,0.5-0.8,0.8-1.2c0.3-0.4,0.5-0.8,0.8-1.2c0.3-0.4,0.6-0.8,1-1.1c0.6-0.8,1.4-1.5,2.2-2.2c0.7-0.8,1.7-1.4,2.6-2
			c0.4-0.3,1-0.6,1.5-0.9c0.5-0.3,1.1-0.6,1.6-0.8l1.4-0.5l0.7-0.3l0.2-0.1l0.1,0l0.3-0.1l0.3-0.1c1.5-0.4,2.9-1.2,4.3-2.1
			c1.3-0.9,2.6-2.1,3.8-3.3c2.3-2.4,4.2-5.1,5.8-7.5c1.6-2.4,2.8-4.5,3.7-6.1C475.3,174.7,475.8,173.8,475.8,173.8z"/>
	</g>
	<g class="st3">
		<path class="st18" d="M279.5,197.4c0,0,0.7,0.9,2,2.5c1.3,1.5,3.1,3.7,5.3,6.2c2.3,2.4,5,5.1,8.2,7.4c1.6,1.1,3.3,2.1,5.1,2.9
			c1.8,0.7,3.6,1.2,5.5,1.4l1.7,0.2c0.3,0,0.6,0.1,1,0.1l1,0.2c1.3,0.3,2.5,0.7,3.7,1.1c2.4,0.9,4.5,2.2,6.3,3.6
			c3.7,2.8,6.4,6.1,8.3,9c2,2.9,3.2,5.6,4,7.5c0.4,0.9,0.6,1.7,0.8,2.2c0.2,0.5,0.2,0.8,0.2,0.8s-0.8-0.9-2.1-2.3
			c-1.4-1.5-3.3-3.5-5.7-5.8c-2.4-2.2-5.3-4.7-8.7-6.7c-1.7-1-3.5-1.8-5.3-2.5c-0.9-0.3-1.9-0.5-2.8-0.7l-0.6-0.1
			c-0.2,0-0.4-0.1-0.7-0.1l-1.7-0.1c-2.7-0.2-5.3-1-7.5-2.1c-2.3-1.1-4.3-2.6-6-4.1c-3.4-3.1-5.9-6.5-7.6-9.6
			c-1.8-3.1-2.8-5.8-3.5-7.7c-0.3-1-0.5-1.7-0.7-2.3C279.6,197.7,279.5,197.4,279.5,197.4z"/>
	</g>
	<g class="st3">
		<path class="st18" d="M460.5,255.1c0,0,0.1-0.3,0.4-0.7c0.2-0.5,0.6-1.2,1.1-2c1-1.7,2.6-4.1,5-6.7c2.3-2.6,5.4-5.4,9.4-7.6
			c2-1.1,4.2-2.1,6.7-2.6c2.5-0.6,5.1-0.7,7.7-0.3l1.6,0.2c0.3,0.1,0.5,0,0.7,0.1l0.6,0l1.4,0c0.5,0,0.9,0,1.4-0.1
			c1.9-0.2,3.8-0.6,5.6-1.2c3.7-1.2,7-2.9,9.8-4.6c2.8-1.7,5.1-3.2,6.7-4.4c0.8-0.6,1.4-1,1.9-1.3c0.4-0.3,0.7-0.5,0.7-0.5
			s-0.1,0.3-0.4,0.7c-0.3,0.5-0.7,1.2-1.2,2c-1.1,1.7-2.9,4-5.4,6.4c-2.5,2.4-5.8,5-10,6.9c-2.1,0.9-4.4,1.7-6.9,2.1
			c-1.2,0.2-2.5,0.3-3.8,0.3l-1-0.1c-0.3,0-0.7,0-1-0.1l-1.7-0.2c-1.8-0.3-3.7-0.2-5.5,0.1c-1.9,0.3-3.7,0.9-5.5,1.7
			c-3.5,1.5-6.7,3.5-9.4,5.3c-2.7,1.9-4.9,3.6-6.4,4.8C461.3,254.4,460.5,255.1,460.5,255.1z"/>
	</g>
	<g class="st3">
		<path class="st15" d="M212.4,505c0,0,1.5,1.1,4.4,3c2.9,1.9,7.2,4.6,12.8,7.8c5.6,3.2,12.5,6.9,20.6,10.6
			c8.1,3.7,17.3,7.5,27.6,10.9c5.2,1.7,10.5,3.3,16.2,4.7c5.6,1.4,11.5,2.7,17.5,3.8c6.1,1,12.3,1.9,18.7,2.4
			c6.4,0.6,12.9,0.8,19.5,0.8c3.3,0,6.7-0.1,10-0.3l2.5-0.2l0.6,0l0.2,0c0.2,0-0.1,0,0,0l0.3,0l1.3-0.1l1.3-0.1
			c0.4,0,0.9-0.1,1.3-0.1l2.3-0.3c6.4-0.9,12.8-2.5,19.2-4.5c6.4-2,12.7-4.7,18.9-7.8c6.2-3,12.3-6.5,18.4-10.3
			c6-3.7,12-7.7,17.9-11.9c5.9-4.2,11.7-8.4,17.5-12.8c11.6-8.6,23.1-17.4,34.8-25.4c11.7-8,23.7-15.2,36.2-20.4
			c3.1-1.3,6.2-2.5,9.4-3.4c1.6-0.5,3.2-0.9,4.7-1.4c1.6-0.4,3.1-0.8,4.7-1.1c6.3-1.3,12.6-1.9,18.6-1.7c0.7,0,1.5,0.1,2.2,0.1
			l1.1,0.1l0.7,0l0.5,0.1c0.7,0.1,1.4,0.1,2,0.2l1,0.1l1.1,0.1c1.4,0.2,2.9,0.4,4.2,0.7c0.7,0.1,1.3,0.3,2,0.4
			c0.7,0.2,1.3,0.3,2,0.5c5.2,1.3,10,3.1,14.2,5.2c8.5,4.2,14.9,9.3,19.7,13.9c4.7,4.6,7.9,8.8,9.9,11.6c2,2.9,2.8,4.6,2.8,4.6
			s-1.1-1.5-3.6-3.9c-2.4-2.5-6.1-6-11.3-9.6c-2.6-1.9-5.5-3.7-8.9-5.5c-3.3-1.8-7.1-3.5-11.2-4.9c-4.1-1.4-8.5-2.5-13.3-3.1
			c-0.6-0.1-1.2-0.1-1.8-0.2c-0.6,0-1.2-0.1-1.8-0.1c-1.2-0.1-2.4-0.1-3.6-0.2l-0.9,0l-1,0c-0.7,0-1.3,0-2,0l-0.5,0
			c-0.1,0,0.2,0,0,0l-0.1,0l-0.2,0l-1,0.1c-0.6,0.1-1.3,0.1-1.9,0.2c-5.1,0.6-10.3,1.8-15.6,3.7c-5.3,1.8-10.5,4.3-15.8,7.1
			c-10.5,5.8-21,13.4-31.7,21.8c-10.7,8.4-21.6,17.6-33.1,26.8c-5.8,4.6-11.6,9.2-17.7,13.6c-6.1,4.4-12.4,8.8-19,12.9
			c-6.6,4-13.4,7.8-20.5,11.2c-7.1,3.3-14.5,6.2-22,8.4c-1.9,0.6-3.8,1-5.7,1.5c-1.9,0.4-3.8,0.9-5.8,1.2c-3.9,0.8-7.7,1.3-11.7,1.6
			l-3,0.2c-0.5,0-0.9,0.1-1.4,0.1l-1.3,0.1l-1.3,0l-0.9,0l-0.7,0l-2.8,0c-3.7,0-7.4-0.1-11-0.3c-3.6-0.2-7.2-0.5-10.8-0.8
			c-3.5-0.4-7-0.9-10.5-1.4c-3.4-0.5-6.8-1.2-10.1-1.9c-3.3-0.7-6.6-1.5-9.8-2.4c-12.8-3.4-24.4-7.8-34.8-12.7
			c-5.2-2.4-10-4.9-14.5-7.5c-4.5-2.6-8.7-5.1-12.5-7.7c-3.8-2.5-7.4-5-10.5-7.4c-3.2-2.4-6-4.7-8.5-6.8c-5-4.2-8.7-7.8-11.2-10.3
			C213.5,506.4,212.4,505,212.4,505z"/>
	</g>
	<path id="SVGID_x5F_7_x5F_" class="st8" d="M190.5,315.1c0-132.9,107.8-240.7,240.7-240.7s240.7,107.8,240.7,240.7"/>
	<text class="st17 st9 st10">	<textPath  xlink:href="#SVGID_x5F_7_x5F_" startOffset="0%">
GRACE TRAVEL	</textPath>
</text>
</g>
<g id="White" class="st0">
	<path class="st19" d="M272.2,465.9c-37.6-39.4-60.7-92.8-60.7-151.6c0-121.2,98.3-219.5,219.5-219.5
		c121.2,0,219.5,98.3,219.5,219.5c0,36.1-8.7,70.2-24.2,100.3"/>
	<g class="st3">
		<path class="st20" d="M653.5,448.6c0,0-1.3-1.4-3.8-3.9c-2.5-2.5-6.3-6.1-11.2-10.4c-4.9-4.3-11-9.4-18.2-14.7
			c-1.8-1.3-3.7-2.6-5.6-4c-2-1.3-4-2.7-6.1-4c-2.1-1.3-4.3-2.6-6.5-3.9c-2.3-1.2-4.5-2.6-6.9-3.7c-2.4-1.2-4.8-2.4-7.3-3.5
			c-1.3-0.5-2.5-1.1-3.8-1.6c-1.3-0.6-2.6-1-3.9-1.5c-5.3-1.9-10.8-3.6-16.5-4.6c-5.7-1-11.5-1.7-17.4-1.5c-0.7,0-1.5,0-2.2,0.1
			l-1.1,0c0.7,0,0.1,0,0.2,0l-0.2,0l-0.3,0l-0.6,0.1c-1.7,0.1-3.4,0.3-5.2,0.4l-1.3,0.1l-0.7,0l-0.6,0.1c-0.7,0.1-1.5,0.2-2.2,0.3
			c-1.5,0.2-3,0.4-4.5,0.7c-12.5,2.3-25.2,6.3-37.6,12.2c-3.1,1.4-6.2,3.1-9.3,4.6c-1.5,0.8-3.1,1.7-4.6,2.6
			c-1.5,0.8-3.1,1.7-4.6,2.6c-6.1,3.6-12.2,7.5-18.3,11.5c-12.2,8.1-24.3,16.8-36.9,25.1c-12.6,8.3-25.7,16.3-39.8,22.3
			c-7,3-14.3,5.5-21.7,7.2c-0.9,0.2-1.9,0.4-2.8,0.6c-0.9,0.2-1.8,0.4-2.8,0.5c-1.9,0.3-3.7,0.6-5.6,0.8c-1.8,0.2-3.7,0.3-5.6,0.5
			c-0.9,0.1-1.8,0.1-2.8,0.2c-0.9,0-1.8,0-2.8,0c-0.9,0-1.8,0-2.7,0l-1.4,0l-0.9,0l-0.6-0.1c-1.6-0.1-3.2-0.3-4.7-0.4
			c-1.6-0.1-3.1-0.3-4.7-0.4c-1.6-0.2-3.2-0.4-4.8-0.6c-3.2-0.4-6.4-0.8-9.3-1.4c-1.5-0.3-3-0.5-4.4-0.8c-1.5-0.2-2.9-0.5-4.3-0.8
			c-11.4-2.3-21.6-5.3-30.5-8.3c-8.9-3-16.4-6-22.5-8.8c-6.1-2.7-10.8-5.1-13.9-6.8c-3.1-1.7-4.8-2.7-4.8-2.7s1.9,0.4,5.3,1.1
			c3.5,0.7,8.6,1.7,15,2.9c6.5,1.1,14.3,2.3,23.3,3.4c4.5,0.6,9.3,1.1,14.3,1.5c2.5,0.2,5.1,0.4,7.7,0.6c2.6,0.1,5.3,0.3,8.1,0.4
			c5.5,0.2,11.2,0.4,16.9,0.3c1.4,0,2.9,0,4.3,0c1.5-0.1,3.1-0.1,4.7-0.2s3.2-0.1,4.7-0.2l0.6,0c0.3,0-0.2,0-0.1,0l0.1,0l0.3,0
			l1-0.1c0.7-0.1,1.4-0.2,2.1-0.2c0.7-0.1,1.4-0.2,2.1-0.2c0.7-0.1,1.4-0.3,2.1-0.4c1.4-0.3,2.8-0.5,4.2-0.8
			c1.4-0.4,2.8-0.7,4.3-1.1c0.7-0.2,1.4-0.4,2.1-0.6c0.7-0.2,1.4-0.5,2.1-0.7c5.7-2,11.4-4.3,17.2-7.4c11.5-6,23-13.8,34.8-22.3
			c11.8-8.4,23.9-17.5,36.8-26.1c6.5-4.3,13.1-8.5,20-12.3c3.4-2,7-3.8,10.5-5.6c3.6-1.7,7.1-3.5,10.8-5c14.6-6.3,30.2-10.5,45.6-12
			c2-0.2,4-0.3,6-0.4c1-0.1,2-0.1,3-0.2l0.7,0l0.7,0l1.3,0c1.7,0,3.5,0,5.2,0l0.6,0l0.3,0l0.7,0l1.5,0.1c1,0.1,1.9,0.1,2.9,0.2
			c7.6,0.7,15,2.1,21.8,4.3c13.6,4.4,25.3,10.9,34.9,18c4.8,3.5,9.2,7.1,13.1,10.8c3.9,3.6,7.5,7.2,10.7,10.8
			c6.4,7,11.3,13.6,15.1,19.1c3.8,5.5,6.4,10.1,8.2,13.2C652.7,446.9,653.5,448.6,653.5,448.6z"/>
	</g>
	<g class="st3">
		<path class="st20" d="M624.2,450c0,0-1.3-1.5-4-4c-2.6-2.5-6.7-6.1-12.2-9.9c-2.8-1.9-5.9-3.9-9.5-5.8c-3.5-1.9-7.5-3.7-11.8-5.2
			c-4.3-1.5-9-2.8-14-3.5c-2.5-0.3-5-0.6-7.7-0.6c-0.7,0-1.3,0-2,0c-0.7,0-1.3,0-2,0.1l-1,0l-0.3,0c0.2,0,0,0,0,0l-0.1,0l-0.5,0
			c-0.7,0.1-1.5,0.1-2.2,0.2c-1.4,0.2-2.6,0.3-4,0.6c-0.7,0.1-1.4,0.2-2.1,0.4c-0.7,0.1-1.4,0.3-2.1,0.4c-2.8,0.6-5.6,1.4-8.4,2.3
			c-5.6,1.8-11.3,4.3-17,7.2c-2.9,1.4-5.7,3-8.6,4.6c-2.9,1.7-5.7,3.4-8.6,5.3c-5.8,3.6-11.6,7.6-17.5,11.8
			c-5.9,4.1-11.9,8.5-18,12.9c-6.1,4.4-12.4,8.9-18.8,13.3c-12.8,8.8-26.4,17.5-40.9,24.9c-7.3,3.7-14.8,7.1-22.5,9.9
			c-7.7,2.8-15.6,5.3-23.7,6.9c-8,1.7-16.2,2.8-24.2,3.3c-8,0.4-16.2,0.1-24-0.8c-7.8-1-15.3-2.6-22.5-4.6c-7.2-2-13.9-4.5-20.4-7.1
			c-12.9-5.3-24.4-11.6-34.6-17.8c-10.2-6.3-19.1-12.7-26.7-18.6c-7.6-6-13.9-11.5-19-16.2c-5.1-4.7-8.9-8.6-11.4-11.2
			c-1.3-1.3-2.2-2.4-2.9-3.1c-0.6-0.7-1-1.1-1-1.1s0.4,0.3,1.2,0.8c0.8,0.5,2,1.3,3.5,2.4c3,2.1,7.6,5,13.4,8.6
			c5.8,3.6,12.9,7.9,21.1,12.5c4.1,2.3,8.5,4.7,13.2,7.1c4.7,2.5,9.6,4.9,14.8,7.3c10.4,4.9,21.9,9.6,34.2,13.5
			c6.1,2,12.5,3.7,19.1,5.1c6.5,1.4,13.2,2.4,20,2.9c6.8,0.6,13.6,0.5,20.6-0.2c7-0.6,14-1.7,21-3.4c3.5-0.8,7-1.8,10.4-2.8
			c3.5-1.1,6.9-2.2,10.4-3.6c3.4-1.3,6.8-2.7,10.2-4.2c3.4-1.5,6.8-3.1,10.1-4.7c13.4-6.7,26.4-14.6,39.2-22.8
			c6.4-4.1,12.8-8.2,19.1-12.3c6.4-4.1,12.7-8.1,19-12c6.4-3.9,12.8-7.6,19.2-11c6.5-3.4,13-6.4,19.5-9c6.6-2.5,13.2-4.6,19.8-5.9
			c3.3-0.7,6.6-1.2,9.8-1.5c0.8-0.1,1.6-0.1,2.4-0.2c0.8,0,1.6-0.1,2.4-0.1c1.6-0.1,3.3-0.1,4.8,0c0.7,0,1.5,0.1,2.2,0.1l0.5,0
			l0.1,0c0.1,0,0,0,0.2,0l0.3,0l1.2,0.1c0.8,0.1,1.5,0.1,2.3,0.2c0.8,0.1,1.5,0.2,2.2,0.3c3,0.4,5.8,1,8.6,1.7
			c5.5,1.4,10.5,3.4,14.9,5.6c8.9,4.5,15.7,9.8,20.8,14.6c5.1,4.8,8.5,9,10.8,11.9C623.2,448.3,624.2,450,624.2,450z"/>
	</g>
	<path class="st21" d="M364,329.7c2.7,1.2,4.2,3.1,5,5c26.5-11.8,54.1-23.8,79.7-34.3c-16.3-2.6-30.8-5-43.6-7.1
		C361.5,286,337.5,282,323,282c-6.1,0-10.6,0.7-14,2.3c-8.7,4-14.4,7.2-14.6,7.3l-8.3,4.6l8.7,3.7
		C295.3,300.2,351.5,324.2,364,329.7z"/>
	<path class="st21" d="M590.4,292.2c-2.2-9.3-12.6-10.9-37.9-14.6c-0.7-0.1-1.5-0.2-2.4-0.2c-26.2,0-144,51.8-204.2,79.1
		c-2.7-1.2-5.4-2.3-7.9-3.4c-24.1-10.2-37.3-15.9-47.9-15.9c-3.2,0-6.1,0.5-8.9,1.6l-0.3,0.1l-14,7.5l51.1,39c0,0,23.1-0.6,27.6-0.7
		c14.7-0.5,51.9-1.1,100.5-19.3c23.8-8.9,36-13.6,78.8-30.4C583.3,312.1,592.8,302.6,590.4,292.2z"/>
	<g class="st3">
		<path class="st20" d="M460.5,279c0,0-0.3-0.5-1-1.5c-0.6-1-1.6-2.4-2.9-4.2c-1.3-1.8-2.9-3.9-4.7-6.3c-1.9-2.4-4.1-4.9-6.5-7.6
			c-5-5.4-11.1-11.3-18.5-16.2c-1.9-1.2-3.8-2.4-5.8-3.4c-1-0.5-2-1.1-3-1.5l-1.5-0.7c-0.5-0.2-1.1-0.4-1.6-0.6
			c-0.5-0.2-1.1-0.4-1.6-0.6l-1.6-0.5c-1.1-0.4-2.2-0.7-3.3-1c-1.1-0.4-2.2-0.5-3.3-0.8l-0.7-0.2l-0.9-0.1l-1.9-0.3l-0.9-0.2
			l-0.8-0.1l-1.7-0.2c-1.1-0.1-2.3-0.1-3.4-0.2c-2.3-0.1-4.6,0-6.9,0.2c-2.3,0.2-4.5,0.5-6.8,0.9c-1.1,0.2-2.2,0.5-3.3,0.7
			c-1.1,0.3-2.2,0.6-3.2,0.8c-8.5,2.4-16.2,6.1-22.5,9.8c-3.2,1.8-6,3.7-8.5,5.4c-2.5,1.7-4.6,3.3-6.3,4.6c-1.7,1.3-3.1,2.4-4,3.2
			c-0.9,0.8-1.4,1.2-1.4,1.2s0.3-0.5,1-1.5c0.7-1,1.7-2.4,3.1-4.1c1.4-1.7,3.2-3.8,5.4-6c2.2-2.2,4.7-4.6,7.7-7
			c6-4.8,13.7-9.8,23-13.1c1.2-0.4,2.3-0.8,3.5-1.2c1.2-0.3,2.4-0.7,3.7-1c2.5-0.6,5-1.1,7.7-1.4c2.6-0.3,5.3-0.5,7.9-0.4
			c1.3,0.1,2.6,0,4,0.2l2.1,0.2l1,0.1l0.9,0.1l1.8,0.3l0.9,0.2l0.1,0l0.2,0l0.1,0l0.2,0.1l0.5,0.1c1.3,0.3,2.6,0.6,3.9,1
			c1.3,0.4,2.6,0.7,3.8,1.2l1.9,0.7c0.6,0.2,1.2,0.5,1.8,0.8c0.6,0.3,1.2,0.5,1.8,0.8l1.7,0.9c1.2,0.6,2.3,1.3,3.4,1.9
			c2.2,1.3,4.3,2.8,6.2,4.2c3.9,3,7.3,6.3,10.3,9.6c3,3.3,5.5,6.7,7.7,9.8c2.2,3.2,3.9,6.2,5.3,9c1.5,2.7,2.5,5.2,3.4,7.2
			c0.9,2,1.4,3.7,1.8,4.8C460.3,278.4,460.5,279,460.5,279z"/>
	</g>
	<g class="st3">
		<path class="st20" d="M402.4,150.8c0,0,0.2,0.2,0.4,0.6c0.3,0.4,0.7,1,1.1,1.8c0.5,0.8,1,1.7,1.5,2.9c0.5,1.1,1.1,2.5,1.6,3.9
			c0.5,1.5,1,3.1,1.3,4.9c0.2,0.9,0.4,1.8,0.4,2.8c0.1,1,0.2,2,0.2,3c0,0.5,0,1,0,1.6c0,0.5-0.1,1.1-0.1,1.6
			c-0.1,0.5-0.1,1.1-0.2,1.6c-0.1,0.5-0.2,1.1-0.4,1.6c-0.5,2.2-1.4,4.4-2.6,6.4c-0.5,0.8-1,1.6-1.4,2.5c-0.3,0.8-0.6,1.4-0.9,2.2
			c-0.5,1.6-1,3.3-1.3,5c-0.2,0.8-0.3,1.7-0.4,2.5c0,0.4-0.1,0.8-0.1,1.2c0,0.4,0,0.8-0.1,1.2c0,0.4-0.1,0.8-0.1,1.2
			c0,0.4,0,0.8,0,1.2c0,0.8,0,1.5,0,2.3c0,0.7,0,1.4,0,2.1c0,0.7,0,1.3,0.1,1.9c0.1,1.2,0.1,2.3,0.2,3.2c0.1,1.8,0.2,2.8,0.2,2.8
			s-0.2-0.2-0.4-0.6c-0.2-0.4-0.6-1-1-1.8c-0.4-0.8-0.9-1.8-1.4-3c-0.2-0.6-0.5-1.2-0.7-1.9c-0.2-0.7-0.5-1.4-0.7-2.1
			c-0.2-0.8-0.4-1.5-0.6-2.4c-0.2-0.8-0.3-1.7-0.4-2.6c-0.1-0.9-0.2-1.8-0.3-2.8c-0.1-1,0-2,0-3c0.1-2,0.4-4.2,1.1-6.3
			c0.3-1.1,0.8-2.3,1.3-3.4c0.5-0.9,1-1.8,1.5-2.7c0.9-1.4,1.6-2.9,2-4.6c0.1-0.4,0.2-0.8,0.4-1.2c0.1-0.4,0.2-0.8,0.2-1.3
			c0.1-0.4,0.2-0.8,0.2-1.3c0-0.4,0.1-0.9,0.1-1.3c0.2-1.7,0.2-3.4,0.2-5c0-1.6-0.1-3.2-0.2-4.7c-0.1-1.5-0.2-2.8-0.4-4
			c-0.1-1.2-0.3-2.3-0.4-3.1C402.6,151.9,402.4,150.8,402.4,150.8z"/>
	</g>
	<g class="st3">
		<path class="st20" d="M339.7,177.6c0,0,0.3,0.7,1,2c0.3,0.6,0.7,1.4,1.1,2.3c0.4,0.9,0.9,1.8,1.4,2.8c1.1,2,2.4,4.3,4,6.4
			c0.4,0.5,0.8,1.1,1.3,1.5l0.7,0.7c0.2,0.2,0.5,0.4,0.7,0.6c0.2,0.2,0.5,0.4,0.7,0.6c0.3,0.2,0.5,0.3,0.8,0.5
			c0.5,0.4,1,0.6,1.6,0.9c0.7,0.4,1.5,0.8,2.2,1.2c0.8,0.6,1.7,1.2,2.4,1.8c0.6,0.6,1.3,1.2,1.8,2c0.5,0.7,1.1,1.3,1.5,2.1
			c0.4,0.7,0.9,1.4,1.2,2.1c0.4,0.7,0.7,1.4,0.9,2.1c0.5,1.4,0.9,2.7,1.2,3.9c0.3,1.2,0.5,2.4,0.6,3.4c0.1,1,0.1,1.9,0.1,2.6
			c0,0.7,0,1.3-0.1,1.7c0,0.4-0.1,0.6-0.1,0.6s-0.4-0.7-1.1-2c-0.3-0.6-0.8-1.4-1.2-2.2c-0.2-0.4-0.5-0.9-0.8-1.3
			c-0.3-0.5-0.5-0.9-0.9-1.4c-0.3-0.5-0.6-1-1-1.5c-0.3-0.5-0.7-1-1-1.5c-0.2-0.3-0.4-0.5-0.5-0.8c-0.2-0.3-0.4-0.5-0.6-0.8
			c-0.2-0.3-0.4-0.5-0.6-0.8c-0.2-0.2-0.4-0.5-0.7-0.7c-0.9-1-1.8-1.9-2.8-2.7c-0.5-0.4-0.9-0.6-1.4-1c-0.7-0.3-1.3-0.7-2-1
			c-0.9-0.5-1.8-0.9-2.5-1.5c-0.4-0.3-0.8-0.6-1.1-0.9c-0.4-0.3-0.7-0.7-1-1c-0.3-0.3-0.7-0.7-0.9-1c-0.3-0.4-0.5-0.7-0.8-1.1
			c-0.5-0.7-0.9-1.4-1.3-2.2c-0.8-1.5-1.4-2.9-1.8-4.3c-0.4-1.4-0.7-2.7-0.9-4c-0.4-2.5-0.4-4.5-0.3-6c0-0.7,0.1-1.3,0.2-1.7
			C339.6,177.8,339.7,177.6,339.7,177.6z"/>
	</g>
	<g class="st3">
		<path class="st20" d="M475.8,173.8c0,0,0,0.3,0,0.7c0,0.5,0,1.2-0.2,2.1c-0.2,1.8-0.6,4.3-1.6,7.2c-0.9,2.9-2.4,6.3-4.8,9.6
			c-1.2,1.6-2.6,3.2-4.4,4.6c-1.8,1.4-3.8,2.5-6.1,3.2l-0.4,0.1l-0.1,0c-0.2,0.1,0.3-0.1,0.2-0.1l0,0l-0.1,0l-0.2,0.1l-0.7,0.2
			l-1.4,0.5c-0.6,0.4-1.3,0.6-2,1c-1.4,0.9-2.8,1.8-4,3c-0.3,0.3-0.6,0.6-0.9,0.8c-0.3,0.3-0.6,0.6-0.9,0.9
			c-0.3,0.3-0.6,0.6-0.9,0.9c-0.3,0.3-0.5,0.6-0.8,0.9c-0.5,0.6-1,1.2-1.5,1.8c-0.5,0.6-0.9,1.2-1.4,1.8c-0.5,0.6-0.8,1.1-1.2,1.7
			c-0.4,0.5-0.7,1.1-1.1,1.5c-0.7,1-1.3,1.8-1.7,2.6c-1,1.5-1.5,2.3-1.5,2.3s0-0.3,0.1-0.7c0.1-0.5,0.1-1.2,0.3-2
			c0.2-0.9,0.4-1.9,0.7-3.1c0.3-1.2,0.8-2.5,1.3-4c0.3-0.7,0.6-1.5,1-2.2c0.4-0.8,0.8-1.5,1.2-2.3c0.2-0.4,0.5-0.8,0.7-1.2
			c0.3-0.4,0.5-0.8,0.8-1.2c0.3-0.4,0.5-0.8,0.8-1.2c0.3-0.4,0.6-0.8,1-1.1c0.6-0.8,1.4-1.5,2.2-2.2c0.7-0.8,1.7-1.4,2.6-2
			c0.4-0.3,1-0.6,1.5-0.9c0.5-0.3,1.1-0.6,1.6-0.8l1.4-0.5l0.7-0.3l0.2-0.1l0.1,0l0.3-0.1l0.3-0.1c1.5-0.4,2.9-1.2,4.3-2.1
			c1.3-0.9,2.6-2.1,3.8-3.3c2.3-2.4,4.2-5.1,5.8-7.5c1.6-2.4,2.8-4.5,3.7-6.1C475.3,174.7,475.8,173.8,475.8,173.8z"/>
	</g>
	<g class="st3">
		<path class="st20" d="M279.5,197.4c0,0,0.7,0.9,2,2.5c1.3,1.5,3.1,3.7,5.3,6.2c2.3,2.4,5,5.1,8.2,7.4c1.6,1.1,3.3,2.1,5.1,2.9
			c1.8,0.7,3.6,1.2,5.5,1.4l1.7,0.2c0.3,0,0.6,0.1,1,0.1l1,0.2c1.3,0.3,2.5,0.7,3.7,1.1c2.4,0.9,4.5,2.2,6.3,3.6
			c3.7,2.8,6.4,6.1,8.3,9c2,2.9,3.2,5.6,4,7.5c0.4,0.9,0.6,1.7,0.8,2.2c0.2,0.5,0.2,0.8,0.2,0.8s-0.8-0.9-2.1-2.3
			c-1.4-1.5-3.3-3.5-5.7-5.8c-2.4-2.2-5.3-4.7-8.7-6.7c-1.7-1-3.5-1.8-5.3-2.5c-0.9-0.3-1.9-0.5-2.8-0.7l-0.6-0.1
			c-0.2,0-0.4-0.1-0.7-0.1l-1.7-0.1c-2.7-0.2-5.3-1-7.5-2.1c-2.3-1.1-4.3-2.6-6-4.1c-3.4-3.1-5.9-6.5-7.6-9.6
			c-1.8-3.1-2.8-5.8-3.5-7.7c-0.3-1-0.5-1.7-0.7-2.3C279.6,197.7,279.5,197.4,279.5,197.4z"/>
	</g>
	<g class="st3">
		<path class="st20" d="M460.5,255.1c0,0,0.1-0.3,0.4-0.7c0.2-0.5,0.6-1.2,1.1-2c1-1.7,2.6-4.1,5-6.7c2.3-2.6,5.4-5.4,9.4-7.6
			c2-1.1,4.2-2.1,6.7-2.6c2.5-0.6,5.1-0.7,7.7-0.3l1.6,0.2c0.3,0.1,0.5,0,0.7,0.1l0.6,0l1.4,0c0.5,0,0.9,0,1.4-0.1
			c1.9-0.2,3.8-0.6,5.6-1.2c3.7-1.2,7-2.9,9.8-4.6c2.8-1.7,5.1-3.2,6.7-4.4c0.8-0.6,1.4-1,1.9-1.3c0.4-0.3,0.7-0.5,0.7-0.5
			s-0.1,0.3-0.4,0.7c-0.3,0.5-0.7,1.2-1.2,2c-1.1,1.7-2.9,4-5.4,6.4c-2.5,2.4-5.8,5-10,6.9c-2.1,0.9-4.4,1.7-6.9,2.1
			c-1.2,0.2-2.5,0.3-3.8,0.3l-1-0.1c-0.3,0-0.7,0-1-0.1l-1.7-0.2c-1.8-0.3-3.7-0.2-5.5,0.1c-1.9,0.3-3.7,0.9-5.5,1.7
			c-3.5,1.5-6.7,3.5-9.4,5.3c-2.7,1.9-4.9,3.6-6.4,4.8C461.3,254.4,460.5,255.1,460.5,255.1z"/>
	</g>
	<g class="st3">
		<path class="st20" d="M212.4,505c0,0,1.5,1.1,4.4,3c2.9,1.9,7.2,4.6,12.8,7.8c5.6,3.2,12.5,6.9,20.6,10.6
			c8.1,3.7,17.3,7.5,27.6,10.9c5.2,1.7,10.5,3.3,16.2,4.7c5.6,1.4,11.5,2.7,17.5,3.8c6.1,1,12.3,1.9,18.7,2.4
			c6.4,0.6,12.9,0.8,19.5,0.8c3.3,0,6.7-0.1,10-0.3l2.5-0.2l0.6,0l0.2,0c0.2,0-0.1,0,0,0l0.3,0l1.3-0.1l1.3-0.1
			c0.4,0,0.9-0.1,1.3-0.1l2.3-0.3c6.4-0.9,12.8-2.5,19.2-4.5c6.4-2,12.7-4.7,18.9-7.8c6.2-3,12.3-6.5,18.4-10.3
			c6-3.7,12-7.7,17.9-11.9c5.9-4.2,11.7-8.4,17.5-12.8c11.6-8.6,23.1-17.4,34.8-25.4c11.7-8,23.7-15.2,36.2-20.4
			c3.1-1.3,6.2-2.5,9.4-3.4c1.6-0.5,3.2-0.9,4.7-1.4c1.6-0.4,3.1-0.8,4.7-1.1c6.3-1.3,12.6-1.9,18.6-1.7c0.7,0,1.5,0.1,2.2,0.1
			l1.1,0.1l0.7,0l0.5,0.1c0.7,0.1,1.4,0.1,2,0.2l1,0.1l1.1,0.1c1.4,0.2,2.9,0.4,4.2,0.7c0.7,0.1,1.3,0.3,2,0.4
			c0.7,0.2,1.3,0.3,2,0.5c5.2,1.3,10,3.1,14.2,5.2c8.5,4.2,14.9,9.3,19.7,13.9c4.7,4.6,7.9,8.8,9.9,11.6c2,2.9,2.8,4.6,2.8,4.6
			s-1.1-1.5-3.6-3.9c-2.4-2.5-6.1-6-11.3-9.6c-2.6-1.9-5.5-3.7-8.9-5.5c-3.3-1.8-7.1-3.5-11.2-4.9c-4.1-1.4-8.5-2.5-13.3-3.1
			c-0.6-0.1-1.2-0.1-1.8-0.2c-0.6,0-1.2-0.1-1.8-0.1c-1.2-0.1-2.4-0.1-3.6-0.2l-0.9,0l-1,0c-0.7,0-1.3,0-2,0l-0.5,0
			c-0.1,0,0.2,0,0,0l-0.1,0l-0.2,0l-1,0.1c-0.6,0.1-1.3,0.1-1.9,0.2c-5.1,0.6-10.3,1.8-15.6,3.7c-5.3,1.8-10.5,4.3-15.8,7.1
			c-10.5,5.8-21,13.4-31.7,21.8c-10.7,8.4-21.6,17.6-33.1,26.8c-5.8,4.6-11.6,9.2-17.7,13.6c-6.1,4.4-12.4,8.8-19,12.9
			c-6.6,4-13.4,7.8-20.5,11.2c-7.1,3.3-14.5,6.2-22,8.4c-1.9,0.6-3.8,1-5.7,1.5c-1.9,0.4-3.8,0.9-5.8,1.2c-3.9,0.8-7.7,1.3-11.7,1.6
			l-3,0.2c-0.5,0-0.9,0.1-1.4,0.1l-1.3,0.1l-1.3,0l-0.9,0l-0.7,0l-2.8,0c-3.7,0-7.4-0.1-11-0.3c-3.6-0.2-7.2-0.5-10.8-0.8
			c-3.5-0.4-7-0.9-10.5-1.4c-3.4-0.5-6.8-1.2-10.1-1.9c-3.3-0.7-6.6-1.5-9.8-2.4c-12.8-3.4-24.4-7.8-34.8-12.7
			c-5.2-2.4-10-4.9-14.5-7.5c-4.5-2.6-8.7-5.1-12.5-7.7c-3.8-2.5-7.4-5-10.5-7.4c-3.2-2.4-6-4.7-8.5-6.8c-5-4.2-8.7-7.8-11.2-10.3
			C213.5,506.4,212.4,505,212.4,505z"/>
	</g>
	<path id="SVGID_x5F_8_x5F_" class="st8" d="M190.5,315.1c0-132.9,107.8-240.7,240.7-240.7s240.7,107.8,240.7,240.7"/>
	<text class="st21 st9 st10">	<textPath  xlink:href="#SVGID_x5F_8_x5F_" startOffset="0%">
GRACE TRAVEL	</textPath>
</text>
</g>
<g id="gradient" class="st0">
	<linearGradient id="SVGID_9_" gradientUnits="userSpaceOnUse" x1="211.4653" y1="285.7399" x2="650.541" y2="285.7399">
		<stop  offset="0" style="stop-color:#FFFFFF"/>
		<stop  offset="1" style="stop-color:#49C0ED"/>
	</linearGradient>
	<path class="st22" d="M272.2,465.9c-37.6-39.4-60.7-92.8-60.7-151.6c0-121.2,98.3-219.5,219.5-219.5
		c121.2,0,219.5,98.3,219.5,219.5c0,36.1-8.7,70.2-24.2,100.3c0,0-39.7-38.4-100.5-36.4C465,380.3,396,461.7,353.7,473
		C311.4,484.4,272.2,465.9,272.2,465.9z"/>
	<g class="st3">
		<linearGradient id="SVGID_10_" gradientUnits="userSpaceOnUse" x1="206.0772" y1="279.4955" x2="655.929" y2="279.4955">
			<stop  offset="0" style="stop-color:#000B7F"/>
			<stop  offset="1" style="stop-color:#2B4E9E"/>
		</linearGradient>
		<path class="st23" d="M276.1,462.2c-36.7-38.5-59.2-90.5-59.2-147.9c0-59.2,24-112.7,62.7-151.4c38.8-38.8,92.3-62.7,151.4-62.7
			c59.2,0,112.7,24,151.4,62.7c38.8,38.8,62.7,92.3,62.7,151.4c0,35.3-8.5,68.5-23.6,97.8l9.6,4.9c15.8-30.8,24.8-65.7,24.8-102.7
			c0-62.1-25.2-118.4-65.9-159c-40.7-40.7-97-65.9-159-65.9c-62.1,0-118.4,25.2-159,65.9c-40.7,40.7-65.9,97-65.9,159
			c0,60.2,23.7,114.9,62.2,155.3L276.1,462.2L276.1,462.2z"/>
	</g>
	<g class="st3">
		<linearGradient id="SVGID_11_" gradientUnits="userSpaceOnUse" x1="178.2524" y1="468.001" x2="624.1885" y2="468.001">
			<stop  offset="0" style="stop-color:#49C0ED"/>
			<stop  offset="1" style="stop-color:#DFF9FF"/>
		</linearGradient>
		<path class="st24" d="M624.2,450c0,0-1.3-1.5-4-4c-2.6-2.5-6.7-6.1-12.2-9.9c-2.8-1.9-5.9-3.9-9.5-5.8c-3.5-1.9-7.5-3.7-11.8-5.2
			c-4.3-1.5-9-2.8-14-3.5c-2.5-0.3-5-0.6-7.7-0.6c-0.7,0-1.3,0-2,0c-0.7,0-1.3,0-2,0.1l-1,0l-0.3,0c0.2,0,0,0,0,0l-0.1,0l-0.5,0
			c-0.7,0.1-1.5,0.1-2.2,0.2c-1.4,0.2-2.6,0.3-4,0.6c-0.7,0.1-1.4,0.2-2.1,0.4c-0.7,0.1-1.4,0.3-2.1,0.4c-2.8,0.6-5.6,1.4-8.4,2.3
			c-5.6,1.8-11.3,4.3-17,7.2c-2.9,1.4-5.7,3-8.6,4.6c-2.9,1.7-5.7,3.4-8.6,5.3c-5.8,3.6-11.6,7.6-17.5,11.8
			c-5.9,4.1-11.9,8.5-18,12.9c-6.1,4.4-12.4,8.9-18.8,13.3c-12.8,8.8-26.4,17.5-40.9,24.9c-7.3,3.7-14.8,7.1-22.5,9.9
			c-7.7,2.8-15.6,5.3-23.7,6.9c-8,1.7-16.2,2.8-24.2,3.3c-8,0.4-16.2,0.1-24-0.8c-7.8-1-15.3-2.6-22.5-4.6c-7.2-2-13.9-4.5-20.4-7.1
			c-12.9-5.3-24.4-11.6-34.6-17.8c-10.2-6.3-19.1-12.7-26.7-18.6c-7.6-6-13.9-11.5-19-16.2c-5.1-4.7-8.9-8.6-11.4-11.2
			c-1.3-1.3-2.2-2.4-2.9-3.1c-0.6-0.7-1-1.1-1-1.1s0.4,0.3,1.2,0.8c0.8,0.5,2,1.3,3.5,2.4c3,2.1,7.6,5,13.4,8.6
			c5.8,3.6,12.9,7.9,21.1,12.5c4.1,2.3,8.5,4.7,13.2,7.1c4.7,2.5,9.6,4.9,14.8,7.3c10.4,4.9,21.9,9.6,34.2,13.5
			c6.1,2,12.5,3.7,19.1,5.1c6.5,1.4,13.2,2.4,20,2.9c6.8,0.6,13.6,0.5,20.6-0.2c7-0.6,14-1.7,21-3.4c3.5-0.8,7-1.8,10.4-2.8
			c3.5-1.1,6.9-2.2,10.4-3.6c3.4-1.3,6.8-2.7,10.2-4.2c3.4-1.5,6.8-3.1,10.1-4.7c13.4-6.7,26.4-14.6,39.2-22.8
			c6.4-4.1,12.8-8.2,19.1-12.3c6.4-4.1,12.7-8.1,19-12c6.4-3.9,12.8-7.6,19.2-11c6.5-3.4,13-6.4,19.5-9c6.6-2.5,13.2-4.6,19.8-5.9
			c3.3-0.7,6.6-1.2,9.8-1.5c0.8-0.1,1.6-0.1,2.4-0.2c0.8,0,1.6-0.1,2.4-0.1c1.6-0.1,3.3-0.1,4.8,0c0.7,0,1.5,0.1,2.2,0.1l0.5,0
			l0.1,0c0.1,0,0,0,0.2,0l0.3,0l1.2,0.1c0.8,0.1,1.5,0.1,2.3,0.2c0.8,0.1,1.5,0.2,2.2,0.3c3,0.4,5.8,1,8.6,1.7
			c5.5,1.4,10.5,3.4,14.9,5.6c8.9,4.5,15.7,9.8,20.8,14.6c5.1,4.8,8.5,9,10.8,11.9C623.2,448.3,624.2,450,624.2,450z"/>
	</g>
	<linearGradient id="SVGID_12_" gradientUnits="userSpaceOnUse" x1="409.0187" y1="340.0282" x2="325.6102" y2="256.6197">
		<stop  offset="0" style="stop-color:#000B7F"/>
		<stop  offset="1" style="stop-color:#2B4E9E"/>
	</linearGradient>
	<path class="st25" d="M364,329.7c2.7,1.2,4.2,3.1,5,5c26.5-11.8,54.1-23.8,79.7-34.3c-16.3-2.6-30.8-5-43.6-7.1
		C361.5,286,337.5,282,323,282c-6.1,0-10.6,0.7-14,2.3c-8.7,4-14.4,7.2-14.6,7.3l-8.3,4.6l8.7,3.7
		C295.3,300.2,351.5,324.2,364,329.7z"/>
	<linearGradient id="SVGID_13_" gradientUnits="userSpaceOnUse" x1="500.4717" y1="389.9286" x2="361.9766" y2="251.4336">
		<stop  offset="0" style="stop-color:#000B7F"/>
		<stop  offset="1" style="stop-color:#2B4E9E"/>
	</linearGradient>
	<path class="st26" d="M590.4,292.2c-2.2-9.3-12.6-10.9-37.9-14.6c-0.7-0.1-1.5-0.2-2.4-0.2c-26.2,0-144,51.8-204.2,79.1
		c-2.7-1.2-5.4-2.3-7.9-3.4c-24.1-10.2-37.3-15.9-47.9-15.9c-3.2,0-6.1,0.5-8.9,1.6l-0.3,0.1l-14,7.5l51.1,39c0,0,23.1-0.6,27.6-0.7
		c14.7-0.5,51.9-1.1,100.5-19.3c23.8-8.9,36-13.6,78.8-30.4C583.3,312.1,592.8,302.6,590.4,292.2z"/>
	<g class="st3">
		<path class="st7" d="M460.5,279c0,0-0.3-0.5-1-1.5c-0.6-1-1.6-2.4-2.9-4.2c-1.3-1.8-2.9-3.9-4.7-6.3c-1.9-2.4-4.1-4.9-6.5-7.6
			c-5-5.4-11.1-11.3-18.5-16.2c-1.9-1.2-3.8-2.4-5.8-3.4c-1-0.5-2-1.1-3-1.5l-1.5-0.7c-0.5-0.2-1.1-0.4-1.6-0.6
			c-0.5-0.2-1.1-0.4-1.6-0.6l-1.6-0.5c-1.1-0.4-2.2-0.7-3.3-1c-1.1-0.4-2.2-0.5-3.3-0.8l-0.7-0.2l-0.9-0.1l-1.9-0.3l-0.9-0.2
			l-0.8-0.1l-1.7-0.2c-1.1-0.1-2.3-0.1-3.4-0.2c-2.3-0.1-4.6,0-6.9,0.2c-2.3,0.2-4.5,0.5-6.8,0.9c-1.1,0.2-2.2,0.5-3.3,0.7
			c-1.1,0.3-2.2,0.6-3.2,0.8c-8.5,2.4-16.2,6.1-22.5,9.8c-3.2,1.8-6,3.7-8.5,5.4c-2.5,1.7-4.6,3.3-6.3,4.6c-1.7,1.3-3.1,2.4-4,3.2
			c-0.9,0.8-1.4,1.2-1.4,1.2s0.3-0.5,1-1.5c0.7-1,1.7-2.4,3.1-4.1c1.4-1.7,3.2-3.8,5.4-6c2.2-2.2,4.7-4.6,7.7-7
			c6-4.8,13.7-9.8,23-13.1c1.2-0.4,2.3-0.8,3.5-1.2c1.2-0.3,2.4-0.7,3.7-1c2.5-0.6,5-1.1,7.7-1.4c2.6-0.3,5.3-0.5,7.9-0.4
			c1.3,0.1,2.6,0,4,0.2l2.1,0.2l1,0.1l0.9,0.1l1.8,0.3l0.9,0.2l0.1,0l0.2,0l0.1,0l0.2,0.1l0.5,0.1c1.3,0.3,2.6,0.6,3.9,1
			c1.3,0.4,2.6,0.7,3.8,1.2l1.9,0.7c0.6,0.2,1.2,0.5,1.8,0.8c0.6,0.3,1.2,0.5,1.8,0.8l1.7,0.9c1.2,0.6,2.3,1.3,3.4,1.9
			c2.2,1.3,4.3,2.8,6.2,4.2c3.9,3,7.3,6.3,10.3,9.6c3,3.3,5.5,6.7,7.7,9.8c2.2,3.2,3.9,6.2,5.3,9c1.5,2.7,2.5,5.2,3.4,7.2
			c0.9,2,1.4,3.7,1.8,4.8C460.3,278.4,460.5,279,460.5,279z"/>
	</g>
	<g class="st3">
		<path class="st7" d="M402.4,150.8c0,0,0.2,0.2,0.4,0.6c0.3,0.4,0.7,1,1.1,1.8c0.5,0.8,1,1.7,1.5,2.9c0.5,1.1,1.1,2.5,1.6,3.9
			c0.5,1.5,1,3.1,1.3,4.9c0.2,0.9,0.4,1.8,0.4,2.8c0.1,1,0.2,2,0.2,3c0,0.5,0,1,0,1.6c0,0.5-0.1,1.1-0.1,1.6
			c-0.1,0.5-0.1,1.1-0.2,1.6c-0.1,0.5-0.2,1.1-0.4,1.6c-0.5,2.2-1.4,4.4-2.6,6.4c-0.5,0.8-1,1.6-1.4,2.5c-0.3,0.8-0.6,1.4-0.9,2.2
			c-0.5,1.6-1,3.3-1.3,5c-0.2,0.8-0.3,1.7-0.4,2.5c0,0.4-0.1,0.8-0.1,1.2c0,0.4,0,0.8-0.1,1.2c0,0.4-0.1,0.8-0.1,1.2
			c0,0.4,0,0.8,0,1.2c0,0.8,0,1.5,0,2.3c0,0.7,0,1.4,0,2.1c0,0.7,0,1.3,0.1,1.9c0.1,1.2,0.1,2.3,0.2,3.2c0.1,1.8,0.2,2.8,0.2,2.8
			s-0.2-0.2-0.4-0.6c-0.2-0.4-0.6-1-1-1.8c-0.4-0.8-0.9-1.8-1.4-3c-0.2-0.6-0.5-1.2-0.7-1.9c-0.2-0.7-0.5-1.4-0.7-2.1
			c-0.2-0.8-0.4-1.5-0.6-2.4c-0.2-0.8-0.3-1.7-0.4-2.6c-0.1-0.9-0.2-1.8-0.3-2.8c-0.1-1,0-2,0-3c0.1-2,0.4-4.2,1.1-6.3
			c0.3-1.1,0.8-2.3,1.3-3.4c0.5-0.9,1-1.8,1.5-2.7c0.9-1.4,1.6-2.9,2-4.6c0.1-0.4,0.2-0.8,0.4-1.2c0.1-0.4,0.2-0.8,0.2-1.3
			c0.1-0.4,0.2-0.8,0.2-1.3c0-0.4,0.1-0.9,0.1-1.3c0.2-1.7,0.2-3.4,0.2-5c0-1.6-0.1-3.2-0.2-4.7c-0.1-1.5-0.2-2.8-0.4-4
			c-0.1-1.2-0.3-2.3-0.4-3.1C402.6,151.9,402.4,150.8,402.4,150.8z"/>
	</g>
	<g class="st3">
		<path class="st7" d="M339.7,177.6c0,0,0.3,0.7,1,2c0.3,0.6,0.7,1.4,1.1,2.3c0.4,0.9,0.9,1.8,1.4,2.8c1.1,2,2.4,4.3,4,6.4
			c0.4,0.5,0.8,1.1,1.3,1.5l0.7,0.7c0.2,0.2,0.5,0.4,0.7,0.6c0.2,0.2,0.5,0.4,0.7,0.6c0.3,0.2,0.5,0.3,0.8,0.5
			c0.5,0.4,1,0.6,1.6,0.9c0.7,0.4,1.5,0.8,2.2,1.2c0.8,0.6,1.7,1.2,2.4,1.8c0.6,0.6,1.3,1.2,1.9,2c0.5,0.7,1.1,1.3,1.5,2.1
			c0.4,0.7,0.9,1.4,1.2,2.1c0.4,0.7,0.7,1.4,0.9,2.1c0.5,1.4,0.9,2.7,1.2,3.9c0.3,1.2,0.5,2.4,0.6,3.4c0.1,1,0.1,1.9,0.1,2.6
			c0,0.7,0,1.3-0.1,1.7c0,0.4-0.1,0.6-0.1,0.6s-0.4-0.7-1.1-2c-0.3-0.6-0.8-1.4-1.2-2.2c-0.2-0.4-0.5-0.9-0.8-1.3
			c-0.3-0.5-0.5-0.9-0.9-1.4c-0.3-0.5-0.6-1-1-1.5c-0.3-0.5-0.7-1-1-1.5c-0.2-0.3-0.4-0.5-0.5-0.8c-0.2-0.3-0.4-0.5-0.6-0.8
			c-0.2-0.3-0.4-0.5-0.6-0.8c-0.2-0.2-0.4-0.5-0.7-0.7c-0.9-1-1.8-1.9-2.8-2.7c-0.5-0.4-0.9-0.6-1.4-1c-0.7-0.3-1.3-0.7-2-1
			c-0.9-0.5-1.8-0.9-2.5-1.5c-0.4-0.3-0.8-0.6-1.1-0.9c-0.4-0.3-0.7-0.7-1-1c-0.3-0.3-0.7-0.7-0.9-1c-0.3-0.4-0.5-0.7-0.8-1.1
			c-0.5-0.7-0.9-1.4-1.3-2.2c-0.8-1.5-1.4-2.9-1.8-4.3c-0.4-1.4-0.7-2.7-0.9-4c-0.4-2.5-0.4-4.5-0.3-6c0-0.7,0.1-1.3,0.2-1.7
			C339.6,177.8,339.7,177.6,339.7,177.6z"/>
	</g>
	<g class="st3">
		<path class="st7" d="M475.8,173.8c0,0,0,0.3,0,0.7c0,0.5,0,1.2-0.2,2.1c-0.2,1.8-0.6,4.3-1.6,7.2c-0.9,2.9-2.4,6.3-4.8,9.6
			c-1.2,1.6-2.6,3.2-4.4,4.6c-1.8,1.4-3.8,2.5-6.1,3.2l-0.4,0.1l-0.1,0c-0.2,0.1,0.3-0.1,0.2-0.1l0,0l-0.1,0l-0.2,0.1l-0.7,0.2
			l-1.4,0.5c-0.6,0.4-1.3,0.6-2,1c-1.4,0.9-2.8,1.8-4,3c-0.3,0.3-0.6,0.6-0.9,0.8c-0.3,0.3-0.6,0.6-0.9,0.9
			c-0.3,0.3-0.6,0.6-0.9,0.9c-0.3,0.3-0.5,0.6-0.8,0.9c-0.5,0.6-1,1.2-1.5,1.8c-0.5,0.6-0.9,1.2-1.4,1.8c-0.5,0.6-0.8,1.1-1.2,1.7
			c-0.4,0.5-0.7,1.1-1.1,1.5c-0.7,1-1.3,1.8-1.7,2.6c-1,1.5-1.5,2.3-1.5,2.3s0-0.3,0.1-0.7c0.1-0.5,0.1-1.2,0.3-2
			c0.2-0.9,0.4-1.9,0.7-3.1c0.3-1.2,0.8-2.5,1.3-4c0.3-0.7,0.6-1.5,1-2.2c0.4-0.8,0.8-1.5,1.2-2.3c0.2-0.4,0.5-0.8,0.7-1.2
			c0.3-0.4,0.5-0.8,0.8-1.2c0.3-0.4,0.5-0.8,0.8-1.2c0.3-0.4,0.6-0.8,1-1.1c0.6-0.8,1.4-1.5,2.2-2.2c0.7-0.8,1.7-1.4,2.6-2
			c0.4-0.3,1-0.6,1.5-0.9c0.5-0.3,1.1-0.6,1.6-0.8l1.4-0.5l0.7-0.3l0.2-0.1l0.1,0l0.3-0.1l0.3-0.1c1.5-0.4,2.9-1.2,4.3-2.1
			c1.3-0.9,2.6-2.1,3.8-3.3c2.3-2.4,4.2-5.1,5.8-7.5c1.6-2.4,2.8-4.5,3.7-6.1C475.3,174.7,475.8,173.8,475.8,173.8z"/>
	</g>
	<g class="st3">
		<path class="st7" d="M279.5,197.4c0,0,0.7,0.9,2,2.5c1.3,1.5,3.1,3.7,5.3,6.2c2.3,2.4,5,5.1,8.2,7.4c1.6,1.1,3.3,2.1,5.1,2.9
			c1.8,0.7,3.6,1.2,5.5,1.4l1.7,0.2c0.3,0,0.6,0.1,1,0.1l1,0.2c1.3,0.3,2.5,0.7,3.7,1.1c2.4,0.9,4.5,2.2,6.3,3.6
			c3.7,2.8,6.4,6.1,8.3,9c2,2.9,3.2,5.6,4,7.5c0.4,0.9,0.6,1.7,0.8,2.2c0.2,0.5,0.2,0.8,0.2,0.8s-0.8-0.9-2.1-2.3
			c-1.4-1.5-3.3-3.5-5.7-5.8c-2.4-2.2-5.3-4.7-8.7-6.7c-1.7-1-3.5-1.9-5.3-2.5c-0.9-0.3-1.9-0.5-2.8-0.7l-0.6-0.1
			c-0.2,0-0.4-0.1-0.7-0.1l-1.7-0.1c-2.7-0.2-5.3-1-7.5-2.1c-2.3-1.1-4.3-2.6-6-4.1c-3.4-3.1-5.9-6.5-7.6-9.6
			c-1.8-3.1-2.8-5.8-3.5-7.7c-0.3-1-0.5-1.7-0.7-2.3C279.6,197.7,279.5,197.4,279.5,197.4z"/>
	</g>
	<g class="st3">
		<path class="st7" d="M460.5,255.1c0,0,0.1-0.3,0.3-0.7c0.2-0.5,0.6-1.2,1.1-2c1-1.7,2.6-4.1,5-6.7c2.3-2.6,5.4-5.4,9.4-7.6
			c2-1.1,4.2-2.1,6.7-2.6c2.5-0.6,5.1-0.7,7.7-0.3l1.6,0.2c0.3,0.1,0.5,0,0.7,0.1l0.6,0l1.4,0c0.5,0,0.9,0,1.4-0.1
			c1.9-0.2,3.8-0.6,5.6-1.2c3.7-1.2,7-2.9,9.8-4.6c2.8-1.7,5.1-3.2,6.7-4.4c0.8-0.6,1.4-1,1.9-1.3c0.4-0.3,0.7-0.5,0.7-0.5
			s-0.1,0.3-0.4,0.7c-0.3,0.5-0.7,1.2-1.2,2c-1.1,1.7-2.9,4-5.4,6.4c-2.5,2.4-5.8,5-10,6.9c-2.1,0.9-4.4,1.7-6.9,2.1
			c-1.2,0.2-2.5,0.3-3.8,0.3l-1-0.1c-0.3,0-0.7,0-1-0.1l-1.7-0.2c-1.8-0.3-3.7-0.2-5.5,0.1c-1.9,0.3-3.7,0.9-5.5,1.7
			c-3.5,1.5-6.7,3.5-9.4,5.3c-2.7,1.9-4.9,3.6-6.4,4.8C461.3,254.4,460.5,255.1,460.5,255.1z"/>
	</g>
	<g class="st3">
		<linearGradient id="SVGID_14_" gradientUnits="userSpaceOnUse" x1="223.1841" y1="425.4507" x2="653.5352" y2="425.4507">
			<stop  offset="0" style="stop-color:#000B7F"/>
			<stop  offset="1" style="stop-color:#2B4E9E"/>
		</linearGradient>
		<path class="st27" d="M653.5,448.6c0,0-1.3-1.4-3.8-3.9c-2.5-2.5-6.3-6.1-11.2-10.4c-4.9-4.3-11-9.4-18.2-14.7
			c-1.8-1.3-3.7-2.6-5.6-4c-2-1.3-4-2.7-6.1-4c-2.1-1.3-4.3-2.6-6.5-3.9c-2.3-1.2-4.5-2.6-6.9-3.7c-2.4-1.2-4.8-2.4-7.3-3.5
			c-1.3-0.5-2.5-1.1-3.8-1.6c-1.3-0.6-2.6-1-3.9-1.5c-5.3-1.9-10.8-3.6-16.5-4.6c-5.7-1-11.5-1.7-17.4-1.6c-0.7,0-1.5,0-2.2,0.1
			l-1.1,0c0.7,0,0.1,0,0.2,0l-0.2,0l-0.3,0l-0.6,0.1c-1.7,0.1-3.4,0.3-5.2,0.4l-1.3,0.1l-0.7,0l-0.6,0.1c-0.7,0.1-1.5,0.2-2.2,0.3
			c-1.5,0.2-3,0.4-4.5,0.7c-12.5,2.3-25.2,6.3-37.6,12.2c-3.1,1.4-6.2,3.1-9.3,4.6c-1.5,0.8-3.1,1.7-4.6,2.6
			c-1.5,0.8-3.1,1.7-4.6,2.6c-6.1,3.6-12.2,7.5-18.3,11.5c-12.2,8.1-24.3,16.8-36.9,25.1c-12.6,8.3-25.7,16.3-39.8,22.3
			c-7,3-14.3,5.5-21.7,7.2c-0.9,0.2-1.9,0.4-2.8,0.6c-0.9,0.2-1.8,0.4-2.8,0.5c-1.9,0.3-3.7,0.6-5.6,0.8c-1.8,0.2-3.7,0.3-5.6,0.5
			c-0.9,0.1-1.8,0.1-2.8,0.2c-0.9,0-1.8,0-2.8,0c-0.9,0-1.8,0-2.7,0l-1.4,0l-0.9,0l-0.6,0c-1.6-0.1-3.2-0.3-4.7-0.4
			c-1.6-0.1-3.1-0.3-4.7-0.4c-1.6-0.2-3.2-0.4-4.8-0.6c-3.2-0.4-6.4-0.8-9.3-1.4c-1.5-0.3-3-0.5-4.4-0.8c-1.5-0.2-2.9-0.5-4.3-0.8
			c-11.4-2.3-21.6-5.3-30.5-8.3c-8.9-3-16.4-6-22.5-8.8c-6.1-2.7-10.8-5.1-13.9-6.8c-3.1-1.7-4.8-2.7-4.8-2.7s1.9,0.4,5.3,1.1
			c3.5,0.7,8.6,1.7,15,2.9c6.5,1.1,14.3,2.3,23.3,3.4c4.5,0.6,9.3,1.1,14.3,1.5c2.5,0.2,5.1,0.4,7.7,0.6c2.6,0.1,5.3,0.3,8.1,0.4
			c5.5,0.2,11.2,0.4,16.9,0.3c1.4,0,2.9,0,4.3,0c1.5-0.1,3.1-0.1,4.7-0.2c1.6-0.1,3.2-0.1,4.7-0.2l0.6,0c0.3,0-0.2,0-0.1,0l0.1,0
			l0.3,0l1-0.1c0.7-0.1,1.4-0.2,2.1-0.2c0.7-0.1,1.4-0.2,2.1-0.2c0.7-0.1,1.4-0.3,2.1-0.4c1.4-0.3,2.8-0.5,4.2-0.8
			c1.4-0.4,2.8-0.7,4.3-1.1c0.7-0.2,1.4-0.4,2.1-0.6c0.7-0.2,1.4-0.5,2.1-0.7c5.7-2,11.4-4.3,17.2-7.4c11.5-6,23-13.8,34.8-22.3
			c11.8-8.4,23.9-17.5,36.8-26.1c6.5-4.3,13.1-8.5,20-12.3c3.4-2,7-3.8,10.5-5.6c3.6-1.7,7.1-3.5,10.8-5c14.6-6.3,30.2-10.5,45.6-12
			c2-0.2,4-0.3,6-0.4c1-0.1,2-0.1,3-0.2l0.7,0l0.7,0l1.3,0c1.7,0,3.5,0,5.2,0l0.6,0l0.3,0l0.7,0l1.5,0.1c1,0.1,1.9,0.1,2.9,0.2
			c7.6,0.7,15,2.1,21.8,4.3c13.6,4.4,25.3,10.9,34.9,18c4.8,3.5,9.2,7.1,13.1,10.8c3.9,3.6,7.5,7.2,10.7,10.8
			c6.4,7,11.3,13.6,15.1,19.1c3.8,5.5,6.4,10.1,8.2,13.2C652.8,446.9,653.5,448.6,653.5,448.6z"/>
		<linearGradient id="SVGID_15_" gradientUnits="userSpaceOnUse" x1="212.3545" y1="507.6814" x2="633.2754" y2="507.6814">
			<stop  offset="0" style="stop-color:#000B7F"/>
			<stop  offset="1" style="stop-color:#2B4E9E"/>
		</linearGradient>
		<path class="st28" d="M212.4,505c0,0,1.5,1.1,4.4,3c2.9,1.9,7.2,4.6,12.8,7.8c5.6,3.2,12.5,6.9,20.6,10.6
			c8.1,3.7,17.3,7.5,27.6,10.9c5.2,1.7,10.5,3.3,16.2,4.7c5.6,1.4,11.5,2.7,17.5,3.8c6.1,1,12.3,1.9,18.7,2.4
			c6.4,0.6,12.9,0.8,19.5,0.8c3.3,0,6.7-0.1,10-0.3l2.5-0.2l0.6,0l0.2,0c0.2,0-0.1,0,0,0l0.3,0l1.3-0.1l1.3-0.1
			c0.4,0,0.9-0.1,1.3-0.1l2.3-0.3c6.4-0.9,12.8-2.5,19.2-4.5c6.4-2,12.7-4.7,18.9-7.8c6.2-3,12.3-6.5,18.4-10.3
			c6-3.7,12-7.7,17.9-11.9c5.9-4.2,11.7-8.4,17.5-12.8c11.6-8.6,23.1-17.4,34.8-25.4c11.7-8,23.7-15.2,36.2-20.4
			c3.1-1.3,6.2-2.5,9.4-3.4c1.6-0.5,3.2-0.9,4.7-1.4c1.6-0.4,3.1-0.8,4.7-1.1c6.3-1.3,12.6-1.9,18.6-1.7c0.7,0,1.5,0.1,2.2,0.1
			l1.1,0.1l0.7,0l0.5,0.1c0.7,0.1,1.4,0.1,2,0.2l1,0.1l1.1,0.1c1.4,0.2,2.9,0.4,4.2,0.7c0.7,0.1,1.3,0.3,2,0.4
			c0.7,0.2,1.3,0.3,2,0.5c5.2,1.3,10,3.1,14.2,5.2c8.5,4.2,14.9,9.3,19.7,13.9c4.7,4.6,7.9,8.8,9.9,11.6c2,2.9,2.8,4.6,2.8,4.6
			s-1.1-1.5-3.6-3.9c-2.4-2.5-6.1-6-11.3-9.6c-2.6-1.9-5.5-3.7-8.9-5.5c-3.3-1.8-7.1-3.5-11.2-4.9c-4.1-1.4-8.5-2.5-13.3-3.1
			c-0.6-0.1-1.2-0.1-1.8-0.2c-0.6,0-1.2-0.1-1.8-0.1c-1.2-0.1-2.4-0.1-3.6-0.2l-0.9,0l-1,0c-0.7,0-1.3,0-2,0l-0.5,0
			c-0.1,0,0.2,0,0,0l-0.1,0l-0.2,0l-1,0.1c-0.6,0.1-1.3,0.1-1.9,0.2c-5.1,0.6-10.3,1.8-15.6,3.7c-5.3,1.8-10.5,4.3-15.8,7.1
			c-10.5,5.8-21,13.4-31.7,21.8c-10.7,8.4-21.6,17.6-33.1,26.8c-5.8,4.6-11.6,9.2-17.8,13.6c-6.1,4.4-12.4,8.8-19,12.9
			c-6.6,4-13.4,7.8-20.5,11.2c-7.1,3.3-14.5,6.2-22,8.4c-1.9,0.6-3.8,1-5.7,1.5c-1.9,0.4-3.8,0.9-5.8,1.2c-3.9,0.8-7.7,1.3-11.7,1.6
			l-3,0.2c-0.5,0-1,0.1-1.4,0.1l-1.3,0.1l-1.3,0l-0.9,0l-0.7,0l-2.8,0c-3.7,0-7.4-0.1-11-0.3c-3.6-0.2-7.2-0.5-10.8-0.8
			c-3.5-0.4-7-0.9-10.5-1.4c-3.4-0.5-6.8-1.2-10.1-1.9c-3.3-0.7-6.6-1.5-9.8-2.4c-12.8-3.4-24.4-7.8-34.8-12.7
			c-5.2-2.4-10-4.9-14.5-7.5c-4.5-2.6-8.7-5.1-12.5-7.7c-3.8-2.5-7.4-5-10.5-7.4c-3.2-2.4-6-4.7-8.5-6.8c-5-4.2-8.7-7.8-11.2-10.3
			C213.5,506.4,212.4,505,212.4,505z"/>
	</g>
	<g class="st3">
		<linearGradient id="SVGID_16_" gradientUnits="userSpaceOnUse" x1="165.1443" y1="197.7841" x2="222.9204" y2="197.7841">
			<stop  offset="0" style="stop-color:#000B7F"/>
			<stop  offset="1" style="stop-color:#2B4E9E"/>
		</linearGradient>
		<path class="st29" d="M222.9,188.7c-0.2,1.2-0.8,3.5-1.7,6.9c-0.9,3.4-2.6,7.7-5.1,12.9c-1.5,3-3.4,5.7-5.8,8.3
			c-2.4,2.5-5.2,4.4-8.3,5.8c-3.1,1.4-6.6,2.1-10.3,2c-3.8,0-7.8-1.1-12-3.1c-3.4-1.7-6.3-3.8-8.6-6.4c-2.3-2.6-3.9-5.5-4.9-8.7
			c-1-3.2-1.3-6.6-0.9-10.2c0.4-3.6,1.5-7.3,3.4-11.2c1.3-2.8,2.7-5.1,4.1-6.9c1.4-1.8,2.6-3.2,3.7-4.3c1.3-1.2,2.5-2.2,3.7-2.9
			l10.2,3.3c-1.5-0.2-3.1-0.1-4.8,0c-1.7,0.2-3.5,0.7-5.2,1.6c-1.7,0.9-3.4,2.2-5.1,3.9c-1.7,1.7-3.2,4-4.6,6.9
			c-1.2,2.4-1.8,4.9-1.8,7.5c-0.1,2.6,0.4,5.1,1.5,7.6c1,2.5,2.6,4.8,4.7,7c2.1,2.2,4.8,4.1,8,5.6c3.1,1.5,6.3,2.4,9.5,2.6
			c3.2,0.2,6.2-0.1,9-0.9c2.8-0.8,5.3-2,7.5-3.7c2.2-1.7,3.8-3.6,4.9-5.9c1.3-2.6,1.9-5,2-7.1c0.1-2.2-0.3-4.5-1.1-6.9l-6.8-3.3
			c-1.2-0.5-2.3-0.7-3.4-0.6c-1,0.1-2,0.5-3.2,1.1c-1.1,0.7-2.1,1.9-3,3.7l-0.8-2.4c0.6-1.2,1.3-2.5,2-3.8c0.8-1.3,1.7-2.5,2.8-3.4
			c1.1-0.9,2.3-1.5,3.8-1.8c1.5-0.3,3.2,0.1,5.2,1.1L222.9,188.7z"/>
		<linearGradient id="SVGID_17_" gradientUnits="userSpaceOnUse" x1="190.0903" y1="153.7508" x2="257.9341" y2="153.7508">
			<stop  offset="0" style="stop-color:#000B7F"/>
			<stop  offset="1" style="stop-color:#2B4E9E"/>
		</linearGradient>
		<path class="st30" d="M257.9,146.6l-3,3.8c-1.7,2.1-3.7,3.3-6,3.5c-2.3,0.2-4.5-0.5-6.6-2.2l-4.1-3.3c-1-0.7-2-1.3-2.9-1.6
			c-0.9-0.4-1.9-0.7-3.1-0.9c-1.2-0.2-2.5-0.2-3.9,0.1c-1.4,0.3-2.9,0.8-4.4,1.7c-1.5,0.9-3,2.3-4.5,4.2c-0.7,0.9-1.2,1.7-1.6,2.6
			l-1.8-1.5c0.8-0.6,1.6-1.3,2.2-2.1c1-1.2,1.8-2.6,2.4-4c0.6-1.5,0.9-3,1-4.5c0-1.5-0.3-3-0.9-4.5c-0.6-1.4-1.7-2.8-3.1-3.9
			c-2.5-2-5.2-2.8-8.2-2.4c-3,0.4-5.8,2.2-8.3,5.4c-0.8,1-1.4,1.9-1.7,2.7c-0.3,0.8-0.6,1.5-0.7,2.1c-0.1,0.7-0.2,1.3-0.2,1.9
			l37.5,30.4l-5.6,6.9l-2.5,0.2l1.1-1.4c0.3-0.4,0.4-0.7,0.5-1c0-0.3,0-0.6-0.1-0.8c-0.1-0.3-0.3-0.5-0.6-0.7l-33.2-26.9
			c-0.1-0.1-0.3-0.2-0.7-0.4c-0.3-0.2-0.7-0.3-1.2-0.4c-0.5-0.1-1,0-1.5,0.2c-0.5,0.2-1.1,0.6-1.6,1.2l-0.3-2.5l5.6-6.9
			c0.5-0.7,0.9-1.3,1.3-2c0.4-0.6,0.8-1.2,1.3-1.8c0.4-0.6,0.9-1.2,1.3-1.8c2.1-2.5,4.1-4.6,6.1-6c2-1.5,4-2.5,5.9-3
			c1.9-0.5,3.6-0.6,5.3-0.2c1.7,0.4,3.2,1.1,4.6,2.2c1,0.8,1.7,1.8,2.3,2.9c0.5,1.1,0.9,2.4,1,3.8c0.1,1.4,0.1,2.9-0.2,4.5
			c-0.2,1.6-0.6,3.1-1.2,4.6c2.4-2,4.6-3.4,6.6-4c2-0.6,3.9-0.9,5.6-0.7c1.7,0.2,3.1,0.6,4.3,1.2c1.2,0.6,2.1,1.2,2.7,1.7l6.9,5.6
			c0.5,0.4,1.1,0.6,1.7,0.8c0.5,0.1,1,0.1,1.6-0.1c0.6-0.1,1.1-0.5,1.7-1.3L257.9,146.6z"/>
		<linearGradient id="SVGID_18_" gradientUnits="userSpaceOnUse" x1="248.1509" y1="112.7427" x2="302.894" y2="112.7427">
			<stop  offset="0" style="stop-color:#000B7F"/>
			<stop  offset="1" style="stop-color:#2B4E9E"/>
		</linearGradient>
		<path class="st31" d="M302.9,109.9l-8.9,7l-40.4-23l6.6,22.3l10.6-8.3l2.6,1.6l-12.3,9.6l5.7,19.1l-2.8,2.2l-2.4-0.3
			c0.5-0.4,0.8-0.8,0.9-1.4c0.1-0.5,0.2-1.1,0.1-1.6c-0.1-0.7-0.2-1.3-0.4-2l-14-47.8l2.5-2l45.9,25.4c0.5,0.3,1.2,0.3,1.8,0.1
			c0.7-0.2,1.3-0.6,1.9-1L302.9,109.9z"/>
		<linearGradient id="SVGID_19_" gradientUnits="userSpaceOnUse" x1="288.5753" y1="74.5187" x2="340.3608" y2="74.5187">
			<stop  offset="0" style="stop-color:#000B7F"/>
			<stop  offset="1" style="stop-color:#2B4E9E"/>
		</linearGradient>
		<path class="st32" d="M338.3,90.1c-0.9,1.2-2.1,2.5-3.7,3.9c-1.6,1.4-3.8,2.8-6.5,4.1c-3.5,1.7-7,2.8-10.4,3.3
			c-3.5,0.5-6.8,0.2-10-0.7c-3.2-0.9-6.2-2.6-8.9-5c-2.8-2.4-5.2-5.7-7.2-9.9c-1.9-3.9-2.9-7.7-3-11.2c-0.1-3.5,0.6-6.8,1.9-9.8
			c1.4-3,3.3-5.7,5.9-8.1c2.5-2.4,5.4-4.4,8.6-5.9c1.3-0.6,2.6-1.2,3.9-1.6c1.3-0.5,2.6-0.8,3.8-1.1c1.2-0.3,2.3-0.4,3.3-0.6
			c1-0.1,1.7-0.1,2.3-0.1c0.3,0.1,0.6,0.1,0.8,0.2c0.2,0,0.4,0.1,0.5,0.1c0.2,0.1,0.4,0.1,0.5,0.1l5.9,8.7c-1.1-1-2.4-2-3.9-2.8
			c-1.5-0.8-3.2-1.4-5-1.8c-1.8-0.4-3.7-0.5-5.7-0.3c-2,0.2-4,0.7-6,1.7c-2.2,1.1-4,2.6-5.6,4.7c-1.6,2.1-2.7,4.4-3.4,7
			c-0.7,2.6-0.9,5.4-0.6,8.5c0.3,3,1.1,6,2.6,8.9c1.5,3.1,3.4,5.8,5.7,8c2.3,2.2,4.7,3.9,7.3,5.1c2.6,1.2,5.3,1.8,8.1,1.8
			c2.8,0,5.5-0.6,8.1-1.9c1.9-0.9,3.5-2,4.7-3.3c1.2-1.3,2.1-2.7,2.8-4.3c0.7-1.6,1.1-3.3,1.3-5.2c0.2-1.9,0.3-3.9,0.2-6l3.8,9.3
			C340,87.3,339.3,88.7,338.3,90.1z"/>
		<linearGradient id="SVGID_20_" gradientUnits="userSpaceOnUse" x1="338.9512" y1="57.1442" x2="390.5723" y2="57.1442">
			<stop  offset="0" style="stop-color:#000B7F"/>
			<stop  offset="1" style="stop-color:#2B4E9E"/>
		</linearGradient>
		<path class="st33" d="M353,86.6l-2.1-1.3l1.7-0.4c0.4-0.1,0.8-0.3,1-0.5c0.2-0.2,0.3-0.5,0.4-0.8c0.1-0.3,0.1-0.6,0-0.9
			l-10.6-41.3c-0.2-0.6-0.5-1.1-0.9-1.6c-0.4-0.4-0.8-0.7-1.4-0.9c-0.6-0.2-1.3-0.3-2.1-0.1l1.3-2.3l34.8-8.9l-4.9,6.8
			c-0.6-0.2-1.2-0.3-1.8-0.4c-0.6-0.1-1.3-0.2-2-0.2c-0.7,0-1.5,0.1-2.3,0.3l0-0.1l-14.2,3.6l11,43.1l17-4.3
			c0.8-0.2,1.6-0.5,2.2-0.8c0.6-0.3,1.2-0.7,1.7-1.1c0.5-0.4,1-0.8,1.4-1.3l7.5,3.5L353,86.6z M375.2,51.5l-2.6,4.3l-13.8,3.5
			l-0.9-3.4L375.2,51.5z"/>
		<linearGradient id="SVGID_21_" gradientUnits="userSpaceOnUse" x1="424.791" y1="48.7189" x2="467.4834" y2="48.7189">
			<stop  offset="0" style="stop-color:#000B7F"/>
			<stop  offset="1" style="stop-color:#2B4E9E"/>
		</linearGradient>
		<path class="st34" d="M447.3,71.5c0,0.4,0,0.6,0.2,0.8c0.1,0.3,0.2,0.5,0.5,0.6c0.2,0.2,0.6,0.3,1,0.3l1.7,1.8l-3.6-0.2l-7.1-0.4
			l-1.8-0.1l-1.6-1.8l1.7,0.1c0.5,0,0.8,0,1.1-0.2c0.3-0.1,0.4-0.3,0.6-0.6c0.2-0.2,0.3-0.5,0.3-0.8l2.3-41.3c0-0.6-0.2-1.1-0.4-1.6
			c-0.2-0.4-0.6-0.8-1.1-1.2c-0.5-0.4-1.3-0.6-2.3-0.7l-6.6-0.4c-1,0-1.9,0.1-2.8,0.5c-0.7,0.3-1.4,0.7-1.9,1.4
			c-0.6,0.7-0.9,1.6-0.9,2.8l-1.6-1.8c0.1-2.2,0.7-3.8,1.6-4.9c1-1.1,2.9-1.6,5.7-1.4l5.4,0.3l30,1.6l-4.4,3.3l-13.3-0.7L447.3,71.5
			z"/>
		<linearGradient id="SVGID_22_" gradientUnits="userSpaceOnUse" x1="472.5205" y1="58.0271" x2="518.2199" y2="58.0271">
			<stop  offset="0" style="stop-color:#000B7F"/>
			<stop  offset="1" style="stop-color:#2B4E9E"/>
		</linearGradient>
		<path class="st35" d="M516.2,88.7l-4.7-1.3c-2.6-0.7-4.5-2.1-5.6-4.1c-1.1-2-1.3-4.3-0.6-6.9l1.4-5.1c0.2-1.2,0.3-2.4,0.3-3.3
			c0-1-0.2-2-0.5-3.2s-0.8-2.4-1.6-3.5c-0.8-1.2-1.9-2.3-3.3-3.3c-1.4-1-3.3-1.8-5.6-2.5c-1.1-0.3-2.1-0.4-3-0.4l0.6-2.3
			c0.9,0.5,1.8,0.9,2.8,1.2c1.5,0.4,3.1,0.6,4.6,0.6c1.6,0,3.1-0.3,4.5-0.9c1.4-0.6,2.7-1.4,3.7-2.6c1.1-1.1,1.9-2.6,2.4-4.4
			c0.8-3.1,0.5-5.9-1.1-8.5c-1.6-2.6-4.3-4.4-8.3-5.5c-1.2-0.3-2.3-0.5-3.1-0.5c-0.9,0-1.6,0.1-2.2,0.2c-0.7,0.1-1.3,0.3-1.8,0.6
			l-12.8,46.5l-8.6-2.4l-1.2-2.2l1.7,0.5c0.4,0.1,0.8,0.1,1.1,0.1c0.3-0.1,0.5-0.2,0.7-0.4c0.2-0.2,0.4-0.5,0.5-0.8l11.3-41.2
			c0-0.1,0.1-0.4,0.1-0.8c0-0.4,0-0.8-0.1-1.3c-0.1-0.4-0.4-0.9-0.7-1.3c-0.4-0.4-1-0.7-1.7-0.9l2.2-1.3l8.6,2.4
			c0.8,0.2,1.6,0.3,2.4,0.4c0.7,0.1,1.4,0.3,2.2,0.4c0.7,0.2,1.5,0.3,2.1,0.5c3.2,0.9,5.8,1.9,8,3.2c2.2,1.3,3.8,2.7,5.1,4.2
			c1.2,1.5,2,3.1,2.3,4.8c0.3,1.7,0.3,3.4-0.2,5.1c-0.3,1.2-0.9,2.3-1.8,3.2c-0.8,0.9-1.9,1.8-3.1,2.4c-1.2,0.7-2.6,1.2-4.1,1.7
			c-1.5,0.4-3.1,0.7-4.8,0.7c2.8,1.4,4.9,2.8,6.4,4.5c1.4,1.6,2.4,3.2,2.9,4.8c0.5,1.6,0.7,3.1,0.7,4.5c-0.1,1.4-0.2,2.4-0.4,3.1
			l-2.3,8.5c-0.1,0.6-0.1,1.3,0,1.9c0.1,0.5,0.4,1,0.7,1.4c0.3,0.5,1,0.8,1.8,1.1L516.2,88.7z"/>
		<linearGradient id="SVGID_23_" gradientUnits="userSpaceOnUse" x1="523.7373" y1="85.6646" x2="569.6162" y2="85.6646">
			<stop  offset="0" style="stop-color:#000B7F"/>
			<stop  offset="1" style="stop-color:#2B4E9E"/>
		</linearGradient>
		<path class="st36" d="M567.8,115.3l-10-5.4l5-46.2l-17.8,15l11.8,6.4l-0.4,3l-13.7-7.4l-15.2,12.8l-3.1-1.7l-0.7-2.4
			c0.5,0.3,1.1,0.4,1.6,0.3c0.5-0.1,1.1-0.3,1.5-0.5c0.6-0.3,1.1-0.7,1.7-1.2L566.8,56l2.8,1.5l-5,52.2c0,0.6,0.2,1.2,0.7,1.7
			c0.5,0.5,1.1,1,1.7,1.4L567.8,115.3z"/>
		<linearGradient id="SVGID_24_" gradientUnits="userSpaceOnUse" x1="581.5117" y1="101.2197" x2="638.7373" y2="101.2197">
			<stop  offset="0" style="stop-color:#000B7F"/>
			<stop  offset="1" style="stop-color:#2B4E9E"/>
		</linearGradient>
		<path class="st37" d="M638.7,107.5l-2.5,0.1c-0.9-0.9-1.8-1.3-2.5-1.3c-0.7,0.1-1.3,0.2-1.9,0.5c-0.1,0-0.9,0.4-2.3,1.2
			c-1.4,0.7-3.3,1.6-5.5,2.7c-2.3,1.1-4.8,2.4-7.6,3.8c-2.8,1.4-5.7,2.8-8.7,4.3c-6.9,3.4-14.8,7.3-23.5,11.6l-2.7-2.3l1.4-0.7
			c2.6-8.7,4.8-16.6,6.8-23.7c0.8-3.1,1.6-6,2.4-9c0.8-2.9,1.5-5.6,2.1-8.1c0.6-2.5,1.1-4.5,1.4-6.2c0.3-1.7,0.5-2.7,0.5-3.2
			c-0.1-0.8-0.3-1.6-0.7-2.3c-0.4-0.8-1.1-1.6-2.1-2.5l2.7-0.4c0.6,0.4,1.2,0.9,1.8,1.5c0.5,0.5,1,1,1.5,1.5c0.5,0.5,1,1.1,1.4,1.6
			c1.2,1.6,1.8,3.6,1.7,5.7c0,2.2-0.4,4.5-1.1,7.1l-9.2,33.4l41-20L638.7,107.5z"/>
		<linearGradient id="SVGID_25_" gradientUnits="userSpaceOnUse" x1="611.8027" y1="154.5921" x2="674.665" y2="154.5921">
			<stop  offset="0" style="stop-color:#000B7F"/>
			<stop  offset="1" style="stop-color:#2B4E9E"/>
		</linearGradient>
		<path class="st38" d="M611.8,154.8l0.3-2.4l1,1.4c0.3,0.4,0.6,0.6,0.9,0.7c0.3,0.1,0.6,0.1,0.8,0c0.3,0,0.6-0.2,0.9-0.4l34-25.7
			c0.5-0.4,0.8-0.9,1.1-1.4c0.2-0.5,0.3-1,0.3-1.6c0-0.6-0.2-1.3-0.8-1.9l2.6,0.3l21.6,28.6l-8.2-1.9c-0.1-0.6-0.2-1.2-0.3-1.8
			c-0.1-0.6-0.3-1.2-0.6-1.9c-0.3-0.7-0.7-1.3-1.2-2l0.1,0l-8.9-11.7L620,159.8l10.6,14c0.5,0.7,1,1.3,1.6,1.7
			c0.5,0.5,1.1,0.9,1.6,1.1c0.6,0.3,1.1,0.6,1.7,0.8l-0.3,8.3L611.8,154.8z M652.8,161.8l-5-0.7l-8.6-11.4l2.8-2.1L652.8,161.8z"/>
		<linearGradient id="SVGID_26_" gradientUnits="userSpaceOnUse" x1="639.4883" y1="197.1037" x2="686.9717" y2="197.1037">
			<stop  offset="0" style="stop-color:#000B7F"/>
			<stop  offset="1" style="stop-color:#2B4E9E"/>
		</linearGradient>
		<path class="st39" d="M661.4,224c-0.6,0.3-1.2,0.5-2,0.6c-0.7,0.1-1.5,0.1-2.2-0.1c-0.8-0.2-1.5-0.6-2.3-1.2
			c-0.8-0.6-1.4-1.6-2.1-2.9l-13.4-27.7l0.7-2.3l0.8,1.6c0.2,0.4,0.4,0.7,0.7,0.9c0.2,0.2,0.5,0.2,0.7,0.2c0.2,0,0.5,0,0.8-0.2
			l38.8-18.8c0.5-0.3,1-0.7,1.4-1.2c0.3-0.4,0.5-0.9,0.6-1.5c0.1-0.6,0-1.3-0.4-2.1l2.3,0.8c1.2,2.5,1.4,4.8,0.7,6.9
			c-0.8,2.2-2.3,3.8-4.7,5l-35.2,17.1l9.4,19.5c0.4,0.9,0.9,1.6,1.5,2.2c0.5,0.5,1.2,0.9,2.1,1.1c0.9,0.2,1.9,0,3.3-0.7L661.4,224z"
			/>
	</g>
</g>
<g id="Color">
	<path class="st40" d="M272.2,465.9c-37.6-39.4-60.7-92.8-60.7-151.6c0-121.2,98.3-219.5,219.5-219.5
		c121.2,0,219.5,98.3,219.5,219.5c0,36.1-8.7,70.2-24.2,100.3"/>
	<g>
		<path class="st20" d="M653.5,448.6c0,0-1.3-1.4-3.8-3.9c-2.5-2.5-6.3-6.1-11.2-10.4c-4.9-4.3-11-9.4-18.2-14.7
			c-1.8-1.3-3.7-2.6-5.6-4c-2-1.3-4-2.7-6.1-4c-2.1-1.3-4.3-2.6-6.5-3.9c-2.3-1.2-4.5-2.6-6.9-3.7c-2.4-1.2-4.8-2.4-7.3-3.5
			c-1.3-0.5-2.5-1.1-3.8-1.6c-1.3-0.6-2.6-1-3.9-1.5c-5.3-1.9-10.8-3.6-16.5-4.6c-5.7-1-11.5-1.7-17.4-1.6c-0.7,0-1.5,0-2.2,0.1
			l-1.1,0c0.7,0,0.1,0,0.2,0l-0.2,0l-0.3,0l-0.6,0.1c-1.7,0.1-3.4,0.3-5.2,0.4l-1.3,0.1l-0.7,0l-0.6,0.1c-0.7,0.1-1.5,0.2-2.2,0.3
			c-1.5,0.2-3,0.4-4.5,0.7c-12.5,2.3-25.2,6.3-37.6,12.2c-3.1,1.4-6.2,3.1-9.3,4.6c-1.5,0.8-3.1,1.7-4.6,2.6
			c-1.5,0.8-3.1,1.7-4.6,2.6c-6.1,3.6-12.2,7.5-18.3,11.5c-12.2,8.1-24.3,16.8-36.9,25.1c-12.6,8.3-25.7,16.3-39.8,22.3
			c-7,3-14.3,5.5-21.7,7.2c-0.9,0.2-1.9,0.4-2.8,0.6c-0.9,0.2-1.8,0.4-2.8,0.5c-1.9,0.3-3.7,0.6-5.6,0.8c-1.8,0.2-3.7,0.3-5.6,0.5
			c-0.9,0.1-1.8,0.1-2.8,0.2c-0.9,0-1.8,0-2.8,0c-0.9,0-1.8,0-2.7,0l-1.4,0l-0.9,0l-0.6-0.1c-1.6-0.1-3.2-0.3-4.7-0.4
			s-3.1-0.3-4.7-0.4c-1.6-0.2-3.2-0.4-4.8-0.6c-3.2-0.4-6.4-0.8-9.3-1.4c-1.5-0.3-3-0.5-4.4-0.8c-1.5-0.2-2.9-0.5-4.3-0.8
			c-11.4-2.3-21.6-5.3-30.5-8.3c-8.9-3-16.4-6-22.5-8.8c-6.1-2.7-10.8-5.1-13.9-6.8c-3.1-1.7-4.8-2.7-4.8-2.7s1.9,0.4,5.3,1.1
			c3.5,0.7,8.6,1.7,15,2.9c6.5,1.1,14.3,2.3,23.3,3.4c4.5,0.6,9.3,1.1,14.3,1.5c2.5,0.2,5.1,0.4,7.7,0.6c2.6,0.1,5.3,0.3,8.1,0.4
			c5.5,0.2,11.2,0.4,16.9,0.3c1.4,0,2.9,0,4.3,0c1.5-0.1,3.1-0.1,4.7-0.2c1.6-0.1,3.2-0.1,4.7-0.2l0.6,0c0.3,0-0.2,0-0.1,0l0.1,0
			l0.3,0l1-0.1c0.7-0.1,1.4-0.2,2.1-0.2c0.7-0.1,1.4-0.2,2.1-0.2c0.7-0.1,1.4-0.3,2.1-0.4c1.4-0.3,2.8-0.5,4.2-0.8
			c1.4-0.4,2.8-0.7,4.3-1.1c0.7-0.2,1.4-0.4,2.1-0.6c0.7-0.2,1.4-0.5,2.1-0.7c5.7-2,11.4-4.3,17.2-7.4c11.5-6,23-13.8,34.8-22.3
			c11.8-8.4,23.9-17.5,36.8-26.1c6.5-4.3,13.1-8.5,20-12.3c3.4-2,7-3.8,10.5-5.6c3.6-1.7,7.1-3.5,10.8-5c14.6-6.3,30.2-10.5,45.6-12
			c2-0.2,4-0.3,6-0.4c1-0.1,2-0.1,3-0.2l0.7,0l0.7,0l1.3,0c1.7,0,3.5,0,5.2,0l0.6,0l0.3,0l0.7,0l1.5,0.1c1,0.1,1.9,0.1,2.9,0.2
			c7.6,0.7,15,2.1,21.8,4.3c13.6,4.4,25.3,10.9,34.9,18c4.8,3.5,9.2,7.1,13.1,10.8c3.9,3.6,7.5,7.2,10.7,10.8
			c6.4,7,11.3,13.6,15.1,19.1c3.8,5.5,6.4,10.1,8.2,13.2C652.7,446.9,653.5,448.6,653.5,448.6z"/>
	</g>
	<g>
		<path class="st20" d="M624.2,450c0,0-1.3-1.5-4-4c-2.6-2.5-6.7-6.1-12.2-9.9c-2.8-1.9-5.9-3.9-9.5-5.8c-3.5-1.9-7.5-3.7-11.8-5.2
			c-4.3-1.5-9-2.8-14-3.5c-2.5-0.3-5-0.6-7.7-0.6c-0.7,0-1.3,0-2,0c-0.7,0-1.3,0-2,0.1l-1,0l-0.3,0c0.2,0,0,0,0,0l-0.1,0l-0.5,0
			c-0.7,0.1-1.5,0.1-2.2,0.2c-1.4,0.2-2.6,0.3-4,0.6c-0.7,0.1-1.4,0.2-2.1,0.4c-0.7,0.1-1.4,0.3-2.1,0.4c-2.8,0.6-5.6,1.4-8.4,2.3
			c-5.6,1.8-11.3,4.3-17,7.2c-2.9,1.4-5.7,3-8.6,4.6c-2.9,1.7-5.7,3.4-8.6,5.3c-5.8,3.6-11.6,7.6-17.5,11.8
			c-5.9,4.1-11.9,8.5-18,12.9c-6.1,4.4-12.4,8.9-18.8,13.3c-12.8,8.8-26.4,17.5-40.9,24.9c-7.3,3.7-14.8,7.1-22.5,9.9
			c-7.7,2.8-15.6,5.3-23.7,6.9c-8,1.7-16.2,2.8-24.2,3.3c-8,0.4-16.2,0.1-24-0.8c-7.8-1-15.3-2.6-22.5-4.6c-7.2-2-13.9-4.5-20.4-7.1
			c-12.9-5.3-24.4-11.6-34.6-17.8c-10.2-6.3-19.1-12.7-26.7-18.6c-7.6-6-13.9-11.5-19-16.2c-5.1-4.7-8.9-8.6-11.4-11.2
			c-1.3-1.3-2.2-2.4-2.9-3.1c-0.6-0.7-1-1.1-1-1.1s0.4,0.3,1.2,0.8c0.8,0.5,2,1.3,3.5,2.4c3,2.1,7.6,5,13.4,8.6
			c5.8,3.6,12.9,7.9,21.1,12.5c4.1,2.3,8.5,4.7,13.2,7.1c4.7,2.5,9.6,4.9,14.8,7.3c10.4,4.9,21.9,9.6,34.2,13.5
			c6.1,2,12.5,3.7,19.1,5.1c6.5,1.4,13.2,2.4,20,2.9c6.8,0.6,13.6,0.5,20.6-0.2c7-0.6,14-1.7,21-3.4c3.5-0.8,7-1.8,10.4-2.8
			c3.5-1.1,6.9-2.2,10.4-3.6c3.4-1.3,6.8-2.7,10.2-4.2c3.4-1.5,6.8-3.1,10.1-4.7c13.4-6.7,26.4-14.6,39.2-22.8
			c6.4-4.1,12.8-8.2,19.1-12.3c6.4-4.1,12.7-8.1,19-12c6.4-3.9,12.8-7.6,19.2-11c6.5-3.4,13-6.4,19.5-9c6.6-2.5,13.2-4.6,19.8-5.9
			c3.3-0.7,6.6-1.2,9.8-1.5c0.8-0.1,1.6-0.1,2.4-0.2c0.8,0,1.6-0.1,2.4-0.1c1.6-0.1,3.3-0.1,4.8,0c0.7,0,1.5,0.1,2.2,0.1l0.5,0
			l0.1,0c0.1,0,0,0,0.2,0l0.3,0l1.2,0.1c0.8,0.1,1.5,0.1,2.3,0.2c0.8,0.1,1.5,0.2,2.2,0.3c3,0.4,5.8,1,8.6,1.7
			c5.5,1.4,10.5,3.4,14.9,5.6c8.9,4.5,15.7,9.8,20.8,14.6c5.1,4.8,8.5,9,10.8,11.9C623.2,448.3,624.2,450,624.2,450z"/>
	</g>
	<path class="st41" d="M364,329.7c2.7,1.2,4.2,3.1,5,5c26.5-11.8,54.1-23.8,79.7-34.3c-16.3-2.6-30.8-5-43.6-7.1
		C361.5,286,337.5,282,323,282c-6.1,0-10.6,0.7-14,2.3c-8.7,4-14.4,7.2-14.6,7.3l-8.3,4.6l8.7,3.7
		C295.3,300.2,351.5,324.2,364,329.7z"/>
	<path class="st41" d="M590.4,292.2c-2.2-9.3-12.6-10.9-37.9-14.6c-0.7-0.1-1.5-0.2-2.4-0.2c-26.2,0-144,51.8-204.2,79.1
		c-2.7-1.2-5.4-2.3-7.9-3.4c-24.1-10.2-37.3-15.9-47.9-15.9c-3.2,0-6.1,0.5-8.9,1.6l-0.3,0.1l-14,7.5l51.1,39c0,0,23.1-0.6,27.6-0.7
		c14.7-0.5,51.9-1.1,100.5-19.3c23.8-8.9,36-13.6,78.8-30.4C583.3,312.1,592.8,302.6,590.4,292.2z"/>
	<g>
		<path class="st20" d="M460.5,279c0,0-0.3-0.5-1-1.5c-0.6-1-1.6-2.4-2.9-4.2c-1.3-1.8-2.9-3.9-4.7-6.3c-1.9-2.4-4.1-4.9-6.5-7.6
			c-5-5.4-11.1-11.3-18.5-16.2c-1.9-1.2-3.8-2.4-5.8-3.4c-1-0.5-2-1.1-3-1.5l-1.5-0.7c-0.5-0.2-1.1-0.4-1.6-0.6
			c-0.5-0.2-1.1-0.4-1.6-0.6l-1.6-0.5c-1.1-0.4-2.2-0.7-3.3-1c-1.1-0.4-2.2-0.5-3.3-0.8l-0.7-0.2l-0.9-0.1l-1.9-0.3l-0.9-0.2
			l-0.8-0.1l-1.7-0.2c-1.1-0.1-2.3-0.1-3.4-0.2c-2.3-0.1-4.6,0-6.9,0.2c-2.3,0.2-4.5,0.5-6.8,0.9c-1.1,0.2-2.2,0.5-3.3,0.7
			c-1.1,0.3-2.2,0.6-3.2,0.8c-8.5,2.4-16.2,6.1-22.5,9.8c-3.2,1.8-6,3.7-8.5,5.4c-2.5,1.7-4.6,3.3-6.3,4.6c-1.7,1.3-3.1,2.4-4,3.2
			c-0.9,0.8-1.4,1.2-1.4,1.2s0.3-0.5,1-1.5c0.7-1,1.7-2.4,3.1-4.1c1.4-1.7,3.2-3.8,5.4-6c2.2-2.2,4.7-4.6,7.7-7
			c6-4.8,13.7-9.8,23-13.1c1.2-0.4,2.3-0.8,3.5-1.2c1.2-0.3,2.4-0.7,3.7-1c2.5-0.6,5-1.1,7.7-1.4c2.6-0.3,5.3-0.5,7.9-0.4
			c1.3,0.1,2.6,0,4,0.2l2.1,0.2l1,0.1l0.9,0.1l1.8,0.3l0.9,0.2l0.1,0l0.2,0l0.1,0l0.2,0.1l0.5,0.1c1.3,0.3,2.6,0.6,3.9,1
			c1.3,0.4,2.6,0.7,3.8,1.2l1.9,0.7c0.6,0.2,1.2,0.5,1.8,0.8c0.6,0.3,1.2,0.5,1.8,0.8l1.7,0.9c1.2,0.6,2.3,1.3,3.4,1.9
			c2.2,1.3,4.3,2.8,6.2,4.2c3.9,3,7.3,6.3,10.3,9.6c3,3.3,5.5,6.7,7.7,9.8c2.2,3.2,3.9,6.2,5.3,9c1.5,2.7,2.5,5.2,3.4,7.2
			c0.9,2,1.4,3.7,1.8,4.8C460.3,278.4,460.5,279,460.5,279z"/>
	</g>
	<g>
		<path class="st20" d="M402.4,150.8c0,0,0.2,0.2,0.4,0.6c0.3,0.4,0.7,1,1.1,1.8c0.5,0.8,1,1.7,1.5,2.9c0.5,1.1,1.1,2.5,1.6,3.9
			c0.5,1.5,1,3.1,1.3,4.9c0.2,0.9,0.4,1.8,0.4,2.8c0.1,1,0.2,2,0.2,3c0,0.5,0,1,0,1.6c0,0.5-0.1,1.1-0.1,1.6
			c-0.1,0.5-0.1,1.1-0.2,1.6c-0.1,0.5-0.2,1.1-0.4,1.6c-0.5,2.2-1.4,4.4-2.6,6.4c-0.5,0.8-1,1.6-1.4,2.5c-0.3,0.8-0.6,1.4-0.9,2.2
			c-0.5,1.6-1,3.3-1.3,5c-0.2,0.8-0.3,1.7-0.4,2.5c0,0.4-0.1,0.8-0.1,1.2c0,0.4,0,0.8-0.1,1.2c0,0.4-0.1,0.8-0.1,1.2
			c0,0.4,0,0.8,0,1.2c0,0.8,0,1.5,0,2.3c0,0.7,0,1.4,0,2.1c0,0.7,0,1.3,0.1,1.9c0.1,1.2,0.1,2.3,0.2,3.2c0.1,1.8,0.2,2.8,0.2,2.8
			s-0.2-0.2-0.4-0.6c-0.2-0.4-0.6-1-1-1.8c-0.4-0.8-0.9-1.8-1.4-3c-0.2-0.6-0.5-1.2-0.7-1.9c-0.2-0.7-0.5-1.4-0.7-2.1
			c-0.2-0.8-0.4-1.5-0.6-2.4c-0.2-0.8-0.3-1.7-0.4-2.6c-0.1-0.9-0.2-1.8-0.3-2.8c-0.1-1,0-2,0-3c0.1-2,0.4-4.2,1.1-6.3
			c0.3-1.1,0.8-2.3,1.3-3.4c0.5-0.9,1-1.8,1.5-2.7c0.9-1.4,1.6-2.9,2-4.6c0.1-0.4,0.2-0.8,0.4-1.2c0.1-0.4,0.2-0.8,0.2-1.3
			c0.1-0.4,0.2-0.8,0.2-1.3c0-0.4,0.1-0.9,0.1-1.3c0.2-1.7,0.2-3.4,0.2-5c0-1.6-0.1-3.2-0.2-4.7c-0.1-1.5-0.2-2.8-0.4-4
			c-0.1-1.2-0.3-2.3-0.4-3.1C402.6,151.9,402.4,150.8,402.4,150.8z"/>
	</g>
	<g>
		<path class="st20" d="M339.7,177.6c0,0,0.3,0.7,1,2c0.3,0.6,0.7,1.4,1.1,2.3c0.4,0.9,0.9,1.8,1.4,2.8c1.1,2,2.4,4.3,4,6.4
			c0.4,0.5,0.8,1.1,1.3,1.5l0.7,0.7c0.2,0.2,0.5,0.4,0.7,0.6c0.2,0.2,0.5,0.4,0.7,0.6c0.3,0.2,0.5,0.3,0.8,0.5
			c0.5,0.4,1,0.6,1.6,0.9c0.7,0.4,1.5,0.8,2.2,1.2c0.8,0.6,1.7,1.2,2.4,1.8c0.6,0.6,1.3,1.2,1.8,2c0.5,0.7,1.1,1.3,1.5,2.1
			c0.4,0.7,0.9,1.4,1.2,2.1c0.4,0.7,0.7,1.4,0.9,2.1c0.5,1.4,0.9,2.7,1.2,3.9c0.3,1.2,0.5,2.4,0.6,3.4c0.1,1,0.1,1.9,0.1,2.6
			c0,0.7,0,1.3-0.1,1.7c0,0.4-0.1,0.6-0.1,0.6s-0.4-0.7-1.1-2c-0.3-0.6-0.8-1.4-1.2-2.2c-0.2-0.4-0.5-0.9-0.8-1.3
			c-0.3-0.5-0.5-0.9-0.9-1.4c-0.3-0.5-0.6-1-1-1.5c-0.3-0.5-0.7-1-1-1.5c-0.2-0.3-0.4-0.5-0.5-0.8c-0.2-0.3-0.4-0.5-0.6-0.8
			c-0.2-0.3-0.4-0.5-0.6-0.8c-0.2-0.2-0.4-0.5-0.7-0.7c-0.9-1-1.8-1.9-2.8-2.7c-0.5-0.4-0.9-0.6-1.4-1c-0.7-0.3-1.3-0.7-2-1
			c-0.9-0.5-1.8-0.9-2.5-1.5c-0.4-0.3-0.8-0.6-1.1-0.9c-0.4-0.3-0.7-0.7-1-1c-0.3-0.3-0.7-0.7-0.9-1c-0.3-0.4-0.5-0.7-0.8-1.1
			c-0.5-0.7-0.9-1.4-1.3-2.2c-0.8-1.5-1.4-2.9-1.8-4.3c-0.4-1.4-0.7-2.7-0.9-4c-0.4-2.5-0.4-4.5-0.3-6c0-0.7,0.1-1.3,0.2-1.7
			C339.6,177.8,339.7,177.6,339.7,177.6z"/>
	</g>
	<g>
		<path class="st20" d="M475.8,173.8c0,0,0,0.3,0,0.7c0,0.5,0,1.2-0.2,2.1c-0.2,1.8-0.6,4.3-1.6,7.2c-0.9,2.9-2.4,6.3-4.8,9.6
			c-1.2,1.6-2.6,3.2-4.4,4.6c-1.8,1.4-3.8,2.5-6.1,3.2l-0.4,0.1l-0.1,0c-0.2,0.1,0.3-0.1,0.2-0.1l0,0l-0.1,0l-0.2,0.1l-0.7,0.2
			l-1.4,0.5c-0.6,0.4-1.3,0.6-2,1c-1.4,0.9-2.8,1.8-4,3c-0.3,0.3-0.6,0.6-0.9,0.8c-0.3,0.3-0.6,0.6-0.9,0.9
			c-0.3,0.3-0.6,0.6-0.9,0.9c-0.3,0.3-0.5,0.6-0.8,0.9c-0.5,0.6-1,1.2-1.5,1.8c-0.5,0.6-0.9,1.2-1.4,1.8c-0.5,0.6-0.8,1.1-1.2,1.7
			c-0.4,0.5-0.7,1.1-1.1,1.5c-0.7,1-1.3,1.8-1.7,2.6c-1,1.5-1.5,2.3-1.5,2.3s0-0.3,0.1-0.7c0.1-0.5,0.1-1.2,0.3-2
			c0.2-0.9,0.4-1.9,0.7-3.1c0.3-1.2,0.8-2.5,1.3-4c0.3-0.7,0.6-1.5,1-2.2c0.4-0.8,0.8-1.5,1.2-2.3c0.2-0.4,0.5-0.8,0.7-1.2
			c0.3-0.4,0.5-0.8,0.8-1.2c0.3-0.4,0.5-0.8,0.8-1.2c0.3-0.4,0.6-0.8,1-1.1c0.6-0.8,1.4-1.5,2.2-2.2c0.7-0.8,1.7-1.4,2.6-2
			c0.4-0.3,1-0.6,1.5-0.9c0.5-0.3,1.1-0.6,1.6-0.8l1.4-0.5l0.7-0.3l0.2-0.1l0.1,0l0.3-0.1l0.3-0.1c1.5-0.4,2.9-1.2,4.3-2.1
			c1.3-0.9,2.6-2.1,3.8-3.3c2.3-2.4,4.2-5.1,5.8-7.5c1.6-2.4,2.8-4.5,3.7-6.1C475.3,174.7,475.8,173.8,475.8,173.8z"/>
	</g>
	<g>
		<path class="st20" d="M279.5,197.4c0,0,0.7,0.9,2,2.5c1.3,1.5,3.1,3.7,5.3,6.2c2.3,2.4,5,5.1,8.2,7.4c1.6,1.1,3.3,2.1,5.1,2.9
			c1.8,0.7,3.6,1.2,5.5,1.4l1.7,0.2c0.3,0,0.6,0.1,1,0.1l1,0.2c1.3,0.3,2.5,0.7,3.7,1.1c2.4,0.9,4.5,2.2,6.3,3.6
			c3.7,2.8,6.4,6.1,8.3,9c2,2.9,3.2,5.6,4,7.5c0.4,0.9,0.6,1.7,0.8,2.2c0.2,0.5,0.2,0.8,0.2,0.8s-0.8-0.9-2.1-2.3
			c-1.4-1.5-3.3-3.5-5.7-5.8c-2.4-2.2-5.3-4.7-8.7-6.7c-1.7-1-3.5-1.8-5.3-2.5c-0.9-0.3-1.9-0.5-2.8-0.7l-0.6-0.1
			c-0.2,0-0.4-0.1-0.7-0.1l-1.7-0.1c-2.7-0.2-5.3-1-7.5-2.1c-2.3-1.1-4.3-2.6-6-4.1c-3.4-3.1-5.9-6.5-7.6-9.6
			c-1.8-3.1-2.8-5.8-3.5-7.7c-0.3-1-0.5-1.7-0.7-2.3C279.6,197.7,279.5,197.4,279.5,197.4z"/>
	</g>
	<g>
		<path class="st20" d="M460.5,255.1c0,0,0.1-0.3,0.4-0.7c0.2-0.5,0.6-1.2,1.1-2c1-1.7,2.6-4.1,5-6.7c2.3-2.6,5.4-5.4,9.4-7.6
			c2-1.1,4.2-2.1,6.7-2.6c2.5-0.6,5.1-0.7,7.7-0.3l1.6,0.2c0.3,0.1,0.5,0,0.7,0.1l0.6,0l1.4,0c0.5,0,0.9,0,1.4-0.1
			c1.9-0.2,3.8-0.6,5.6-1.2c3.7-1.2,7-2.9,9.8-4.6c2.8-1.7,5.1-3.2,6.7-4.4c0.8-0.6,1.4-1,1.9-1.3c0.4-0.3,0.7-0.5,0.7-0.5
			s-0.1,0.3-0.4,0.7c-0.3,0.5-0.7,1.2-1.2,2c-1.1,1.7-2.9,4-5.4,6.4c-2.5,2.4-5.8,5-10,6.9c-2.1,0.9-4.4,1.7-6.9,2.1
			c-1.2,0.2-2.5,0.3-3.8,0.3l-1-0.1c-0.3,0-0.7,0-1-0.1l-1.7-0.2c-1.8-0.3-3.7-0.2-5.5,0.1c-1.9,0.3-3.7,0.9-5.5,1.7
			c-3.5,1.5-6.7,3.5-9.4,5.3c-2.7,1.9-4.9,3.6-6.4,4.8C461.3,254.4,460.5,255.1,460.5,255.1z"/>
	</g>
	<g>
		<path class="st20" d="M212.4,505c0,0,1.5,1.1,4.4,3c2.9,1.9,7.2,4.6,12.8,7.8c5.6,3.2,12.5,6.9,20.6,10.6
			c8.1,3.7,17.3,7.5,27.6,10.9c5.2,1.7,10.5,3.3,16.2,4.7c5.6,1.4,11.5,2.7,17.5,3.8c6.1,1,12.3,1.9,18.7,2.4
			c6.4,0.6,12.9,0.8,19.5,0.8c3.3,0,6.7-0.1,10-0.3l2.5-0.2l0.6,0l0.2,0c0.2,0-0.1,0,0,0l0.3,0l1.3-0.1l1.3-0.1
			c0.4,0,0.9-0.1,1.3-0.1l2.3-0.3c6.4-0.9,12.8-2.5,19.2-4.5c6.4-2,12.7-4.7,18.9-7.8c6.2-3,12.3-6.5,18.4-10.3
			c6-3.7,12-7.7,17.9-11.9c5.9-4.2,11.7-8.4,17.5-12.8c11.6-8.6,23.1-17.4,34.8-25.4c11.7-8,23.7-15.2,36.2-20.4
			c3.1-1.3,6.2-2.5,9.4-3.4c1.6-0.5,3.2-0.9,4.7-1.4c1.6-0.4,3.1-0.8,4.7-1.1c6.3-1.3,12.6-1.9,18.6-1.7c0.7,0,1.5,0.1,2.2,0.1
			l1.1,0.1l0.7,0l0.5,0.1c0.7,0.1,1.4,0.1,2,0.2l1,0.1l1.1,0.1c1.4,0.2,2.9,0.4,4.2,0.7c0.7,0.1,1.3,0.3,2,0.4
			c0.7,0.2,1.3,0.3,2,0.5c5.2,1.3,10,3.1,14.2,5.2c8.5,4.2,14.9,9.3,19.7,13.9c4.7,4.6,7.9,8.8,9.9,11.6c2,2.9,2.8,4.6,2.8,4.6
			s-1.1-1.5-3.6-3.9c-2.4-2.5-6.1-6-11.3-9.6c-2.6-1.9-5.5-3.7-8.9-5.5c-3.3-1.8-7.1-3.5-11.2-4.9c-4.1-1.4-8.5-2.5-13.3-3.1
			c-0.6-0.1-1.2-0.1-1.8-0.2c-0.6,0-1.2-0.1-1.8-0.1c-1.2-0.1-2.4-0.1-3.6-0.2l-0.9,0l-1,0c-0.7,0-1.3,0-2,0l-0.5,0
			c-0.1,0,0.2,0,0,0l-0.1,0l-0.2,0l-1,0.1c-0.6,0.1-1.3,0.1-1.9,0.2c-5.1,0.6-10.3,1.8-15.6,3.7c-5.3,1.8-10.5,4.3-15.8,7.1
			c-10.5,5.8-21,13.4-31.7,21.8c-10.7,8.4-21.6,17.6-33.1,26.8c-5.8,4.6-11.6,9.2-17.7,13.6c-6.1,4.4-12.4,8.8-19,12.9
			c-6.6,4-13.4,7.8-20.5,11.2c-7.1,3.3-14.5,6.2-22,8.4c-1.9,0.6-3.8,1-5.7,1.5c-1.9,0.4-3.8,0.9-5.8,1.2c-3.9,0.8-7.7,1.3-11.7,1.6
			l-3,0.2c-0.5,0-0.9,0.1-1.4,0.1l-1.3,0.1l-1.3,0l-0.9,0l-0.7,0l-2.8,0c-3.7,0-7.4-0.1-11-0.3c-3.6-0.2-7.2-0.5-10.8-0.8
			c-3.5-0.4-7-0.9-10.5-1.4c-3.4-0.5-6.8-1.2-10.1-1.9c-3.3-0.7-6.6-1.5-9.8-2.4c-12.8-3.4-24.4-7.8-34.8-12.7
			c-5.2-2.4-10-4.9-14.5-7.5c-4.5-2.6-8.7-5.1-12.5-7.7c-3.8-2.5-7.4-5-10.5-7.4c-3.2-2.4-6-4.7-8.5-6.8c-5-4.2-8.7-7.8-11.2-10.3
			C213.5,506.4,212.4,505,212.4,505z"/>
	</g>
	<path id="SVGID_x5F_27_x5F_" class="st42" d="M190.5,315.1c0-132.9,107.8-240.7,240.7-240.7s240.7,107.8,240.7,240.7"/>
	<text class="st41 st9 st10">	<textPath  xlink:href="#SVGID_x5F_27_x5F_" startOffset="0%">
GRACE TRAVEL	</textPath>
</text>
</g>
</svg>
