<svg xmlns="http://www.w3.org/2000/svg" width="42.661" height="42.653" viewBox="0 0 42.661 42.653"><defs><style>.a{fill:#fff;}</style></defs><g transform="translate(0)"><path class="a" d="M25.422,7.943c5.7,0,6.365.025,8.617.127A11.637,11.637,0,0,1,38,8.806,6.618,6.618,0,0,1,40.455,10.4a6.514,6.514,0,0,1,1.591,2.455,11.855,11.855,0,0,1,.736,3.961c.1,2.252.127,2.92.127,8.617s-.025,6.365-.127,8.617a11.637,11.637,0,0,1-.736,3.961,6.618,6.618,0,0,1-1.591,2.455A6.515,6.515,0,0,1,38,42.055a11.855,11.855,0,0,1-3.961.736c-2.252.1-2.92.127-8.617.127s-6.365-.025-8.617-.127a11.637,11.637,0,0,1-3.961-.736,6.618,6.618,0,0,1-2.455-1.591A6.515,6.515,0,0,1,8.8,38.009a11.855,11.855,0,0,1-.736-3.961c-.1-2.252-.127-2.92-.127-8.617s.025-6.365.127-8.617A11.637,11.637,0,0,1,8.8,12.852,6.618,6.618,0,0,1,10.389,10.4a6.515,6.515,0,0,1,2.455-1.591,11.855,11.855,0,0,1,3.961-.736c2.252-.11,2.92-.127,8.617-.127m0-3.843c-5.79,0-6.518.025-8.795.127a15.629,15.629,0,0,0-5.172.99A10.393,10.393,0,0,0,7.68,7.68a10.577,10.577,0,0,0-2.463,3.775,15.639,15.639,0,0,0-.99,5.18c-.1,2.268-.127,3-.127,8.786s.025,6.518.127,8.795a15.732,15.732,0,0,0,.99,5.18A10.393,10.393,0,0,0,7.68,43.172a10.577,10.577,0,0,0,3.775,2.463,15.639,15.639,0,0,0,5.18.99c2.277.1,3,.127,8.795.127s6.518-.025,8.795-.127a15.732,15.732,0,0,0,5.18-.99,10.393,10.393,0,0,0,3.775-2.463A10.577,10.577,0,0,0,45.644,39.4a15.639,15.639,0,0,0,.99-5.18c.1-2.277.127-3,.127-8.795s-.025-6.518-.127-8.795a15.732,15.732,0,0,0-.99-5.18,10.393,10.393,0,0,0-2.463-3.775,10.577,10.577,0,0,0-3.775-2.463,15.639,15.639,0,0,0-5.18-.99c-2.285-.093-3.013-.119-8.8-.119Z" transform="translate(-4.1 -4.1)"/><path class="a" d="M137.553,126.6a10.953,10.953,0,1,0,10.953,10.953A10.955,10.955,0,0,0,137.553,126.6Zm0,18.063a7.11,7.11,0,1,1,7.11-7.11A7.109,7.109,0,0,1,137.553,144.663Z" transform="translate(-116.231 -116.231)"/><circle class="a" cx="2.556" cy="2.556" r="2.556" transform="translate(30.15 7.381)"/></g></svg>