<svg xmlns="http://www.w3.org/2000/svg" width="37.878" height="37.87" viewBox="0 0 37.878 37.87"><g transform="translate(0)"><path d="M23.031,7.512c5.058,0,5.652.023,7.651.113a10.332,10.332,0,0,1,3.517.654,5.876,5.876,0,0,1,2.179,1.413,5.784,5.784,0,0,1,1.413,2.179,10.525,10.525,0,0,1,.654,3.517c.09,2,.113,2.593.113,7.651s-.023,5.652-.113,7.651a10.332,10.332,0,0,1-.654,3.517,5.876,5.876,0,0,1-1.413,2.179A5.784,5.784,0,0,1,34.2,37.8a10.525,10.525,0,0,1-3.517.654c-2,.09-2.593.113-7.651.113s-5.652-.023-7.651-.113a10.332,10.332,0,0,1-3.517-.654,5.876,5.876,0,0,1-2.179-1.413,5.784,5.784,0,0,1-1.413-2.179,10.525,10.525,0,0,1-.654-3.517c-.09-2-.113-2.593-.113-7.651s.023-5.652.113-7.651a10.332,10.332,0,0,1,.654-3.517A5.876,5.876,0,0,1,9.684,9.691a5.784,5.784,0,0,1,2.179-1.413,10.525,10.525,0,0,1,3.517-.654c2-.1,2.593-.113,7.651-.113m0-3.412c-5.14,0-5.787.023-7.808.113a13.877,13.877,0,0,0-4.592.879A9.228,9.228,0,0,0,7.279,7.279a9.391,9.391,0,0,0-2.187,3.352,13.886,13.886,0,0,0-.879,4.6c-.09,2.014-.113,2.66-.113,7.8s.023,5.787.113,7.808a13.967,13.967,0,0,0,.879,4.6,9.228,9.228,0,0,0,2.187,3.352,9.391,9.391,0,0,0,3.352,2.187,13.885,13.885,0,0,0,4.6.879c2.022.09,2.66.113,7.808.113s5.787-.023,7.808-.113a13.967,13.967,0,0,0,4.6-.879A9.228,9.228,0,0,0,38.8,38.791a9.39,9.39,0,0,0,2.187-3.352,13.885,13.885,0,0,0,.879-4.6c.09-2.022.113-2.66.113-7.808s-.023-5.787-.113-7.808a13.967,13.967,0,0,0-.879-4.6A9.228,9.228,0,0,0,38.8,7.271a9.391,9.391,0,0,0-3.352-2.187,13.886,13.886,0,0,0-4.6-.879c-2.029-.083-2.675-.105-7.816-.105Z" transform="translate(-4.1 -4.1)"/><path d="M136.325,126.6a9.725,9.725,0,1,0,9.725,9.725A9.726,9.726,0,0,0,136.325,126.6Zm0,16.038a6.313,6.313,0,1,1,6.313-6.313A6.312,6.312,0,0,1,136.325,142.638Z" transform="translate(-117.394 -117.394)"/><circle cx="2.27" cy="2.27" r="2.27" transform="translate(26.77 6.553)"/></g></svg>