<svg xmlns="http://www.w3.org/2000/svg" width="84.911" height="85" viewBox="0 0 84.911 85"><defs><style>.a{fill:none;stroke:#156c88;stroke-miterlimit:10;stroke-width:2px;}.b{fill:#156c88;}.c{fill:#4ac0ee;}.d{fill:#fbb615;}</style></defs><g transform="translate(-178 -60.8)"><path class="a" d="M222.28,127.7a38.978,38.978,0,1,1,62.885-9.11" transform="translate(-27.551)"/><g transform="translate(185.974 110.158)"><path class="b" d="M299.37,348.574s-.231-.249-.675-.693-1.119-1.083-1.989-1.847-1.953-1.669-3.232-2.611c-.32-.231-.657-.462-.995-.71-.355-.231-.71-.479-1.083-.71s-.764-.462-1.154-.693c-.408-.213-.8-.462-1.225-.657-.426-.213-.852-.426-1.3-.622-.231-.089-.444-.2-.675-.284-.231-.107-.462-.178-.693-.266a17.856,17.856,0,0,0-2.93-.817,14.929,14.929,0,0,0-3.09-.266,2.877,2.877,0,0,0-.391.018h-.249l-.107.018c-.3.018-.6.053-.923.071l-.231.018h-.124l-.107.018-.391.053c-.266.036-.533.071-.8.124a26.876,26.876,0,0,0-6.677,2.167c-.551.249-1.1.551-1.652.817-.266.142-.551.3-.817.462-.266.142-.551.3-.817.462-1.083.639-2.167,1.332-3.25,2.042-2.167,1.438-4.315,2.984-6.553,4.458a45.063,45.063,0,0,1-7.068,3.96,22.8,22.8,0,0,1-3.854,1.279c-.16.036-.337.071-.5.107a4.129,4.129,0,0,1-.5.089c-.337.053-.657.107-.994.142-.32.036-.657.053-.995.089-.16.018-.32.018-.5.036h-1.385l-.107-.018c-.284-.018-.568-.053-.835-.071-.284-.018-.551-.053-.835-.071l-.852-.107c-.568-.071-1.137-.142-1.652-.249-.266-.053-.533-.089-.781-.142-.266-.036-.515-.089-.764-.142a44.326,44.326,0,0,1-5.416-1.474,41.193,41.193,0,0,1-4-1.563c-1.083-.479-1.918-.906-2.468-1.208s-.852-.479-.852-.479l.941.2c.622.124,1.527.3,2.664.515,1.154.2,2.54.408,4.138.6.8.107,1.652.2,2.54.266l1.367.107c.462.018.941.053,1.438.071.977.035,1.989.071,3,.053h.764c.266-.018.551-.018.835-.036s.568-.018.835-.036h.16l.178-.018a4850.721,4850.721,0,0,1,.746-.071c.124-.018.249-.053.373-.071.249-.053.5-.089.746-.142.249-.071.5-.124.764-.2l.373-.107c.124-.035.249-.089.373-.124A21.4,21.4,0,0,0,248.189,349a52.066,52.066,0,0,0,6.18-3.96c2.1-1.492,4.244-3.108,6.535-4.635,1.154-.764,2.326-1.51,3.552-2.184.6-.355,1.243-.675,1.865-.995.639-.3,1.261-.622,1.918-.888a27.322,27.322,0,0,1,8.1-2.131c.355-.036.71-.053,1.066-.071.178-.018.355-.018.533-.036h1.687l.266.018c.178.018.337.018.515.036a18.023,18.023,0,0,1,3.871.764,21.665,21.665,0,0,1,6.2,3.2,23.478,23.478,0,0,1,2.326,1.918c.693.639,1.332,1.279,1.9,1.918a31.433,31.433,0,0,1,2.682,3.392c.675.977,1.137,1.794,1.456,2.344A7.907,7.907,0,0,1,299.37,348.574Z" transform="translate(-222.9 -334.1)"/></g><g transform="translate(178 117.958)"><path class="c" d="M257.241,384.946s-.231-.266-.71-.71a17.857,17.857,0,0,0-3.854-2.788,14.3,14.3,0,0,0-2.1-.923,13.057,13.057,0,0,0-2.486-.622,11.235,11.235,0,0,0-1.367-.107h-.355a2.38,2.38,0,0,0-.355.018h-.337c-.124.018-.266.018-.391.036-.249.036-.462.053-.71.107a2.76,2.76,0,0,0-.373.071c-.124.018-.249.053-.373.071-.5.107-.995.249-1.492.408a20.74,20.74,0,0,0-3.019,1.279c-.515.249-1.012.533-1.527.817-.515.3-1.012.6-1.527.941-1.03.639-2.06,1.35-3.108,2.1-1.048.728-2.113,1.51-3.2,2.291s-2.2,1.581-3.339,2.362a65.32,65.32,0,0,1-7.263,4.422,36.349,36.349,0,0,1-4,1.758,28.578,28.578,0,0,1-4.209,1.225,29.739,29.739,0,0,1-4.3.586,26.181,26.181,0,0,1-4.262-.142,28.414,28.414,0,0,1-4-.817,34.68,34.68,0,0,1-3.623-1.261,44.039,44.039,0,0,1-6.145-3.161,54.011,54.011,0,0,1-4.742-3.3c-1.35-1.066-2.468-2.042-3.374-2.877s-1.581-1.527-2.025-1.989c-.231-.231-.391-.426-.515-.551-.107-.124-.178-.2-.178-.2s.071.053.213.142.355.231.622.426c.533.373,1.35.888,2.38,1.527s2.291,1.4,3.747,2.22c.728.408,1.51.835,2.344,1.261.835.444,1.7.87,2.628,1.3a49.184,49.184,0,0,0,6.074,2.4,32.67,32.67,0,0,0,3.392.906,25.924,25.924,0,0,0,3.552.515,19.4,19.4,0,0,0,3.658-.036,24.708,24.708,0,0,0,3.729-.6c.622-.142,1.243-.32,1.847-.5.622-.2,1.225-.391,1.847-.639q.906-.346,1.811-.746c.6-.266,1.208-.551,1.794-.835a76.22,76.22,0,0,0,6.962-4.049c1.137-.728,2.273-1.456,3.392-2.184,1.137-.728,2.255-1.438,3.374-2.131,1.137-.693,2.273-1.35,3.41-1.953a37.619,37.619,0,0,1,3.463-1.6,22.008,22.008,0,0,1,3.516-1.048,15.322,15.322,0,0,1,1.74-.266c.142-.018.284-.018.426-.036.142,0,.284-.018.426-.018a6.835,6.835,0,0,1,.852,0c.124,0,.266.018.391.018h.2l.213.018c.142.018.266.018.408.036s.266.036.391.053a13.667,13.667,0,0,1,1.527.3,13.225,13.225,0,0,1,2.646.995,15.7,15.7,0,0,1,3.694,2.593,18.767,18.767,0,0,1,1.918,2.113A4.5,4.5,0,0,1,257.241,384.946Z" transform="translate(-178 -378.025)"/></g><path class="b" d="M299.934,257.471a1.659,1.659,0,0,1,.888.888c4.706-2.1,9.608-4.227,14.154-6.091-2.895-.462-5.47-.888-7.743-1.261-7.743-1.3-12.005-2.007-14.58-2.007a5.883,5.883,0,0,0-2.486.408c-1.545.71-2.557,1.279-2.593,1.3l-1.474.817,1.545.657C287.734,252.232,297.714,256.494,299.934,257.471Z" transform="translate(-88.902 -153.955)"/><path class="b" d="M324.35,247.028c-.391-1.652-2.238-1.936-6.731-2.593a2.946,2.946,0,0,0-.426-.036c-4.653,0-25.573,9.2-36.264,14.047-.479-.213-.959-.408-1.4-.6-4.28-1.811-6.624-2.824-8.507-2.824a4.234,4.234,0,0,0-1.581.284l-.053.018-2.486,1.332,9.075,6.926s4.1-.107,4.9-.124a52.771,52.771,0,0,0,17.848-3.427c4.227-1.581,6.393-2.415,13.994-5.4C323.089,250.562,324.777,248.875,324.35,247.028Z" transform="translate(-73.112 -150.172)"/><g transform="translate(205.349 84.722)"><path class="d" d="M354.82,200.664s-.053-.089-.178-.266c-.107-.178-.284-.426-.515-.746s-.515-.693-.835-1.119c-.337-.426-.728-.87-1.154-1.35a18.316,18.316,0,0,0-3.285-2.877c-.337-.213-.675-.426-1.03-.6-.178-.089-.355-.2-.533-.266l-.266-.124c-.089-.036-.2-.071-.284-.107s-.2-.071-.284-.107l-.284-.089c-.2-.071-.391-.124-.586-.178-.2-.071-.391-.089-.586-.142l-.124-.036-.16-.018-.337-.053-.16-.036-.142-.018-.3-.036c-.2-.018-.408-.018-.6-.036a9.415,9.415,0,0,0-1.225.036c-.408.036-.8.089-1.208.16-.2.036-.391.089-.586.124-.2.053-.391.107-.568.142a17.253,17.253,0,0,0-4,1.74c-.568.32-1.066.657-1.51.959s-.817.586-1.119.817-.551.426-.71.568-.249.213-.249.213.053-.089.178-.266.3-.426.551-.728.568-.675.959-1.066a16.4,16.4,0,0,1,1.367-1.243,14.171,14.171,0,0,1,4.085-2.326c.213-.071.408-.142.622-.213.213-.053.426-.124.657-.178a10.966,10.966,0,0,1,1.367-.249,9.286,9.286,0,0,1,1.4-.071c.231.018.462,0,.71.036l.373.036.178.018.16.018.32.053.16.036h.071l.036.018.089.018c.231.053.462.107.693.178s.462.124.675.213l.337.124a2.511,2.511,0,0,1,.32.142c.107.053.213.089.32.142l.3.16c.213.107.408.231.6.337a13.225,13.225,0,0,1,1.1.746,14.1,14.1,0,0,1,1.829,1.7,18.175,18.175,0,0,1,1.367,1.74,13.256,13.256,0,0,1,.941,1.6c.266.48.444.923.6,1.279s.249.657.32.852C354.785,200.557,354.82,200.664,354.82,200.664Z" transform="translate(-332 -190.874)"/></g><g transform="translate(216.76 71.745)"><path class="d" d="M397.347,117.8a.439.439,0,0,1,.071.107,2.1,2.1,0,0,1,.2.32,3.422,3.422,0,0,1,.266.515c.089.2.2.444.284.693a5.638,5.638,0,0,1,.231.87,2.239,2.239,0,0,1,.071.5c.018.178.036.355.036.533v.284c0,.089-.018.2-.018.284-.018.089-.018.2-.036.284a1.662,1.662,0,0,1-.071.284,3.928,3.928,0,0,1-.462,1.137,3.567,3.567,0,0,0-.249.444c-.053.142-.107.249-.16.391a7.229,7.229,0,0,0-.231.888,3.845,3.845,0,0,0-.071.444c0,.071-.018.142-.018.213a.865.865,0,0,1-.018.213c0,.071-.018.142-.018.213v.995a2.039,2.039,0,0,0,.018.337c.018.213.018.408.036.568.018.32.035.5.035.5a.441.441,0,0,1-.071-.107c-.036-.071-.107-.178-.178-.32s-.16-.32-.249-.533c-.036-.107-.089-.213-.124-.337s-.089-.249-.124-.373c-.036-.142-.071-.266-.107-.426a3.6,3.6,0,0,1-.071-.462c-.018-.16-.036-.32-.053-.5s0-.355,0-.533a4.643,4.643,0,0,1,.426-1.723l.266-.479a2.6,2.6,0,0,0,.355-.817,1,1,0,0,1,.071-.213,47027.076,47027.076,0,0,1,.071-.462c0-.071.018-.16.018-.231a7.572,7.572,0,0,0,.036-.888c0-.284-.018-.568-.036-.835s-.036-.5-.071-.71c-.018-.213-.053-.408-.071-.551A1.65,1.65,0,0,0,397.347,117.8Z" transform="translate(-396.256 -117.8)"/></g><g transform="translate(206.689 76.504)"><path class="d" d="M339.572,144.6s.053.124.178.355c.053.107.124.249.2.408s.16.32.249.5A9.088,9.088,0,0,0,340.9,147a1.659,1.659,0,0,0,.231.266l.124.124c.036.036.089.071.124.107s.089.071.124.107c.053.036.089.053.142.089a1.47,1.47,0,0,0,.284.16c.124.071.266.142.391.213.142.107.3.213.426.32a3.271,3.271,0,0,1,.337.355,2.829,2.829,0,0,1,.266.373,3.988,3.988,0,0,1,.213.373,1.685,1.685,0,0,1,.16.373q.133.373.213.693a4.34,4.34,0,0,1,.107.6,4.509,4.509,0,0,1,.018.462,1.444,1.444,0,0,1-.018.3.258.258,0,0,1-.018.107s-.071-.124-.2-.355c-.053-.107-.142-.249-.213-.391a1.624,1.624,0,0,0-.142-.231,1.953,1.953,0,0,0-.16-.249,2.318,2.318,0,0,0-.178-.266c-.053-.089-.124-.178-.178-.266a.622.622,0,0,1-.089-.142c-.036-.053-.071-.089-.107-.142s-.071-.089-.107-.142a.82.82,0,0,0-.124-.124,4.2,4.2,0,0,0-.5-.48c-.089-.071-.16-.107-.249-.178-.124-.053-.231-.124-.355-.178a2.672,2.672,0,0,1-.444-.266,1.891,1.891,0,0,1-.2-.16,1.675,1.675,0,0,1-.178-.178,1.445,1.445,0,0,1-.16-.178c-.053-.071-.089-.124-.142-.2a2.826,2.826,0,0,1-.231-.391,3.9,3.9,0,0,1-.32-.764,5.747,5.747,0,0,1-.16-.71,4.689,4.689,0,0,1-.053-1.066,1.275,1.275,0,0,1,.035-.3A.063.063,0,0,1,339.572,144.6Z" transform="translate(-339.545 -144.6)"/></g><g transform="translate(224.191 75.83)"><path class="d" d="M444.8,140.8v.124a1.605,1.605,0,0,1-.035.373,6.582,6.582,0,0,1-1.137,2.984,4.209,4.209,0,0,1-.781.817,3.324,3.324,0,0,1-1.083.568l-.071.018h-.018c-.036.018.053-.018.036-.018h-.018l-.036.018-.124.036-.249.089c-.107.071-.231.107-.355.178a4.124,4.124,0,0,0-.71.533,1.148,1.148,0,0,1-.16.142l-.16.16-.16.16c-.053.053-.089.107-.142.16l-.266.32c-.089.107-.16.213-.249.32a3.144,3.144,0,0,0-.213.3c-.071.089-.124.2-.2.266a4.01,4.01,0,0,0-.3.462c-.178.266-.266.408-.266.408a.568.568,0,0,1,.018-.124c.018-.089.018-.213.053-.355.035-.16.071-.337.124-.551s.142-.444.231-.71a3.8,3.8,0,0,1,.178-.391c.071-.142.142-.266.213-.408.036-.071.089-.142.124-.213.053-.071.089-.142.142-.213s.089-.142.142-.213a.931.931,0,0,1,.178-.2,2.707,2.707,0,0,1,.391-.391,2.28,2.28,0,0,1,.462-.355c.071-.053.178-.107.266-.16a2.118,2.118,0,0,1,.284-.142l.249-.089.124-.053.036-.018h.018l.053-.018.053-.018a2.764,2.764,0,0,0,.764-.373,5.14,5.14,0,0,0,.675-.586,9.617,9.617,0,0,0,1.03-1.332c.284-.426.5-.8.657-1.083C444.706,140.96,444.8,140.8,444.8,140.8Z" transform="translate(-438.1 -140.8)"/></g><g transform="translate(196.025 80.021)"><path class="d" d="M279.5,164.4s.124.16.355.444c.231.266.551.657.941,1.1a10.67,10.67,0,0,0,1.456,1.314,5.68,5.68,0,0,0,.906.515,3.762,3.762,0,0,0,.977.249l.3.036c.053,0,.107.018.178.018l.178.036c.231.053.444.124.657.2a4.279,4.279,0,0,1,1.119.639,6.393,6.393,0,0,1,1.474,1.6,7.172,7.172,0,0,1,.71,1.332c.071.16.107.3.142.391a.427.427,0,0,1,.035.142s-.142-.16-.373-.408c-.249-.266-.586-.622-1.012-1.03a9.3,9.3,0,0,0-1.545-1.19,3.976,3.976,0,0,0-1.438-.568l-.107-.018c-.036,0-.071-.018-.124-.018l-.3-.018a3.617,3.617,0,0,1-1.332-.373,4.693,4.693,0,0,1-1.066-.728,6.676,6.676,0,0,1-1.35-1.7,8.248,8.248,0,0,1-.622-1.367c-.053-.178-.089-.3-.124-.408A1.148,1.148,0,0,0,279.5,164.4Z" transform="translate(-279.5 -164.4)"/></g><g transform="translate(228.169 84.638)"><path class="d" d="M460.5,196.03a1.062,1.062,0,0,1,.053-.124,2.566,2.566,0,0,1,.2-.355,6.97,6.97,0,0,1,.888-1.19,6.287,6.287,0,0,1,1.669-1.35,4.152,4.152,0,0,1,1.19-.462,3.537,3.537,0,0,1,1.367-.053l.284.036c.053.018.089,0,.124.018h.355a1.172,1.172,0,0,0,.249-.018,4.726,4.726,0,0,0,.995-.213,8.32,8.32,0,0,0,1.74-.817c.5-.3.906-.568,1.19-.781a3.938,3.938,0,0,1,.337-.231c.071-.053.124-.089.124-.089a.492.492,0,0,1-.071.124c-.053.089-.124.213-.213.355a6.62,6.62,0,0,1-.959,1.137,6.362,6.362,0,0,1-1.776,1.225,5.193,5.193,0,0,1-1.225.373,4.155,4.155,0,0,1-.675.053l-.178-.018a.6.6,0,0,1-.178-.018l-.3-.036a3.006,3.006,0,0,0-.977.018,3.885,3.885,0,0,0-.977.3,10.544,10.544,0,0,0-1.669.941c-.48.337-.87.639-1.137.852A5.1,5.1,0,0,0,460.5,196.03Z" transform="translate(-460.5 -190.4)"/></g><g transform="translate(184.109 124.376)"><path class="b" d="M212.4,424.434s.266.2.781.533,1.279.817,2.273,1.385,2.22,1.225,3.658,1.882a47.863,47.863,0,0,0,4.9,1.936c.923.3,1.865.586,2.877.835.995.249,2.042.479,3.108.675,1.083.178,2.184.337,3.321.426,1.137.107,2.291.142,3.463.142.586,0,1.19-.018,1.776-.053l.444-.036h.2l.231-.018.231-.018c.071,0,.16-.018.231-.018l.408-.053a21.531,21.531,0,0,0,3.41-.8,22.672,22.672,0,0,0,3.356-1.385,35.259,35.259,0,0,0,3.268-1.829c1.066-.657,2.131-1.367,3.179-2.113s2.078-1.492,3.108-2.273c2.06-1.527,4.1-3.09,6.18-4.511a36.174,36.174,0,0,1,6.429-3.623,14.435,14.435,0,0,1,1.669-.6c.284-.089.568-.16.835-.249.284-.071.551-.142.835-.2a14.126,14.126,0,0,1,3.3-.3c.124,0,.266.018.391.018l.2.018h.124l.089.018c.124.018.249.018.355.035l.178.018.2.018c.249.036.515.071.746.124.124.018.231.053.355.071.124.035.231.053.355.089a12.382,12.382,0,0,1,2.522.923,13.965,13.965,0,0,1,3.5,2.468,15.222,15.222,0,0,1,1.758,2.06,6.516,6.516,0,0,1,.5.817,6.075,6.075,0,0,0-.639-.693,13.11,13.11,0,0,0-2.007-1.7,14.286,14.286,0,0,0-3.57-1.847,11.791,11.791,0,0,0-2.362-.551c-.107-.018-.213-.018-.32-.036-.107,0-.213-.018-.32-.018-.213-.018-.426-.018-.639-.036h-.835l-.178.018c-.107.018-.231.018-.337.036a12.519,12.519,0,0,0-2.77.657,19.5,19.5,0,0,0-2.806,1.261,43.2,43.2,0,0,0-5.63,3.871c-1.9,1.492-3.836,3.126-5.878,4.759-1.03.817-2.06,1.634-3.143,2.415s-2.2,1.563-3.374,2.291c-1.172.71-2.38,1.385-3.641,1.989a28.094,28.094,0,0,1-3.907,1.492c-.337.107-.675.178-1.012.266-.337.071-.675.16-1.03.213a16.229,16.229,0,0,1-2.078.284l-.533.036c-.089,0-.16.018-.249.018l-.231.018H238.63c-.657,0-1.314-.018-1.953-.053s-1.279-.089-1.918-.142c-.622-.071-1.243-.16-1.865-.249-.6-.089-1.208-.213-1.794-.337s-1.172-.266-1.74-.426a36.425,36.425,0,0,1-6.18-2.255c-.923-.426-1.776-.87-2.575-1.332s-1.545-.906-2.22-1.367c-.675-.444-1.314-.888-1.865-1.314-.568-.426-1.066-.835-1.51-1.208-.888-.746-1.545-1.385-1.989-1.829A6.1,6.1,0,0,1,212.4,424.434Z" transform="translate(-212.4 -414.162)"/></g></g></svg>